<?xml version="1.0" standalone="no"?>
<!DOCTYPE svg PUBLIC "-//W3C//DTD SVG 1.1//EN" "http://www.w3.org/Graphics/SVG/1.1/DTD/svg11.dtd" >
<svg xmlns="http://www.w3.org/2000/svg" xmlns:xlink="http://www.w3.org/1999/xlink" version="1.1">
<metadata>
Created by FontForge 20170731 at Tue Apr 13 23:16:49 2021
 By Aleksey,,,
Copyright (c) 2016 by Fontfabric LLC. All rights reserved.
</metadata>
<defs>
<font id="Akrobat-ExtraLight" horiz-adv-x="0" >
  <font-face 
    font-family="Akrobat ExtraLight"
    font-weight="300"
    font-stretch="normal"
    units-per-em="2048"
    panose-1="0 0 4 0 0 0 0 0 0 0"
    ascent="1638"
    descent="-410"
    x-height="1067"
    cap-height="1434"
    bbox="-678 -463 1610 1911"
    underline-thickness="102"
    underline-position="-307"
    unicode-range="U+0020-25CA"
  />
<missing-glyph horiz-adv-x="1024" 
d="M840 1638v-2048h-650v2048h650zM682 1501h-338v-67h133v-76h-135v-68h340v68h-135v76h135v67zM547 1237h-205v-213h340v70h-135v143zM477 1167v-73h-67v73h67zM682 969h-340v-68h135v-76h-135v-67h205v143h135v68zM682 846h-68v-135h-272v-70h340v205zM682 596h-205v-115
h70v47h67v-96h-204v164h-68v-231h340v231zM682 242h-340v-232h340v232zM614 174v-96h-204v96h204zM682 -37h-340v-67h143l-143 -97v-67h340v67h-209l143 97h66v67z" />
    <glyph glyph-name=".notdef" horiz-adv-x="1024" 
d="M840 1638v-2048h-650v2048h650zM682 1501h-338v-67h133v-76h-135v-68h340v68h-135v76h135v67zM547 1237h-205v-213h340v70h-135v143zM477 1167v-73h-67v73h67zM682 969h-340v-68h135v-76h-135v-67h205v143h135v68zM682 846h-68v-135h-272v-70h340v205zM682 596h-205v-115
h70v47h67v-96h-204v164h-68v-231h340v231zM682 242h-340v-232h340v232zM614 174v-96h-204v96h204zM682 -37h-340v-67h143l-143 -97v-67h340v67h-209l143 97h66v67z" />
    <glyph glyph-name=".null" 
 />
    <glyph glyph-name="nonmarkingreturn" horiz-adv-x="682" 
 />
    <glyph glyph-name="space" unicode=" " horiz-adv-x="516" 
 />
    <glyph glyph-name="exclam" unicode="!" horiz-adv-x="403" 
d="M170 252v1182h63v-1182h-63zM203 -16q-29 0 -46.5 17t-17.5 46t17.5 45.5t46.5 16.5q28 0 44.5 -16.5t16.5 -45.5t-16.5 -46t-44.5 -17z" />
    <glyph glyph-name="quotedbl" unicode="&#x22;" horiz-adv-x="395" 
d="M84 1434h86l-76 -371h-49zM258 1434h86l-74 -371h-51z" />
    <glyph glyph-name="numbersign" unicode="#" horiz-adv-x="1120" 
d="M199 0l88 387h-248l14 57h248l119 523h-248l12 57h248l94 410h62l-94 -410h276l94 410h62l-95 -410h250l-12 -57h-250l-119 -523h250l-14 -57h-250l-88 -387h-61l88 387h-277l-88 -387h-61zM362 444h277l119 523h-277z" />
    <glyph glyph-name="dollar" unicode="$" horiz-adv-x="882" 
d="M793 322q0 -140 -91 -240.5t-243 -106.5v-149h-53v151q-143 10 -228 107t-94 250h66q12 -136 86.5 -215.5t201.5 -79.5q134 0 210.5 79.5t76.5 203.5q0 61 -21.5 114t-58 94t-83.5 78.5t-99 71.5t-104.5 68t-99.5 73t-83.5 82t-58 99t-21.5 120q0 139 86.5 231t223.5 103
v152h53v-150q138 -7 223 -102.5t96 -251.5h-65q-12 140 -84 215.5t-191 75.5q-123 0 -199.5 -74t-76.5 -199q0 -72 35 -133.5t90.5 -107.5t123 -89.5t134.5 -90t122.5 -98t90.5 -123.5t35 -158z" />
    <glyph glyph-name="percent" unicode="%" horiz-adv-x="1216" 
d="M236 813q-78 0 -125.5 51t-47.5 133v267q0 82 47.5 134t125.5 52q79 0 125.5 -51.5t46.5 -134.5v-267q0 -83 -46.5 -133.5t-125.5 -50.5zM74 0l1005 1434h64l-1006 -1434h-63zM236 864q57 0 87.5 36t30.5 97v267q0 61 -30.5 97t-87.5 36q-56 0 -87.5 -36t-31.5 -97v-267
q0 -61 31.5 -97t87.5 -36zM981 -16q-76 0 -124 52t-48 134v266q0 82 48 133.5t124 51.5q81 0 127.5 -51t46.5 -134v-266q0 -83 -46.5 -134.5t-127.5 -51.5zM981 37q57 0 88 36t31 97v266q0 61 -31 97t-88 36q-55 0 -86 -36t-31 -97v-266q0 -61 31 -97t86 -36z" />
    <glyph glyph-name="ampersand" unicode="&#x26;" horiz-adv-x="1153" 
d="M1075 0h-82q-48 70 -137 195q-151 -220 -344 -220q-152 0 -246 96t-94 255q0 57 16.5 111.5t40.5 96.5t64 88t74 78t84 74q-170 273 -170 404q0 123 70 201.5t198 78.5q126 0 199 -79.5t73 -204.5q0 -42 -10.5 -80.5t-34 -77t-44 -66.5t-61 -67t-63 -59t-71.5 -62
q100 -152 315 -449q63 120 92 250l68 -8q-41 -162 -117 -301q117 -160 180 -254zM346 1176q0 -110 156 -359q63 53 97.5 85.5t76.5 81t61 96t19 98.5q0 96 -56.5 156.5t-150.5 60.5q-98 0 -150.5 -60.5t-52.5 -158.5zM512 41q85 0 163 56t140 153q-29 40 -109 151.5
t-129.5 183t-91.5 136.5q-56 -49 -94 -86.5t-75.5 -87t-56.5 -103.5t-19 -112q0 -130 75 -210.5t197 -80.5z" />
    <glyph glyph-name="quotesingle" unicode="'" horiz-adv-x="219" 
d="M84 1434h86l-76 -371h-49z" />
    <glyph glyph-name="parenleft" unicode="(" horiz-adv-x="536" 
d="M416 -246q-111 1 -177.5 79t-66.5 202v1366q0 124 65.5 200.5t178.5 77.5v-61q-85 -4 -131.5 -61.5t-46.5 -155.5v-1366q0 -99 47 -158.5t131 -60.5v-62z" />
    <glyph glyph-name="parenright" unicode=")" horiz-adv-x="536" 
d="M121 -246v62q84 1 131 60.5t47 158.5v1366q0 98 -46.5 155.5t-131.5 61.5v61q113 -1 178.5 -77.5t65.5 -200.5v-1366q0 -124 -66.5 -202t-177.5 -79z" />
    <glyph glyph-name="asterisk" unicode="*" horiz-adv-x="581" 
d="M174 1030l-45 33l117 160l-187 61l17 51l188 -61v199h53v-199l189 61l18 -51l-190 -61l119 -160l-45 -33l-119 162z" />
    <glyph glyph-name="plus" unicode="+" horiz-adv-x="866" 
d="M760 662v-60h-297v-301h-60v301h-297v60h297v301h60v-301h297z" />
    <glyph glyph-name="comma" unicode="," horiz-adv-x="262" 
d="M106 117h89l-76 -371h-49z" />
    <glyph glyph-name="hyphen" unicode="-" horiz-adv-x="684" 
d="M100 494v61h484v-61h-484z" />
    <glyph glyph-name="period" unicode="." horiz-adv-x="346" 
d="M174 -16q-29 0 -46 17t-17 46t17 45.5t46 16.5q28 0 45 -16.5t17 -45.5t-17 -46t-45 -17z" />
    <glyph glyph-name="slash" unicode="/" horiz-adv-x="774" 
d="M680 1649h65l-651 -1876h-65z" />
    <glyph glyph-name="zero" unicode="0" horiz-adv-x="919" 
d="M459 -23q-139 0 -232.5 96t-93.5 244v799q0 148 93.5 244t232.5 96q140 0 233.5 -96t93.5 -244v-799q0 -148 -93.5 -244t-233.5 -96zM459 41q115 0 189.5 76.5t74.5 199.5v799q0 123 -74.5 200t-189.5 77q-114 0 -188 -77t-74 -200v-799q0 -123 74 -199.5t188 -76.5z" />
    <glyph glyph-name="one" unicode="1" horiz-adv-x="542" 
d="M317 1434h54v-1432h-64v1341l-241 -194v76z" />
    <glyph glyph-name="two" unicode="2" horiz-adv-x="788" 
d="M72 0v59q0 88 31.5 175t81.5 161t111 148t121.5 145t110.5 141t81.5 148.5t31.5 155.5q0 116 -71 187.5t-183 68.5q-107 0 -174.5 -75.5t-71.5 -203.5h-65q9 152 94.5 246t216.5 94q140 1 230 -88.5t90 -228.5q0 -84 -31.5 -168t-82 -156t-111.5 -144l-122 -144
t-111.5 -143t-82 -153t-31.5 -164h578v-61h-641z" />
    <glyph glyph-name="three" unicode="3" horiz-adv-x="792" 
d="M356 846q151 0 241.5 -92.5t90.5 -247.5v-146q0 -178 -88.5 -277t-237.5 -99q-138 0 -227.5 96t-89.5 258h64q4 -141 74 -217t179 -76q122 0 192.5 81.5t70.5 233.5v146q0 132 -75.5 206t-195.5 74h-102v50l336 538h-510v60h594v-43l-340 -545h24z" />
    <glyph glyph-name="four" unicode="4" horiz-adv-x="786" 
d="M772 479v-61h-172v-418h-65v418h-504v45l344 971h65l-336 -955h431v529h65v-529h172z" />
    <glyph glyph-name="five" unicode="5" horiz-adv-x="837" 
d="M436 961q133 0 219 -98t86 -261v-246q0 -176 -86.5 -276t-226.5 -100q-136 0 -225 95.5t-90 252.5h63q1 -131 72 -209t180 -78q111 0 179.5 82t68.5 233v244q0 139 -67.5 219t-176.5 80q-185 0 -248 -192h-63v727h594v-62h-531v-545q40 62 105 98t147 36z" />
    <glyph glyph-name="six" unicode="6" horiz-adv-x="876" 
d="M457 950q134 0 225.5 -96.5t91.5 -251.5v-266q0 -158 -91 -255t-228 -97q-135 0 -228.5 92.5t-93.5 230.5v801q0 156 90.5 252t229.5 96q128 0 217.5 -92.5t93.5 -239.5h-64q-6 122 -75.5 195.5t-171.5 73.5q-112 0 -183 -77.5t-71 -207.5v-297q41 65 107.5 102t150.5 37
zM709 336v266q0 130 -74 208.5t-184 78.5q-107 0 -179.5 -73t-72.5 -185v-324q0 -113 74 -187.5t182 -74.5q109 0 181.5 79.5t72.5 211.5z" />
    <glyph glyph-name="seven" unicode="7" horiz-adv-x="737" 
d="M20 1434h629v-45l-387 -1391h-67l383 1374h-558v62z" />
    <glyph glyph-name="eight" unicode="8" horiz-adv-x="907" 
d="M588 737q94 -35 148.5 -123t54.5 -204v-66q0 -164 -91 -262t-245 -98t-246 98t-92 262v66q0 116 55.5 204.5t149.5 122.5q-84 37 -133.5 125t-49.5 203v37q0 160 85.5 254t230.5 94q143 0 228 -94.5t85 -253.5v-37q0 -115 -48.5 -203t-131.5 -125zM205 1065
q0 -135 68 -215t182 -80t180.5 80t66.5 215v37q0 131 -66.5 209t-180.5 78t-182 -78t-68 -209v-37zM727 344v66q0 135 -74.5 216t-197.5 81q-124 0 -198.5 -81t-74.5 -216v-66q0 -136 74 -217.5t199 -81.5q123 0 197.5 81.5t74.5 217.5z" />
    <glyph glyph-name="nine" unicode="9" horiz-adv-x="876" 
d="M422 1450q135 0 228 -93t93 -231v-800q0 -156 -90.5 -252.5t-228.5 -96.5q-128 0 -217.5 92.5t-93.5 239.5h63q6 -122 76 -195t172 -73q112 0 183 77.5t71 207.5v297q-41 -65 -107.5 -102.5t-150.5 -37.5q-134 0 -226 96.5t-92 251.5v267q0 158 91.5 255t228.5 97z
M426 545q107 0 179.5 73t72.5 185v323q0 113 -74 188t-182 75q-109 0 -181.5 -79.5t-72.5 -211.5v-267q0 -130 74 -208t184 -78z" />
    <glyph glyph-name="colon" unicode=":" horiz-adv-x="376" 
d="M190 700q-29 0 -46 17.5t-17 46.5t17 45t46 16q28 0 45 -16t17 -45t-17 -46.5t-45 -17.5zM190 -16q-29 0 -46 17t-17 46t17 45.5t46 16.5q28 0 45 -16.5t17 -45.5t-17 -46t-45 -17z" />
    <glyph glyph-name="semicolon" unicode=";" horiz-adv-x="276" 
d="M143 698q-28 0 -44.5 17.5t-16.5 46.5t16.5 46t44.5 17q29 0 46.5 -17t17.5 -46t-17.5 -46.5t-46.5 -17.5zM106 117h89l-76 -371h-49z" />
    <glyph glyph-name="less" unicode="&#x3c;" horiz-adv-x="770" 
d="M664 952v-65l-496 -254l496 -254v-66l-558 285v70z" />
    <glyph glyph-name="equal" unicode="=" horiz-adv-x="866" 
d="M106 715v59h654v-59h-654zM106 481v60h654v-60h-654z" />
    <glyph glyph-name="greater" unicode="&#x3e;" horiz-adv-x="770" 
d="M106 952l558 -284v-70l-558 -285v66l496 254l-496 254v65z" />
    <glyph glyph-name="question" unicode="?" horiz-adv-x="753" 
d="M315 252v149q0 72 16 135t41.5 110t56.5 90.5t62.5 85t57 85t41.5 100.5t16 121q0 116 -71.5 188.5t-180.5 72.5q-110 0 -181 -76.5t-71 -204.5h-63q3 152 92 247t223 95q137 0 226.5 -91.5t89.5 -230.5q0 -92 -30 -170.5t-72 -136t-84.5 -115.5t-72.5 -136.5t-30 -172.5
v-145h-66zM352 -16q-29 0 -46 17t-17 46t17 45.5t46 16.5q28 0 45 -16.5t17 -45.5t-17 -46t-45 -17z" />
    <glyph glyph-name="at" unicode="@" horiz-adv-x="1480" 
d="M752 1466q289 0 448.5 -161.5t159.5 -466.5v-222q0 -160 -60.5 -244.5t-169.5 -84.5q-142 0 -180 129q-68 -135 -213 -135q-111 0 -185.5 79.5t-74.5 208.5v211q0 129 69 206t185 77q66 0 120 -28t87 -81l4 95h55v-537q0 -84 31.5 -125t101.5 -41q86 0 128 66t42 204v222
q0 280 -142.5 426.5t-405.5 146.5q-274 0 -422 -157t-148 -441v-268q0 -281 156 -444.5t410 -163.5q119 0 223.5 29t171.5 85l31 -47q-74 -60 -186 -92.5t-238 -32.5q-283 0 -456 179.5t-173 486.5v268q0 308 165.5 480.5t465.5 172.5zM739 340q80 0 139.5 54.5t59.5 164.5
v246q0 89 -60.5 145t-148.5 56q-87 0 -139.5 -60t-52.5 -166v-211q0 -103 58.5 -166t143.5 -63z" />
    <glyph glyph-name="A" unicode="A" horiz-adv-x="897" 
d="M799 0l-103 393h-495l-103 -393h-69l383 1434h73l383 -1434h-69zM217 453h463l-152 583q-14 53 -40 159t-39 153q-13 -48 -39.5 -154t-40.5 -158z" />
    <glyph glyph-name="B" unicode="B" horiz-adv-x="978" 
d="M618 745q140 -28 207.5 -122.5t67.5 -233.5q0 -186 -106 -287.5t-295 -101.5h-320v1434h301q169 0 265 -96t96 -267q0 -125 -53.5 -211.5t-162.5 -114.5zM473 1372h-235v-600h247q141 0 212 82.5t71 216.5q0 147 -76.5 224t-218.5 77zM492 61q161 0 248 84t87 244
q0 142 -88 232t-252 90h-249v-650h254z" />
    <glyph glyph-name="C" unicode="C" horiz-adv-x="960" 
d="M496 -25q-167 0 -265 109t-98 313v639q0 205 97 313.5t264 108.5q171 0 267 -99t109 -292h-65q-27 330 -311 330q-138 0 -216.5 -91.5t-78.5 -269.5v-639q0 -178 79 -269t218 -91q292 0 319 330h64q-12 -192 -110.5 -292t-272.5 -100z" />
    <glyph glyph-name="D" unicode="D" horiz-adv-x="997" 
d="M172 0v1434h307q184 0 284.5 -103.5t100.5 -298.5v-610q0 -200 -101.5 -311t-283.5 -111h-307zM238 63h241q153 0 236.5 92.5t83.5 268.5v606q0 170 -82 255t-238 85h-241v-1307z" />
    <glyph glyph-name="E" unicode="E" horiz-adv-x="901" 
d="M238 61h575v-61h-641v1434h635v-62h-569v-612h526v-62h-526v-637z" />
    <glyph glyph-name="F" unicode="F" horiz-adv-x="854" 
d="M793 1372h-555v-635h514v-61h-514v-676h-66v1434h621v-62z" />
    <glyph glyph-name="G" unicode="G" horiz-adv-x="993" 
d="M504 -20q-163 0 -267 107.5t-104 301.5v645q0 204 101 312t264 108q106 0 186.5 -41.5t129.5 -130.5t52 -215h-65q-6 164 -87.5 245t-215.5 81q-135 0 -217 -90.5t-82 -270.5v-643q0 -167 85 -257.5t220 -90.5q136 0 223.5 89.5t87.5 252.5v299h-317v61h381v-360
q0 -190 -106 -296.5t-269 -106.5z" />
    <glyph glyph-name="H" unicode="H" horiz-adv-x="1058" 
d="M821 1434h66v-1434h-66v698h-583v-698h-66v1434h66v-672h583v672z" />
    <glyph glyph-name="I" unicode="I" horiz-adv-x="409" 
d="M172 1434h66v-1434h-66v1434z" />
    <glyph glyph-name="J" unicode="J" horiz-adv-x="448" 
d="M-14 -145v63q229 0 229 266v1250h66v-1250q0 -157 -74.5 -243t-220.5 -86z" />
    <glyph glyph-name="K" unicode="K" horiz-adv-x="958" 
d="M854 0l-483 758l-133 -174v-584h-66v1434h66v-748l69 94l490 654h82l-465 -619l516 -815h-76z" />
    <glyph glyph-name="L" unicode="L" horiz-adv-x="794" 
d="M238 63h530v-63h-596v1434h66v-1371z" />
    <glyph glyph-name="M" unicode="M" horiz-adv-x="1282" 
d="M1040 1434h70v-1430h-66v1057q0 45 5 225h-2l-82 -203l-291 -708h-66l-289 708q-70 173 -81 203h-2q2 -72 2 -225v-1057h-66v1430h70l319 -772q14 -33 41 -105t39 -102h2q55 146 80 207z" />
    <glyph glyph-name="N" unicode="N" horiz-adv-x="1083" 
d="M844 1434h67v-1434h-67l-516 1096q-27 56 -90 202h-2q0 -35 1 -112t1 -113v-1073h-66v1434h68l512 -1090q14 -29 96 -209h2q-6 183 -6 211v1088z" />
    <glyph glyph-name="O" unicode="O" horiz-adv-x="1040" 
d="M520 -25q-181 0 -284 113t-103 320v616q0 209 103 321.5t284 112.5t284 -112.5t103 -321.5v-616q0 -207 -103 -320t-284 -113zM520 39q152 0 237 94.5t85 274.5v616q0 181 -85 276t-237 95t-235.5 -94.5t-83.5 -276.5v-616q0 -180 84 -274.5t235 -94.5z" />
    <glyph glyph-name="P" unicode="P" horiz-adv-x="960" 
d="M877 1008q1 -209 -103 -324t-295 -115h-241v-569h-66v1434h307q189 0 292.5 -112t105.5 -314zM811 1008q2 174 -84 268t-248 94h-241v-739h241q162 0 246 97t86 280z" />
    <glyph glyph-name="Q" unicode="Q" horiz-adv-x="1044" 
d="M911 -59l-43 -39l-120 137q-95 -64 -228 -64q-181 0 -284 113t-103 320v616q0 209 103 321.5t284 112.5t284 -112.5t103 -321.5v-616q0 -219 -114 -330zM520 39q112 0 185 49l-173 197l46 41l172 -199q92 95 92 281v616q0 181 -85 276t-237 95t-235.5 -94.5t-83.5 -276.5
v-616q0 -180 84 -274.5t235 -94.5z" />
    <glyph glyph-name="R" unicode="R" horiz-adv-x="946" 
d="M801 0l-346 602h-217v-602h-66v1434h281q197 0 298 -104.5t101 -303.5q0 -187 -86.5 -297.5t-239.5 -124.5l348 -604h-73zM238 1372v-706h254q138 0 216 91.5t78 266.5q0 348 -333 348h-215z" />
    <glyph glyph-name="S" unicode="S" horiz-adv-x="882" 
d="M440 -25q-158 0 -252.5 98.5t-103.5 260.5h66q12 -139 87 -217t203 -78q133 0 209 80t76 205q0 60 -21.5 113t-58 93.5t-83.5 77.5t-99 71t-104.5 68t-99.5 73.5t-83.5 83t-58 101t-21.5 123.5q0 143 95.5 236.5t244.5 93.5q148 0 239.5 -96t102.5 -258h-65
q-12 140 -84 215.5t-191 75.5q-122 0 -199 -74.5t-77 -192.5q0 -74 35 -137t90.5 -109.5t123 -90t134.5 -89.5t122.5 -97t90.5 -123t35 -158q0 -147 -96.5 -248t-256.5 -101z" />
    <glyph glyph-name="T" unicode="T" horiz-adv-x="813" 
d="M764 1434v-62h-328v-1372h-65v1372h-322v62h715z" />
    <glyph glyph-name="U" unicode="U" horiz-adv-x="1015" 
d="M508 -20q-167 0 -264 106.5t-97 304.5v1043h66v-1043q0 -170 78.5 -259t216.5 -89q137 0 216 89.5t79 258.5v1043h65v-1043q0 -197 -97 -304t-263 -107z" />
    <glyph glyph-name="V" unicode="V" horiz-adv-x="878" 
d="M399 0l-370 1434h71l262 -1043q68 -275 76 -303h2q13 52 38.5 155t37.5 150l262 1041h72l-373 -1434h-78z" />
    <glyph glyph-name="W" unicode="W" horiz-adv-x="1376" 
d="M1278 1434h70l-310 -1434h-75l-213 969q-31 156 -60 336h-2q-25 -155 -61 -336l-213 -969h-76l-309 1434h69l215 -1039q59 -284 62 -301h2q17 87 63 307l211 1012h74l209 -991q9 -47 32 -163t33 -165h2q9 48 33 162t33 158z" />
    <glyph glyph-name="X" unicode="X" horiz-adv-x="862" 
d="M817 0h-72l-313 672l-315 -672h-74l352 743l-334 691h72l299 -625l297 625h72l-332 -691z" />
    <glyph glyph-name="Y" unicode="Y" horiz-adv-x="831" 
d="M383 0v535l-365 899h70l250 -623q56 -137 78 -195q13 33 38.5 97.5t37.5 97.5l249 623h70l-362 -899v-535h-66z" />
    <glyph glyph-name="Z" unicode="Z" horiz-adv-x="806" 
d="M123 61h614v-61h-690v53l602 1319h-577v62h657v-48z" />
    <glyph glyph-name="bracketleft" unicode="[" horiz-adv-x="536" 
d="M416 1618h-178v-1802h178v-62h-244v1925h244v-61z" />
    <glyph glyph-name="backslash" unicode="\" horiz-adv-x="929" 
d="M172 1649l651 -1876h-65l-652 1876h66z" />
    <glyph glyph-name="bracketright" unicode="]" horiz-adv-x="536" 
d="M121 -184h178v1802h-178v61h244v-1925h-244v62z" />
    <glyph glyph-name="asciicircum" unicode="^" horiz-adv-x="589" 
d="M551 987h-64l-192 385l-193 -385h-63l223 447h66z" />
    <glyph glyph-name="underscore" unicode="_" horiz-adv-x="843" 
d="M66 -16h714v-60h-714v60z" />
    <glyph glyph-name="a" unicode="a" horiz-adv-x="892" 
d="M446 1090q141 0 219 -86t78 -240v-764h-57l-4 129q-35 -72 -106 -112t-175 -40q-137 0 -219 86.5t-82 237.5q0 149 92.5 230t262.5 81h227v152q0 128 -61.5 197t-176.5 69q-108 0 -176 -62t-71 -157h-64q8 123 92 201t221 78zM410 39q133 0 202.5 73t69.5 205v236h-227
q-142 0 -216.5 -65.5t-74.5 -186.5q0 -123 66 -192.5t180 -69.5z" />
    <glyph glyph-name="b" unicode="b" horiz-adv-x="913" 
d="M489 1090q134 0 218 -96.5t84 -254.5v-409q0 -158 -89 -255.5t-225 -97.5q-84 0 -155.5 40t-112.5 106l-4 -123h-58v1481h64v-574q35 88 109 135.5t169 47.5zM727 330v409q0 136 -68 213.5t-184 77.5q-114 0 -189 -88t-75 -246v-381q0 -123 73.5 -200.5t182.5 -77.5
q116 0 188 79t72 214z" />
    <glyph glyph-name="c" unicode="c" horiz-adv-x="862" 
d="M440 -20q-147 0 -233 93.5t-86 252.5v417q0 159 84.5 253t228.5 94q150 0 236 -95.5t88 -261.5h-64q-2 140 -69.5 217.5t-190.5 77.5q-117 0 -183.5 -76.5t-66.5 -208.5v-417q0 -132 68 -208.5t188 -76.5q122 0 190.5 78.5t69.5 220.5h64q-1 -168 -87.5 -264t-236.5 -96z
" />
    <glyph glyph-name="d" unicode="d" horiz-adv-x="913" 
d="M702 1481h62v-1481h-55l-7 123q-41 -65 -111.5 -105.5t-154.5 -40.5q-137 0 -226 97.5t-89 255.5v409q0 158 84 254.5t219 96.5q95 0 169 -47.5t109 -135.5v574zM446 37q109 0 182.5 77.5t73.5 200.5v381q0 158 -75 246t-189 88q-116 0 -185 -77.5t-69 -213.5v-409
q0 -134 73 -213.5t189 -79.5z" />
    <glyph glyph-name="e" unicode="e" horiz-adv-x="888" 
d="M717 317h63q-15 -158 -101 -247.5t-239 -89.5q-147 0 -233 93.5t-86 252.5v417q0 159 86 253t233 94q149 0 235.5 -94t86.5 -253v-241h-578v-176q0 -132 68 -208.5t188 -76.5q125 0 194 72t83 204zM440 1028q-120 0 -188 -76.5t-68 -208.5v-184h516v184
q0 132 -69.5 208.5t-190.5 76.5z" />
    <glyph glyph-name="f" unicode="f" horiz-adv-x="544" 
d="M473 1444q-105 0 -161 -62.5t-56 -189.5v-125h236v-59h-236v-1008h-61v1008h-154v59h154v125q0 152 72 230.5t206 78.5h35v-57h-35z" />
    <glyph glyph-name="g" unicode="g" horiz-adv-x="911" 
d="M707 1067h57v-1133q0 -152 -80.5 -238.5t-220.5 -86.5q-146 0 -232.5 79t-95.5 216h62q11 -112 78.5 -174t187.5 -62q113 0 175 69t62 197v234q-38 -69 -106 -108.5t-148 -39.5q-141 0 -233 96.5t-92 252.5v366q0 160 91 257.5t230 97.5q84 0 153 -41t107 -115zM453 80
q107 0 177 75t70 193v412q0 118 -71.5 194t-175.5 76q-118 0 -193.5 -80t-75.5 -215v-366q0 -131 75.5 -210t193.5 -79z" />
    <glyph glyph-name="h" unicode="h" horiz-adv-x="913" 
d="M508 1090q131 0 201.5 -102.5t70.5 -305.5v-682h-63v680q0 350 -221 350q-124 0 -204.5 -104.5t-80.5 -272.5v-653h-64v1477h64v-590q43 95 121 149t176 54z" />
    <glyph glyph-name="i" unicode="i" horiz-adv-x="358" 
d="M180 1274q-29 0 -47 18t-18 47t18 46.5t47 17.5t46.5 -17.5t17.5 -46.5t-17.5 -47t-46.5 -18zM147 0v1067h64v-1067h-64z" />
    <glyph glyph-name="j" unicode="j" horiz-adv-x="436" 
d="M223 1274q-29 0 -47 17t-18 46t18 47.5t47 18.5t47.5 -18.5t18.5 -47.5t-18 -46t-48 -17zM-55 -387v59q248 9 248 271v1124h63v-1124q0 -152 -79 -239.5t-232 -90.5z" />
    <glyph glyph-name="k" unicode="k" horiz-adv-x="829" 
d="M733 0l-416 571l-106 -118v-453h-64v1481h64v-942l475 528h82l-406 -446l445 -621h-74z" />
    <glyph glyph-name="l" unicode="l" horiz-adv-x="366" 
d="M152 0v1479h63v-1479h-63z" />
    <glyph glyph-name="m" unicode="m" horiz-adv-x="1433" 
d="M1036 1090q126 0 194 -101t68 -297v-692h-63v690q0 340 -209 340q-120 0 -196 -104t-76 -273v-653h-62v690q0 171 -54 255.5t-155 84.5q-120 0 -196 -104t-76 -273v-653h-64v1067h58l6 -149v-29q42 94 115.5 147.5t167.5 53.5q192 0 245 -238q37 110 115.5 174t181.5 64z
" />
    <glyph glyph-name="n" unicode="n" horiz-adv-x="913" 
d="M508 1090q129 0 199.5 -100t70.5 -296v-694h-63v688q0 342 -219 342q-124 0 -204.5 -104.5t-80.5 -272.5v-653h-64v1067h58l6 -143v-37q43 95 121 149t176 54z" />
    <glyph glyph-name="o" unicode="o" horiz-adv-x="897" 
d="M449 -23q-152 0 -240 95t-88 256v413q0 160 88 254.5t240 94.5q150 0 237.5 -94.5t87.5 -254.5v-413q0 -160 -87.5 -255.5t-237.5 -95.5zM449 39q123 0 192.5 77.5t69.5 211.5v413q0 134 -69.5 210.5t-192.5 76.5t-194 -77t-71 -210v-413q0 -134 71 -211.5t194 -77.5z
" />
    <glyph glyph-name="p" unicode="p" horiz-adv-x="913" 
d="M489 1090q130 0 216 -97.5t86 -255.5v-409q0 -157 -88 -254t-224 -97q-83 0 -156.5 42t-111.5 114v-502h-64v1436h58l4 -156q37 85 110 132t170 47zM727 328v409q0 136 -70 214.5t-182 78.5q-108 0 -186 -85.5t-78 -233.5v-398q0 -117 73 -196.5t183 -79.5
q117 0 188.5 78.5t71.5 212.5z" />
    <glyph glyph-name="q" unicode="q" horiz-adv-x="913" 
d="M709 1067h55v-1436h-62v504q-38 -73 -111 -115.5t-157 -42.5q-136 0 -224.5 97t-88.5 254v409q0 158 86.5 255.5t216.5 97.5q95 0 168 -47.5t110 -131.5zM446 37q109 0 182.5 79.5t73.5 196.5v398q0 148 -78.5 233.5t-187.5 85.5q-111 0 -181.5 -79t-70.5 -214v-409
q0 -133 72.5 -212t189.5 -79z" />
    <glyph glyph-name="r" unicode="r" horiz-adv-x="651" 
d="M504 1090q60 0 110 -13v-67q-59 18 -122 18q-123 0 -202 -104t-79 -271v-649h-64v1063h58l6 -135v-45q43 95 119.5 149t173.5 54z" />
    <glyph glyph-name="s" unicode="s" horiz-adv-x="796" 
d="M408 -23q-148 0 -235 82t-91 230h61q6 -125 74 -187.5t191 -62.5q104 0 172.5 57t68.5 152q0 62 -30.5 109.5t-79.5 78.5t-108 57.5t-118.5 55t-108.5 63t-79.5 89.5t-30.5 126q0 116 82.5 189.5t210.5 73.5q135 0 217 -76.5t86 -206.5h-63q-3 107 -66 165t-174 58
q-101 0 -165 -56t-64 -149q0 -60 30.5 -105.5t79.5 -75.5t107.5 -56.5t117.5 -55.5t108 -64t79.5 -92t30.5 -130q0 -118 -87 -193.5t-216 -75.5z" />
    <glyph glyph-name="t" unicode="t" horiz-adv-x="575" 
d="M475 53h45v-59h-45q-276 0 -276 282v734h-152v57h152v252h63v-252h242v-57h-242v-734q0 -115 53.5 -169t159.5 -54z" />
    <glyph glyph-name="u" unicode="u" horiz-adv-x="913" 
d="M702 1067h64v-1067h-57l-7 143v37q-43 -95 -120.5 -149t-175.5 -54q-129 0 -200 100t-71 296v694h64v-688q0 -342 219 -342q124 0 204 104t80 273v653z" />
    <glyph glyph-name="v" unicode="v" horiz-adv-x="753" 
d="M653 1067h66l-309 -1067h-66l-309 1067h65l197 -694q10 -36 78 -289h4q68 253 78 289z" />
    <glyph glyph-name="w" unicode="w" horiz-adv-x="1208" 
d="M1106 1067h65l-266 -1067h-67l-191 756q-19 78 -43 196h-2q-9 -57 -43 -196l-190 -756h-68l-266 1067h65l181 -756q6 -23 53 -235h2q33 156 55 248l178 723h68l178 -723q10 -41 29.5 -128t27.5 -120q7 28 16 67.5t20.5 90t17.5 77.5z" />
    <glyph glyph-name="x" unicode="x" horiz-adv-x="739" 
d="M713 0h-74l-268 485l-273 -485h-71l307 539l-295 528h72l260 -469l258 469h71l-292 -528z" />
    <glyph glyph-name="y" unicode="y" horiz-adv-x="765" 
d="M666 1067h65l-379 -1231q-31 -99 -79.5 -155t-125.5 -56h-57v60h51q54 0 89.5 42.5t62.5 122.5l78 254l-336 963h67l299 -864z" />
    <glyph glyph-name="z" unicode="z" horiz-adv-x="698" 
d="M117 59h520v-59h-596v53l512 957h-479v59h555v-53z" />
    <glyph glyph-name="braceleft" unicode="{" horiz-adv-x="667" 
d="M336 991q0 -83 -36.5 -156t-104.5 -110q68 -37 104.5 -110t36.5 -156v-406q0 -101 60 -169t151 -68v-62q-118 0 -196.5 86t-78.5 213v406q0 79 -39 141t-112 92v68q73 29 112 90.5t39 140.5v389q0 127 78.5 213t196.5 86v-61q-91 -3 -151 -70t-60 -168v-389z" />
    <glyph glyph-name="bar" unicode="|" horiz-adv-x="366" 
d="M152 1628h63v-1790h-63v1790z" />
    <glyph glyph-name="braceright" unicode="}" horiz-adv-x="667" 
d="M395 975q0 -79 39.5 -141.5t112.5 -92.5v-67q-73 -29 -112.5 -91t-39.5 -141v-389q0 -127 -78 -213t-196 -86v62q91 3 151 69.5t60 167.5v389q0 83 36.5 156.5t104.5 110.5q-68 37 -104.5 110t-36.5 156v405q0 102 -60 170t-151 68v61q118 0 196 -86t78 -213v-405z" />
    <glyph glyph-name="asciitilde" unicode="~" horiz-adv-x="894" 
d="M743 682l37 -43q-67 -111 -164 -111q-39 0 -87 17t-85.5 37.5t-82 37.5t-76.5 17q-44 0 -74.5 -24t-60.5 -66l-35 45q71 106 168 106q49 0 112 -27t121.5 -54t97.5 -27q73 0 129 92z" />
    <glyph glyph-name="exclamdown" unicode="&#xa1;" horiz-adv-x="403" 
d="M203 1087q28 0 44.5 -17t16.5 -46t-16.5 -46t-44.5 -17q-29 0 -46.5 17t-17.5 46t17.5 46t46.5 17zM170 817h63v-1186h-63v1186z" />
    <glyph glyph-name="cent" unicode="&#xa2;" horiz-adv-x="858" 
d="M760 340q0 -161 -79 -256t-218 -104v-130h-57v132q-133 10 -209 102t-76 242v413q0 151 76.5 244t208.5 102v129h57v-127q137 -11 214 -105.5t77 -252.5h-62q0 140 -68.5 218.5t-189.5 78.5q-117 0 -183.5 -77t-66.5 -210v-413q0 -132 68 -208.5t186 -76.5
q122 0 190 78.5t68 220.5h64z" />
    <glyph glyph-name="sterling" unicode="&#xa3;" horiz-adv-x="942" 
d="M199 61h665v-61h-796v57q67 11 106 70.5t39 157.5v413h-145v60h145v338q0 153 89 253.5t226 100.5q139 0 227 -98.5t93 -253.5h-66q-5 132 -73 211.5t-181 79.5q-109 0 -180.5 -82.5t-71.5 -210.5v-338h437v-60h-437v-409q0 -160 -77 -228z" />
    <glyph glyph-name="currency" unicode="&#xa4;" horiz-adv-x="874" 
d="M125 272l-43 37l84 101q-47 77 -47 202v127q0 127 47 201l-84 102l43 37l76 -90q39 42 101.5 66t135.5 24q72 0 134.5 -24t101.5 -66l78 90l43 -37l-86 -100q47 -77 47 -203v-127q0 -125 -47 -202l86 -101l-43 -37l-78 93q-38 -43 -101 -68t-135 -25q-73 0 -135.5 25
t-101.5 68zM438 332q125 0 190.5 72t65.5 208v127q0 138 -65.5 210.5t-190.5 72.5q-126 0 -192 -72.5t-66 -210.5v-127q0 -137 66 -208.5t192 -71.5z" />
    <glyph glyph-name="yen" unicode="&#xa5;" horiz-adv-x="831" 
d="M811 1434l-340 -844h274v-55h-296v-154h296v-57h-296v-324h-66v324h-297v57h297v154h-297v55h274l-342 844h70l250 -623q56 -137 78 -195q13 33 38.5 97.5t37.5 97.5l249 623h70z" />
    <glyph glyph-name="brokenbar" unicode="&#xa6;" horiz-adv-x="325" 
d="M131 1047v581h64v-581h-64zM131 -133v582h64v-582h-64z" />
    <glyph glyph-name="section" unicode="&#xa7;" horiz-adv-x="827" 
d="M545 422q155 -84 155 -240q0 -119 -79 -191.5t-213 -72.5q-141 0 -223.5 81.5t-82.5 223.5h64q2 -113 64 -178t178 -65q105 0 166 54.5t61 147.5q0 60 -30.5 105.5t-79 75.5t-107 55.5t-117.5 54t-107.5 62.5t-79 88t-30.5 125q0 97 52 167.5t147 98.5q-158 88 -158 241
q0 111 73.5 179.5t196.5 68.5q141 0 220 -78.5t79 -216.5h-63q0 111 -60.5 173.5t-173.5 62.5q-95 0 -152 -51.5t-57 -137.5q0 -57 30 -101.5t78.5 -75t107 -57.5t116.5 -56t106.5 -64t78.5 -88t30 -121q0 -96 -51 -167.5t-139 -102.5zM147 750q0 -42 14.5 -76t37 -59.5
t67.5 -52.5t88 -47.5t117 -51.5q93 13 147 74t54 149q0 51 -18.5 89.5t-65 73.5t-94.5 60.5t-138 65.5q-96 -14 -152.5 -73t-56.5 -152z" />
    <glyph glyph-name="copyright" unicode="&#xa9;" horiz-adv-x="1433" 
d="M719 -23q-284 0 -435 157.5t-151 455.5v248q0 302 150.5 460t435.5 158q283 0 431 -158t148 -460v-248q0 -298 -148.5 -455.5t-430.5 -157.5zM719 33q256 0 390 142.5t134 414.5v248q0 276 -133.5 419.5t-390.5 143.5q-260 0 -394.5 -143t-134.5 -420v-248
q0 -272 135 -414.5t394 -142.5zM719 307q-113 0 -180.5 73t-67.5 200v272q0 130 66 204t178 74q106 0 173.5 -68.5t67.5 -182.5h-57q0 92 -51 144t-133 52q-85 0 -135 -58.5t-50 -164.5v-272q0 -103 50.5 -159t138.5 -56q84 0 136 52t52 142h60q0 -117 -68.5 -184.5
t-179.5 -67.5z" />
    <glyph glyph-name="guillemotleft" unicode="&#xab;" horiz-adv-x="878" 
d="M367 184l-267 324v37l267 323h69l-282 -342l282 -342h-69zM709 184l-267 324v37l267 323h69l-282 -342l282 -342h-69z" />
    <glyph glyph-name="logicalnot" unicode="&#xac;" horiz-adv-x="894" 
d="M778 662v-224h-57v164h-602v60h659z" />
    <glyph glyph-name="registered" unicode="&#xae;" horiz-adv-x="952" 
d="M485 1456q163 0 252.5 -90.5t89.5 -261.5v-158q0 -171 -89.5 -260.5t-252.5 -89.5q-166 0 -257 89.5t-91 260.5v158q0 172 91 262t257 90zM791 946v158q0 155 -79.5 235t-226.5 80q-148 0 -229.5 -80t-81.5 -235v-158q0 -154 81 -233.5t230 -79.5q147 0 226.5 79
t79.5 234zM641 1135q0 -65 -32 -106t-87 -50l127 -225h-45l-125 223h-76v-223h-38v534h118q77 0 117.5 -39t40.5 -114zM403 1249v-231h95q48 0 76 30t28 87q0 114 -119 114h-80z" />
    <glyph glyph-name="degree" unicode="&#xb0;" horiz-adv-x="653" 
d="M84 1196q0 114 66.5 184t175.5 70q110 0 176.5 -70t66.5 -184q0 -116 -66.5 -186t-176.5 -70q-109 0 -175.5 70.5t-66.5 185.5zM137 1196q0 -92 52 -148.5t137 -56.5q86 0 138 56.5t52 148.5q0 91 -52 147t-138 56q-85 0 -137 -56t-52 -147z" />
    <glyph glyph-name="plusminus" unicode="&#xb1;" horiz-adv-x="894" 
d="M475 721h299v-59h-299v-300h-59v300h-295v59h295v303h59v-303zM121 209v59h653v-59h-653z" />
    <glyph glyph-name="paragraph" unicode="&#xb6;" horiz-adv-x="1095" 
d="M924 1434v-1612h-66v1550h-377v-1550h-65v1055q-137 0 -216 74t-79 204q0 131 79 205t216 74h508z" />
    <glyph glyph-name="periodcentered" unicode="&#xb7;" horiz-adv-x="346" 
d="M174 459q-29 0 -46 17t-17 46t17 45.5t46 16.5q28 0 45 -16.5t17 -45.5t-17 -46t-45 -17z" />
    <glyph glyph-name="guillemotright" unicode="&#xbb;" horiz-adv-x="878" 
d="M170 184h-70l283 342l-283 342h70l266 -323v-37zM512 184h-70l283 342l-283 342h70l266 -323v-37z" />
    <glyph glyph-name="questiondown" unicode="&#xbf;" horiz-adv-x="753" 
d="M403 1087q28 0 45 -17t17 -46q0 -28 -17 -44.5t-45 -16.5q-29 0 -46 16.5t-17 44.5q0 29 17 46t46 17zM438 819v-149q0 -72 -16 -135t-41.5 -110t-56 -90.5t-61 -85t-56 -85t-41.5 -100.5t-16 -121q0 -116 70.5 -188t178.5 -72q109 0 180.5 76.5t71.5 203.5h66
q-4 -151 -94.5 -246.5t-223.5 -95.5q-135 0 -225 91.5t-90 230.5q0 78 21.5 147t54 116.5t70 100.5t70 101t54 117.5t21.5 148.5v145h63z" />
    <glyph glyph-name="Agrave" unicode="&#xc0;" horiz-adv-x="897" 
d="M510 1579h-64l-196 217h82zM799 0l-103 393h-495l-103 -393h-69l383 1434h73l383 -1434h-69zM217 453h463l-152 583q-14 53 -40 159t-39 153q-13 -48 -39.5 -154t-40.5 -158z" />
    <glyph glyph-name="Aacute" unicode="&#xc1;" horiz-adv-x="897" 
d="M629 1796l-197 -217h-63l178 217h82zM799 0l-103 393h-495l-103 -393h-69l383 1434h73l383 -1434h-69zM217 453h463l-152 583q-14 53 -40 159t-39 153q-13 -48 -39.5 -154t-40.5 -158z" />
    <glyph glyph-name="Acircumflex" unicode="&#xc2;" horiz-adv-x="897" 
d="M446 1751l-133 -172h-61l158 217h73l158 -217h-59zM799 0l-103 393h-495l-103 -393h-69l383 1434h73l383 -1434h-69zM217 453h463l-152 583q-14 53 -40 159t-39 153q-13 -48 -39.5 -154t-40.5 -158z" />
    <glyph glyph-name="Atilde" unicode="&#xc3;" horiz-adv-x="897" 
d="M362 1731q-28 0 -45 -23.5t-18 -67.5h-59q1 66 34 106t86 40q30 0 55 -15t40 -33t35 -33t40 -15q28 0 46.5 24.5t19.5 67.5h57q-5 -68 -37 -108t-84 -40q-28 0 -53 15t-40 33.5t-35.5 33.5t-41.5 15zM799 0l-103 393h-495l-103 -393h-69l383 1434h73l383 -1434h-69z
M217 453h463l-152 583q-14 53 -40 159t-39 153q-13 -48 -39.5 -154t-40.5 -158z" />
    <glyph glyph-name="Adieresis" unicode="&#xc4;" horiz-adv-x="897" 
d="M328 1647q-27 0 -42.5 15t-15.5 42t15.5 42t42.5 15q59 0 59 -57t-59 -57zM565 1647q-27 0 -43 15t-16 42t16 42t43 15q28 0 44 -15t16 -42t-16 -42t-44 -15zM799 0l-103 393h-495l-103 -393h-69l383 1434h73l383 -1434h-69zM217 453h463l-152 583q-14 53 -40 159
t-39 153q-13 -48 -39.5 -154t-40.5 -158z" />
    <glyph glyph-name="Aring" unicode="&#xc5;" horiz-adv-x="897" 
d="M446 1587q-57 0 -92 35.5t-35 93.5q0 55 35 89t92 34t93 -34t36 -89q0 -58 -36 -93.5t-93 -35.5zM446 1792q-35 0 -56 -22t-21 -56q0 -37 21 -58.5t56 -21.5t56.5 21.5t21.5 58.5q0 34 -21.5 56t-56.5 22zM799 0l-103 393h-495l-103 -393h-69l383 1434h73l383 -1434h-69z
M217 453h463l-152 583q-14 53 -40 159t-39 153q-13 -48 -39.5 -154t-40.5 -158z" />
    <glyph glyph-name="AE" unicode="&#xc6;" horiz-adv-x="1353" 
d="M750 61h516v-61h-582v406h-430l-182 -406h-72l651 1434h609v-62h-510v-612h471v-62h-471v-637zM283 465h401v893l-135 -301z" />
    <glyph glyph-name="Ccedilla" unicode="&#xc7;" horiz-adv-x="960" 
d="M879 367q-12 -182 -99.5 -280.5t-244.5 -109.5l-29 -92q18 6 45 6q62 0 101.5 -38.5t39.5 -98.5q0 -68 -47 -106.5t-123 -38.5q-69 0 -117.5 42t-50.5 99h56q6 -41 36.5 -65.5t77.5 -24.5q50 0 80.5 25t30.5 69q0 41 -26 66.5t-66 25.5q-46 3 -76 -14l-21 23l39 120
q-162 3 -257 112t-95 310v639q0 205 97 313.5t264 108.5q171 0 267 -99t109 -292h-65q-27 330 -311 330q-138 0 -216.5 -91.5t-78.5 -269.5v-639q0 -178 79 -269t218 -91q292 0 319 330h64z" />
    <glyph glyph-name="Egrave" unicode="&#xc8;" horiz-adv-x="901" 
d="M559 1579h-63l-197 217h82zM238 61h575v-61h-641v1434h635v-62h-569v-612h526v-62h-526v-637z" />
    <glyph glyph-name="Eacute" unicode="&#xc9;" horiz-adv-x="901" 
d="M659 1796l-196 -217h-64l179 217h81zM238 61h575v-61h-641v1434h635v-62h-569v-612h526v-62h-526v-637z" />
    <glyph glyph-name="Ecircumflex" unicode="&#xca;" horiz-adv-x="901" 
d="M496 1751l-134 -172h-61l158 217h73l158 -217h-59zM238 61h575v-61h-641v1434h635v-62h-569v-612h526v-62h-526v-637z" />
    <glyph glyph-name="Edieresis" unicode="&#xcb;" horiz-adv-x="901" 
d="M377 1647q-27 0 -42.5 15t-15.5 42t15.5 42t42.5 15q59 0 59 -57t-59 -57zM614 1647q-27 0 -43 15t-16 42t16 42t43 15q28 0 44 -15t16 -42t-16 -42t-44 -15zM238 61h575v-61h-641v1434h635v-62h-569v-612h526v-62h-526v-637z" />
    <glyph glyph-name="Igrave" unicode="&#xcc;" horiz-adv-x="409" 
d="M270 1579h-63l-197 217h82zM172 1434h66v-1434h-66v1434z" />
    <glyph glyph-name="Iacute" unicode="&#xcd;" horiz-adv-x="409" 
d="M129 1579l178 217h82l-196 -217h-64zM172 1434h66v-1434h-66v1434z" />
    <glyph glyph-name="Icircumflex" unicode="&#xce;" horiz-adv-x="409" 
d="M244 1796l157 -217h-59l-135 172l-133 -172h-62l158 217h74zM172 0v1434h66v-1434h-66z" />
    <glyph glyph-name="Idieresis" unicode="&#xcf;" horiz-adv-x="417" 
d="M102 1647q-59 0 -59 57t59 57q27 0 42.5 -15t15.5 -42t-15.5 -42t-42.5 -15zM315 1647q-59 0 -59 57t59 57q27 0 42.5 -15t15.5 -42t-15.5 -42t-42.5 -15zM174 1434h66v-1434h-66v1434z" />
    <glyph glyph-name="Eth" unicode="&#xd0;" horiz-adv-x="1024" 
d="M502 1434q185 0 287 -103.5t102 -298.5v-610q0 -200 -102.5 -311t-286.5 -111h-303v698h-174v62h174v674h303zM825 424v606q0 170 -83 255t-240 85h-238v-610h230v-62h-230v-635h238q155 0 239 92.5t84 268.5z" />
    <glyph glyph-name="Ntilde" unicode="&#xd1;" horiz-adv-x="1083" 
d="M461 1731q-28 0 -45.5 -23.5t-18.5 -67.5h-59q1 66 34.5 106t86.5 40q30 0 55 -15t40 -33t35 -33t40 -15q28 0 46 24t19 68h58q-5 -68 -37 -108t-84 -40q-28 0 -53 15t-40 33.5t-35.5 33.5t-41.5 15zM844 1434h67v-1434h-67l-516 1096q-27 56 -90 202h-2q0 -35 1 -112
t1 -113v-1073h-66v1434h68l512 -1090q14 -29 96 -209h2q-6 183 -6 211v1088z" />
    <glyph glyph-name="Ograve" unicode="&#xd2;" horiz-adv-x="1040" 
d="M584 1579h-64l-196 217h82zM520 -25q-181 0 -284 113t-103 320v616q0 209 103 321.5t284 112.5t284 -112.5t103 -321.5v-616q0 -207 -103 -320t-284 -113zM520 39q152 0 237 94.5t85 274.5v616q0 181 -85 276t-237 95t-235.5 -94.5t-83.5 -276.5v-616q0 -180 84 -274.5
t235 -94.5z" />
    <glyph glyph-name="Oacute" unicode="&#xd3;" horiz-adv-x="1040" 
d="M442 1579l179 217h81l-196 -217h-64zM520 -25q-181 0 -284 113t-103 320v616q0 209 103 321.5t284 112.5t284 -112.5t103 -321.5v-616q0 -207 -103 -320t-284 -113zM520 39q152 0 237 94.5t85 274.5v616q0 181 -85 276t-237 95t-235.5 -94.5t-83.5 -276.5v-616
q0 -180 84 -274.5t235 -94.5z" />
    <glyph glyph-name="Ocircumflex" unicode="&#xd4;" horiz-adv-x="1040" 
d="M520 1751l-133 -172h-61l157 217h74l158 -217h-60zM520 1458q181 0 284 -112.5t103 -321.5v-616q0 -207 -103 -320t-284 -113t-284 113t-103 320v616q0 209 103 321.5t284 112.5zM842 408v616q0 181 -85 276t-237 95t-235.5 -94.5t-83.5 -276.5v-616q0 -180 84 -274.5
t235 -94.5q152 0 237 94.5t85 274.5z" />
    <glyph glyph-name="Otilde" unicode="&#xd5;" horiz-adv-x="1040" 
d="M436 1731q-28 0 -45 -23.5t-18 -67.5h-60q1 66 34.5 106t86.5 40q30 0 55 -15t40 -33t35 -33t40 -15q28 0 46.5 24.5t19.5 67.5h57q-5 -68 -37 -108t-84 -40q-28 0 -53 15t-40 33.5t-35.5 33.5t-41.5 15zM520 -25q-181 0 -284 113t-103 320v616q0 209 103 321.5
t284 112.5t284 -112.5t103 -321.5v-616q0 -207 -103 -320t-284 -113zM520 39q152 0 237 94.5t85 274.5v616q0 181 -85 276t-237 95t-235.5 -94.5t-83.5 -276.5v-616q0 -180 84 -274.5t235 -94.5z" />
    <glyph glyph-name="Odieresis" unicode="&#xd6;" horiz-adv-x="1040" 
d="M401 1647q-27 0 -42 15t-15 42t15 42t42 15q28 0 44 -15t16 -42t-16 -42t-44 -15zM639 1647q-27 0 -43 15t-16 42t16 42t43 15q59 0 59 -57t-59 -57zM520 -25q-181 0 -284 113t-103 320v616q0 209 103 321.5t284 112.5t284 -112.5t103 -321.5v-616q0 -207 -103 -320
t-284 -113zM520 39q152 0 237 94.5t85 274.5v616q0 181 -85 276t-237 95t-235.5 -94.5t-83.5 -276.5v-616q0 -180 84 -274.5t235 -94.5z" />
    <glyph glyph-name="multiply" unicode="&#xd7;" horiz-adv-x="841" 
d="M139 303l-41 41l283 283l-283 282l41 41l283 -282l283 282l40 -41l-282 -282l282 -283l-40 -41l-283 283z" />
    <glyph glyph-name="Oslash" unicode="&#xd8;" horiz-adv-x="1036" 
d="M762 1380q141 -110 141 -356v-614q0 -208 -102 -320.5t-283 -112.5q-99 0 -172 33l-33 -110h-63l43 141q-160 110 -160 369v614q0 208 102.5 320t282.5 112q107 0 191 -41l34 117h64zM201 410q0 -215 112 -304l375 1246q-71 41 -170 41q-152 0 -234.5 -93.5t-82.5 -275.5
v-614zM838 410v614q0 192 -97 289l-374 -1241q67 -31 151 -31q152 0 236 93.5t84 275.5z" />
    <glyph glyph-name="Ugrave" unicode="&#xd9;" horiz-adv-x="1015" 
d="M571 1579h-63l-197 217h82zM508 -20q-167 0 -264 106.5t-97 304.5v1043h66v-1043q0 -170 78.5 -259t216.5 -89q137 0 216 89.5t79 258.5v1043h65v-1043q0 -197 -97 -304t-263 -107z" />
    <glyph glyph-name="Uacute" unicode="&#xda;" horiz-adv-x="1015" 
d="M430 1579l178 217h82l-196 -217h-64zM508 -20q-167 0 -264 106.5t-97 304.5v1043h66v-1043q0 -170 78.5 -259t216.5 -89q137 0 216 89.5t79 258.5v1043h65v-1043q0 -197 -97 -304t-263 -107z" />
    <glyph glyph-name="Ucircumflex" unicode="&#xdb;" horiz-adv-x="1015" 
d="M508 1751l-133 -172h-62l158 217h74l157 -217h-59zM803 1434h65v-1043q0 -197 -97 -304t-263 -107q-167 0 -264 106.5t-97 304.5v1043h66v-1043q0 -170 78.5 -259t216.5 -89q137 0 216 89.5t79 258.5v1043z" />
    <glyph glyph-name="Udieresis" unicode="&#xdc;" horiz-adv-x="1015" 
d="M389 1647q-27 0 -42 15t-15 42t15 42t42 15q28 0 44 -15t16 -42t-16 -42t-44 -15zM627 1647q-27 0 -43.5 15t-16.5 42t16.5 42t43.5 15q59 0 59 -57t-59 -57zM508 -20q-167 0 -264 106.5t-97 304.5v1043h66v-1043q0 -170 78.5 -259t216.5 -89q137 0 216 89.5t79 258.5
v1043h65v-1043q0 -197 -97 -304t-263 -107z" />
    <glyph glyph-name="Yacute" unicode="&#xdd;" horiz-adv-x="831" 
d="M336 1579l178 217h82l-197 -217h-63zM383 0v535l-365 899h70l250 -623q56 -137 78 -195q13 33 38.5 97.5t37.5 97.5l249 623h70l-362 -899v-535h-66z" />
    <glyph glyph-name="Thorn" unicode="&#xde;" horiz-adv-x="921" 
d="M469 1169q190 0 292 -109t103 -317q0 -214 -106.5 -326t-286.5 -112h-233v-301h-66v1430h66v-265h231zM471 367q154 0 240 93t86 283q3 363 -328 363h-231v-739h233z" />
    <glyph glyph-name="germandbls" unicode="&#xdf;" horiz-adv-x="901" 
d="M563 745q256 -58 256 -356q0 -186 -99.5 -287.5t-275.5 -101.5h-141v63h141q150 0 230 83t80 243q0 146 -80 235t-240 89h-131v61h133q128 0 193 84t65 223q0 152 -64.5 233t-185.5 81q-114 0 -172.5 -81.5t-58.5 -238.5v-1075h-66v1075q0 180 78 280.5t219 100.5
q149 0 232.5 -100t83.5 -275q0 -280 -197 -336z" />
    <glyph glyph-name="agrave" unicode="&#xe0;" horiz-adv-x="892" 
d="M530 1237h-61l-170 217h76zM446 1090q141 0 219 -86t78 -240v-764h-57l-4 129q-35 -72 -106 -112t-175 -40q-137 0 -219 86.5t-82 237.5q0 149 92.5 230t262.5 81h227v152q0 128 -61.5 197t-176.5 69q-108 0 -176 -62t-71 -157h-64q8 123 92 201t221 78zM410 39
q133 0 202.5 73t69.5 205v236h-227q-142 0 -216.5 -65.5t-74.5 -186.5q0 -123 66 -192.5t180 -69.5z" />
    <glyph glyph-name="aacute" unicode="&#xe1;" horiz-adv-x="892" 
d="M590 1454l-170 -217h-62l156 217h76zM446 1090q141 0 219 -86t78 -240v-764h-57l-4 129q-35 -72 -106 -112t-175 -40q-137 0 -219 86.5t-82 237.5q0 149 92.5 230t262.5 81h227v152q0 128 -61.5 197t-176.5 69q-108 0 -176 -62t-71 -157h-64q8 123 92 201t221 78zM410 39
q133 0 202.5 73t69.5 205v236h-227q-142 0 -216.5 -65.5t-74.5 -186.5q0 -123 66 -192.5t180 -69.5z" />
    <glyph glyph-name="acircumflex" unicode="&#xe2;" horiz-adv-x="892" 
d="M449 1407l-134 -172h-61l158 217h73l158 -217h-59zM446 1090q141 0 219 -86t78 -240v-764h-57l-4 129q-35 -72 -106 -112t-175 -40q-137 0 -219 86.5t-82 237.5q0 149 92.5 230t262.5 81h227v152q0 128 -61.5 197t-176.5 69q-108 0 -176 -62t-71 -157h-64q8 123 92 201
t221 78zM410 39q133 0 202.5 73t69.5 205v236h-227q-142 0 -216.5 -65.5t-74.5 -186.5q0 -123 66 -192.5t180 -69.5z" />
    <glyph glyph-name="atilde" unicode="&#xe3;" horiz-adv-x="892" 
d="M365 1368q-28 0 -45.5 -23.5t-18.5 -66.5h-59q1 66 34 105.5t86 39.5q30 0 55 -15t40 -33t35 -33t40 -15q28 0 46.5 24.5t19.5 67.5h57q-5 -68 -36.5 -107.5t-83.5 -39.5q-28 0 -53 15t-40 33t-35.5 33t-41.5 15zM446 1090q141 0 219 -86t78 -240v-764h-57l-4 129
q-35 -72 -106 -112t-175 -40q-137 0 -219 86.5t-82 237.5q0 149 92.5 230t262.5 81h227v152q0 128 -61.5 197t-176.5 69q-108 0 -176 -62t-71 -157h-64q8 123 92 201t221 78zM410 39q133 0 202.5 73t69.5 205v236h-227q-142 0 -216.5 -65.5t-74.5 -186.5q0 -123 66 -192.5
t180 -69.5z" />
    <glyph glyph-name="adieresis" unicode="&#xe4;" horiz-adv-x="892" 
d="M342 1280q-28 0 -43.5 15.5t-15.5 41.5q0 28 15.5 44t43.5 16q26 0 41.5 -16t15.5 -44q0 -26 -15.5 -41.5t-41.5 -15.5zM557 1280q-28 0 -43.5 15.5t-15.5 41.5q0 28 15.5 44t43.5 16q26 0 41.5 -16t15.5 -44q0 -26 -15.5 -41.5t-41.5 -15.5zM446 1090q141 0 219 -86
t78 -240v-764h-57l-4 129q-35 -72 -106 -112t-175 -40q-137 0 -219 86.5t-82 237.5q0 149 92.5 230t262.5 81h227v152q0 128 -61.5 197t-176.5 69q-108 0 -176 -62t-71 -157h-64q8 123 92 201t221 78zM410 39q133 0 202.5 73t69.5 205v236h-227q-142 0 -216.5 -65.5
t-74.5 -186.5q0 -123 66 -192.5t180 -69.5z" />
    <glyph glyph-name="aring" unicode="&#xe5;" horiz-adv-x="892" 
d="M449 1227q-57 0 -92 35.5t-35 93.5q0 55 35 89t92 34t93 -34t36 -89q0 -58 -36 -93.5t-93 -35.5zM449 1432q-35 0 -56.5 -22t-21.5 -56q0 -37 21.5 -58.5t56.5 -21.5t56 21.5t21 58.5q0 34 -21 56t-56 22zM446 1090q141 0 219 -86t78 -240v-764h-57l-4 129
q-35 -72 -106 -112t-175 -40q-137 0 -219 86.5t-82 237.5q0 149 92.5 230t262.5 81h227v152q0 128 -61.5 197t-176.5 69q-108 0 -176 -62t-71 -157h-64q8 123 92 201t221 78zM410 39q133 0 202.5 73t69.5 205v236h-227q-142 0 -216.5 -65.5t-74.5 -186.5q0 -123 66 -192.5
t180 -69.5z" />
    <glyph glyph-name="ae" unicode="&#xe6;" horiz-adv-x="1406" 
d="M1235 324h63q0 -157 -86 -250.5t-233 -93.5q-102 0 -176.5 48t-110.5 134q-30 -86 -103.5 -134t-180.5 -48q-142 0 -225 83t-83 226q0 145 90.5 221t264.5 76h204v186q0 121 -59 188.5t-164 67.5q-108 0 -171.5 -59.5t-65.5 -155.5h-64q6 125 86.5 201t216.5 76
q93 0 159 -47.5t97 -133.5q39 86 112 133.5t173 47.5q145 0 229 -94t84 -253v-217h-569v-200q0 -132 68 -208.5t188 -76.5t188 76t68 207zM723 743v-159h508v159q0 132 -67 208.5t-185 76.5q-120 0 -188 -76.5t-68 -208.5zM659 301v225h-206q-289 0 -289 -237
q0 -119 67.5 -184.5t188.5 -65.5q114 0 176.5 70t62.5 192z" />
    <glyph glyph-name="ccedilla" unicode="&#xe7;" horiz-adv-x="862" 
d="M764 340q-1 -166 -84.5 -261.5t-228.5 -98.5l-31 -95q18 6 45 6q62 0 101.5 -38.5t39.5 -98.5q0 -68 -47 -106.5t-123 -38.5q-69 0 -117.5 42t-50.5 99h56q6 -41 36.5 -65.5t77.5 -24.5q50 0 80.5 25t30.5 69q0 41 -26 66.5t-66 25.5q-46 3 -76 -14l-21 23l41 127
q-130 12 -205 104t-75 240v417q0 159 84.5 253t228.5 94q150 0 236 -95.5t88 -261.5h-64q-2 140 -69.5 217.5t-190.5 77.5q-117 0 -183.5 -76.5t-66.5 -208.5v-417q0 -132 68 -208.5t188 -76.5q122 0 190.5 78.5t69.5 220.5h64z" />
    <glyph glyph-name="egrave" unicode="&#xe8;" horiz-adv-x="888" 
d="M520 1235h-61l-170 217h76zM717 317h63q-15 -158 -101 -247.5t-239 -89.5q-147 0 -233 93.5t-86 252.5v417q0 159 86 253t233 94q149 0 235.5 -94t86.5 -253v-241h-578v-176q0 -132 68 -208.5t188 -76.5q125 0 194 72t83 204zM440 1028q-120 0 -188 -76.5t-68 -208.5
v-184h516v184q0 132 -69.5 208.5t-190.5 76.5z" />
    <glyph glyph-name="eacute" unicode="&#xe9;" horiz-adv-x="888" 
d="M580 1452l-170 -217h-62l156 217h76zM717 317h63q-15 -158 -101 -247.5t-239 -89.5q-147 0 -233 93.5t-86 252.5v417q0 159 86 253t233 94q149 0 235.5 -94t86.5 -253v-241h-578v-176q0 -132 68 -208.5t188 -76.5q125 0 194 72t83 204zM440 1028q-120 0 -188 -76.5
t-68 -208.5v-184h516v184q0 132 -69.5 208.5t-190.5 76.5z" />
    <glyph glyph-name="ecircumflex" unicode="&#xea;" horiz-adv-x="888" 
d="M438 1405l-133 -172h-61l157 217h74l158 -217h-60zM717 317h63q-15 -158 -101 -247.5t-239 -89.5q-147 0 -233 93.5t-86 252.5v417q0 159 86 253t233 94q149 0 235.5 -94t86.5 -253v-241h-578v-176q0 -132 68 -208.5t188 -76.5q125 0 194 72t83 204zM440 1028
q-120 0 -188 -76.5t-68 -208.5v-184h516v184q0 132 -69.5 208.5t-190.5 76.5z" />
    <glyph glyph-name="edieresis" unicode="&#xeb;" horiz-adv-x="888" 
d="M332 1278q-28 0 -44 15.5t-16 41.5q0 28 16 44t44 16q26 0 41.5 -16t15.5 -44q0 -26 -15.5 -41.5t-41.5 -15.5zM547 1278q-28 0 -44 15.5t-16 41.5q0 28 16 44t44 16q26 0 41.5 -16t15.5 -44q0 -26 -15.5 -41.5t-41.5 -15.5zM717 317h63q-15 -158 -101 -247.5t-239 -89.5
q-147 0 -233 93.5t-86 252.5v417q0 159 86 253t233 94q149 0 235.5 -94t86.5 -253v-241h-578v-176q0 -132 68 -208.5t188 -76.5q125 0 194 72t83 204zM440 1028q-120 0 -188 -76.5t-68 -208.5v-184h516v184q0 132 -69.5 208.5t-190.5 76.5z" />
    <glyph glyph-name="igrave" unicode="&#xec;" horiz-adv-x="358" 
d="M31 1454h75l156 -217h-61zM147 0v1067h64v-1067h-64z" />
    <glyph glyph-name="iacute" unicode="&#xed;" horiz-adv-x="358" 
d="M322 1454l-170 -217h-62l156 217h76zM147 0v1067h64v-1067h-64z" />
    <glyph glyph-name="icircumflex" unicode="&#xee;" horiz-adv-x="452" 
d="M262 1452l150 -217h-60l-125 168l-127 -168h-59l149 217h72zM195 0v1067h61v-1067h-61z" />
    <glyph glyph-name="idieresis" unicode="&#xef;" horiz-adv-x="409" 
d="M98 1282q-27 0 -42 15t-15 42q0 26 15.5 42t41.5 16q27 0 42.5 -15.5t15.5 -42.5q0 -57 -58 -57zM311 1282q-59 0 -59 57q0 27 16 42.5t43 15.5q26 0 42 -16t16 -42q0 -27 -15.5 -42t-42.5 -15zM172 0v1067h64v-1067h-64z" />
    <glyph glyph-name="eth" unicode="&#xf0;" horiz-adv-x="909" 
d="M627 1307q141 -167 141 -441v-538q0 -160 -88.5 -254t-243.5 -94q-146 0 -230.5 94t-84.5 254v364q0 158 84 253t225 95q92 0 164 -40.5t113 -110.5q-9 241 -136 387l-198 -117l-23 45l187 109q-89 80 -228 123l21 57q160 -45 262 -147l143 81l21 -45zM705 328v364
q0 132 -71 209.5t-194 77.5q-119 0 -187.5 -77t-68.5 -210v-364q0 -134 68 -210.5t188 -76.5q124 0 194.5 76.5t70.5 210.5z" />
    <glyph glyph-name="ntilde" unicode="&#xf1;" horiz-adv-x="913" 
d="M367 1366q-28 0 -45.5 -23.5t-18.5 -66.5h-59q1 66 34.5 105.5t86.5 39.5q30 0 55 -15t40 -33t35 -33t40 -15q28 0 46 24t19 68h57q-5 -68 -36.5 -107.5t-83.5 -39.5q-28 0 -53 15t-40 33t-35.5 33t-41.5 15zM508 1090q129 0 199.5 -100t70.5 -296v-694h-63v688
q0 342 -219 342q-124 0 -204.5 -104.5t-80.5 -272.5v-653h-64v1067h58l6 -143v-37q43 95 121 149t176 54z" />
    <glyph glyph-name="ograve" unicode="&#xf2;" horiz-adv-x="897" 
d="M299 1454h76l155 -217h-61zM449 -23q-152 0 -240 95t-88 256v413q0 160 88 254.5t240 94.5q150 0 237.5 -94.5t87.5 -254.5v-413q0 -160 -87.5 -255.5t-237.5 -95.5zM449 39q123 0 192.5 77.5t69.5 211.5v413q0 134 -69.5 210.5t-192.5 76.5t-194 -77t-71 -210v-413
q0 -134 71 -211.5t194 -77.5z" />
    <glyph glyph-name="oacute" unicode="&#xf3;" horiz-adv-x="897" 
d="M590 1454l-170 -217h-62l156 217h76zM449 -23q-152 0 -240 95t-88 256v413q0 160 88 254.5t240 94.5q150 0 237.5 -94.5t87.5 -254.5v-413q0 -160 -87.5 -255.5t-237.5 -95.5zM449 39q123 0 192.5 77.5t69.5 211.5v413q0 134 -69.5 210.5t-192.5 76.5t-194 -77t-71 -210
v-413q0 -134 71 -211.5t194 -77.5z" />
    <glyph glyph-name="ocircumflex" unicode="&#xf4;" horiz-adv-x="897" 
d="M449 1407l-134 -172h-61l158 217h73l158 -217h-59zM449 1090q150 0 237.5 -94.5t87.5 -254.5v-413q0 -160 -87.5 -255.5t-237.5 -95.5q-152 0 -240 95t-88 256v413q0 160 88 254.5t240 94.5zM711 328v413q0 134 -69.5 210.5t-192.5 76.5t-194 -77t-71 -210v-413
q0 -134 71 -211.5t194 -77.5t192.5 77.5t69.5 211.5z" />
    <glyph glyph-name="otilde" unicode="&#xf5;" horiz-adv-x="897" 
d="M365 1368q-28 0 -45.5 -23.5t-18.5 -66.5h-59q1 66 34 105.5t86 39.5q30 0 55 -15t40 -33t35 -33t40 -15q28 0 46.5 24.5t19.5 67.5h57q-5 -68 -36.5 -107.5t-83.5 -39.5q-28 0 -53 15t-40 33t-35.5 33t-41.5 15zM449 -23q-152 0 -240 95t-88 256v413q0 160 88 254.5
t240 94.5q150 0 237.5 -94.5t87.5 -254.5v-413q0 -160 -87.5 -255.5t-237.5 -95.5zM449 39q123 0 192.5 77.5t69.5 211.5v413q0 134 -69.5 210.5t-192.5 76.5t-194 -77t-71 -210v-413q0 -134 71 -211.5t194 -77.5z" />
    <glyph glyph-name="odieresis" unicode="&#xf6;" horiz-adv-x="897" 
d="M342 1280q-28 0 -43.5 15.5t-15.5 41.5q0 28 15.5 44t43.5 16q26 0 41.5 -16t15.5 -44q0 -26 -15.5 -41.5t-41.5 -15.5zM557 1280q-28 0 -43.5 15.5t-15.5 41.5q0 28 15.5 44t43.5 16q26 0 41.5 -16t15.5 -44q0 -26 -15.5 -41.5t-41.5 -15.5zM449 -23q-152 0 -240 95
t-88 256v413q0 160 88 254.5t240 94.5q150 0 237.5 -94.5t87.5 -254.5v-413q0 -160 -87.5 -255.5t-237.5 -95.5zM449 39q123 0 192.5 77.5t69.5 211.5v413q0 134 -69.5 210.5t-192.5 76.5t-194 -77t-71 -210v-413q0 -134 71 -211.5t194 -77.5z" />
    <glyph glyph-name="divide" unicode="&#xf7;" horiz-adv-x="866" 
d="M434 834q-26 0 -44.5 18.5t-18.5 44.5q0 27 18.5 45.5t44.5 18.5q27 0 45.5 -18.5t18.5 -45.5q0 -26 -19 -44.5t-45 -18.5zM106 602v60h654v-60h-654zM434 297q-26 0 -44.5 18.5t-18.5 44.5q0 28 18.5 46t44.5 18q27 0 45.5 -18.5t18.5 -45.5q0 -26 -19 -44.5t-45 -18.5z
" />
    <glyph glyph-name="oslash" unicode="&#xf8;" horiz-adv-x="897" 
d="M659 1020q115 -92 115 -279v-413q0 -160 -87.5 -254t-237.5 -94q-98 0 -166 36l-50 -131h-61l61 164q-112 95 -112 279v413q0 160 88 254.5t240 94.5q93 0 163 -37l52 137h59zM184 328q0 -136 74 -213l332 878q-59 35 -141 35q-123 0 -194 -77t-71 -210v-413zM711 328
v413q0 139 -76 215l-330 -878q58 -37 144 -37q123 0 192.5 76.5t69.5 210.5z" />
    <glyph glyph-name="ugrave" unicode="&#xf9;" horiz-adv-x="913" 
d="M522 1235h-61l-170 217h76zM702 1067h64v-1067h-57l-7 143v37q-43 -95 -120.5 -149t-175.5 -54q-129 0 -200 100t-71 296v694h64v-688q0 -342 219 -342q124 0 204 104t80 273v653z" />
    <glyph glyph-name="uacute" unicode="&#xfa;" horiz-adv-x="913" 
d="M582 1452l-170 -217h-62l156 217h76zM702 1067h64v-1067h-57l-7 143v37q-43 -95 -120.5 -149t-175.5 -54q-129 0 -200 100t-71 296v694h64v-688q0 -342 219 -342q124 0 204 104t80 273v653z" />
    <glyph glyph-name="ucircumflex" unicode="&#xfb;" horiz-adv-x="913" 
d="M440 1405l-133 -172h-61l157 217h74l158 -217h-60zM702 1067h64v-1067h-57l-7 143v37q-43 -95 -120.5 -149t-175.5 -54q-129 0 -200 100t-71 296v694h64v-688q0 -342 219 -342q124 0 204 104t80 273v653z" />
    <glyph glyph-name="udieresis" unicode="&#xfc;" horiz-adv-x="913" 
d="M334 1278q-28 0 -44 15.5t-16 41.5q0 28 16 44t44 16q26 0 41.5 -16t15.5 -44q0 -26 -15.5 -41.5t-41.5 -15.5zM549 1278q-28 0 -44 15.5t-16 41.5q0 28 16 44t44 16q26 0 41.5 -16t15.5 -44q0 -26 -15.5 -41.5t-41.5 -15.5zM702 1067h64v-1067h-57l-7 143v37
q-43 -95 -120.5 -149t-175.5 -54q-129 0 -200 100t-71 296v694h64v-688q0 -342 219 -342q124 0 204 104t80 273v653z" />
    <glyph glyph-name="yacute" unicode="&#xfd;" horiz-adv-x="765" 
d="M522 1454l-170 -217h-61l155 217h76zM666 1067h65l-379 -1231q-31 -99 -79.5 -155t-125.5 -56h-57v60h51q54 0 89.5 42.5t62.5 122.5l78 254l-336 963h67l299 -864z" />
    <glyph glyph-name="thorn" unicode="&#xfe;" horiz-adv-x="909" 
d="M477 1087q137 0 224 -96t87 -254v-397q0 -157 -87 -253.5t-222 -96.5q-83 0 -156.5 41.5t-111.5 113.5v-514h-64v1846h64v-535q41 66 112 105.5t154 39.5zM725 340v397q0 135 -71 213t-187 78q-110 0 -183 -79.5t-73 -196.5v-426q0 -118 73 -197.5t183 -79.5
q116 0 187 78t71 213z" />
    <glyph glyph-name="ydieresis" unicode="&#xff;" horiz-adv-x="765" 
d="M274 1280q-28 0 -43.5 15.5t-15.5 41.5q0 28 15.5 44t43.5 16q26 0 42 -16t16 -44q0 -26 -16 -41.5t-42 -15.5zM489 1280q-28 0 -43.5 15.5t-15.5 41.5q0 28 15.5 44t43.5 16q26 0 42 -16t16 -44q0 -26 -16 -41.5t-42 -15.5zM666 1067h65l-379 -1231q-31 -99 -79.5 -155
t-125.5 -56h-57v60h51q54 0 89.5 42.5t62.5 122.5l78 254l-336 963h67l299 -864z" />
    <glyph glyph-name="Amacron" unicode="&#x100;" horiz-adv-x="897" 
d="M618 1710v-59h-342v59h342zM799 0l-103 393h-495l-103 -393h-69l383 1434h73l383 -1434h-69zM217 453h463l-152 583q-14 53 -40 159t-39 153q-13 -48 -39.5 -154t-40.5 -158z" />
    <glyph glyph-name="amacron" unicode="&#x101;" horiz-adv-x="892" 
d="M621 1350v-56h-342v56h342zM446 1090q141 0 219 -86t78 -240v-764h-57l-4 129q-35 -72 -106 -112t-175 -40q-137 0 -219 86.5t-82 237.5q0 149 92.5 230t262.5 81h227v152q0 128 -61.5 197t-176.5 69q-108 0 -176 -62t-71 -157h-64q8 123 92 201t221 78zM410 39
q133 0 202.5 73t69.5 205v236h-227q-142 0 -216.5 -65.5t-74.5 -186.5q0 -123 66 -192.5t180 -69.5z" />
    <glyph glyph-name="Abreve" unicode="&#x102;" horiz-adv-x="897" 
d="M446 1575q-93 0 -150 59t-58 158h59q2 -78 40.5 -120t108.5 -42q71 0 110 42t40 120h59q-1 -100 -58 -158.5t-151 -58.5zM799 0l-103 393h-495l-103 -393h-69l383 1434h73l383 -1434h-69zM217 453h463l-152 583q-14 53 -40 159t-39 153q-13 -48 -39.5 -154t-40.5 -158z
" />
    <glyph glyph-name="abreve" unicode="&#x103;" horiz-adv-x="892" 
d="M449 1237q-93 0 -150.5 59t-58.5 158h59q1 -78 40 -120t110 -42q70 0 108.5 42t40.5 120h59q-1 -100 -57.5 -158.5t-150.5 -58.5zM446 1090q141 0 219 -86t78 -240v-764h-57l-4 129q-35 -72 -106 -112t-175 -40q-137 0 -219 86.5t-82 237.5q0 149 92.5 230t262.5 81h227
v152q0 128 -61.5 197t-176.5 69q-108 0 -176 -62t-71 -157h-64q8 123 92 201t221 78zM410 39q133 0 202.5 73t69.5 205v236h-227q-142 0 -216.5 -65.5t-74.5 -186.5q0 -123 66 -192.5t180 -69.5z" />
    <glyph glyph-name="Aogonek" unicode="&#x104;" horiz-adv-x="897" 
d="M705 -236q0 -46 30 -71t76 -25q21 0 53 4v-57q-27 -6 -63 -6q-74 0 -116 42.5t-42 106.5t42 127.5t114 114.5l-103 393h-495l-103 -393h-69l383 1434h73l383 -1434h-6q-157 -131 -157 -236zM217 453h463l-152 583q-14 53 -40 159t-39 153q-13 -48 -39.5 -154t-40.5 -158z
" />
    <glyph glyph-name="aogonek" unicode="&#x105;" horiz-adv-x="911" 
d="M698 -391q-75 0 -117 44t-42 107q0 61 43 125.5t114 114.5l-2 129q-74 -152 -264 -152q-149 0 -239.5 86.5t-90.5 235.5q0 151 94 232t267 81h231v152q0 128 -62 197t-179 69q-111 0 -181 -62t-73 -157h-64q8 123 94 201t226 78q142 0 221.5 -86t79.5 -240v-764
q-154 -126 -154 -229q0 -49 30.5 -76t80.5 -27q23 0 51 4v-57q-24 -6 -64 -6zM438 39q124 0 189 73t65 205v236h-231q-145 0 -221 -66t-76 -188t74 -191t200 -69z" />
    <glyph glyph-name="Cacute" unicode="&#x106;" horiz-adv-x="960" 
d="M410 1579l178 217h82l-197 -217h-63zM496 -25q-167 0 -265 109t-98 313v639q0 205 97 313.5t264 108.5q171 0 267 -99t109 -292h-65q-27 330 -311 330q-138 0 -216.5 -91.5t-78.5 -269.5v-639q0 -178 79 -269t218 -91q292 0 319 330h64q-12 -192 -110.5 -292t-272.5 -100
z" />
    <glyph glyph-name="cacute" unicode="&#x107;" horiz-adv-x="862" 
d="M573 1454l-170 -217h-61l156 217h75zM440 -20q-147 0 -233 93.5t-86 252.5v417q0 159 84.5 253t228.5 94q150 0 236 -95.5t88 -261.5h-64q-2 140 -69.5 217.5t-190.5 77.5q-117 0 -183.5 -76.5t-66.5 -208.5v-417q0 -132 68 -208.5t188 -76.5q122 0 190.5 78.5
t69.5 220.5h64q-1 -168 -87.5 -264t-236.5 -96z" />
    <glyph glyph-name="Cdotaccent" unicode="&#x10a;" horiz-adv-x="960" 
d="M487 1653q-29 0 -47 17t-18 46q0 30 18 48t47 18q30 0 48 -18t18 -48q0 -29 -18 -46t-48 -17zM496 -25q-167 0 -265 109t-98 313v639q0 205 97 313.5t264 108.5q171 0 267 -99t109 -292h-65q-27 330 -311 330q-138 0 -216.5 -91.5t-78.5 -269.5v-639q0 -178 79 -269
t218 -91q292 0 319 330h64q-12 -192 -110.5 -292t-272.5 -100z" />
    <glyph glyph-name="cdotaccent" unicode="&#x10b;" horiz-adv-x="862" 
d="M432 1274q-29 0 -47 18t-18 47t18 46.5t47 17.5t46.5 -17.5t17.5 -46.5t-17.5 -47t-46.5 -18zM440 -20q-147 0 -233 93.5t-86 252.5v417q0 159 84.5 253t228.5 94q150 0 236 -95.5t88 -261.5h-64q-2 140 -69.5 217.5t-190.5 77.5q-117 0 -183.5 -76.5t-66.5 -208.5v-417
q0 -132 68 -208.5t188 -76.5q122 0 190.5 78.5t69.5 220.5h64q-1 -168 -87.5 -264t-236.5 -96z" />
    <glyph glyph-name="Ccaron" unicode="&#x10c;" horiz-adv-x="960" 
d="M524 1579h-73l-158 217h61l133 -172l136 172h59zM815 367h64q-12 -192 -110.5 -292t-272.5 -100q-167 0 -265 109t-98 313v639q0 205 97 313.5t264 108.5q171 0 267 -99t109 -292h-65q-27 330 -311 330q-138 0 -216.5 -91.5t-78.5 -269.5v-639q0 -178 79 -269t218 -91
q292 0 319 330z" />
    <glyph glyph-name="ccaron" unicode="&#x10d;" horiz-adv-x="862" 
d="M469 1237h-74l-157 217h61l133 -172l135 172h60zM700 340h64q-1 -168 -87.5 -264t-236.5 -96q-147 0 -233 93.5t-86 252.5v417q0 159 84.5 253t228.5 94q150 0 236 -95.5t88 -261.5h-64q-2 140 -69.5 217.5t-190.5 77.5q-117 0 -183.5 -76.5t-66.5 -208.5v-417
q0 -132 68 -208.5t188 -76.5q122 0 190.5 78.5t69.5 220.5z" />
    <glyph glyph-name="Dcaron" unicode="&#x10e;" horiz-adv-x="997" 
d="M510 1579h-74l-157 217h61l133 -172l135 172h60zM479 1434q184 0 284.5 -103.5t100.5 -298.5v-610q0 -200 -101.5 -311t-283.5 -111h-307v1434h307zM799 424v606q0 170 -82 255t-238 85h-241v-1307h241q153 0 236.5 92.5t83.5 268.5z" />
    <glyph glyph-name="dcaron" unicode="&#x10f;" horiz-adv-x="892" 
d="M893 1563h76l-47 -320h-48zM702 932v549h62v-1481h-55l-7 123q-41 -65 -111.5 -105.5t-154.5 -40.5q-138 0 -226.5 97.5t-88.5 255.5v409q0 157 87 254t226 97q84 0 157 -42.5t111 -115.5zM446 37q109 0 182.5 77.5t73.5 200.5v439q0 118 -73.5 197t-182.5 79
q-120 0 -191 -78t-71 -213v-409q0 -135 72.5 -214t189.5 -79z" />
    <glyph glyph-name="Dcroat" unicode="&#x110;" horiz-adv-x="1024" 
d="M502 1434q185 0 287 -103.5t102 -298.5v-610q0 -200 -102.5 -311t-286.5 -111h-303v698h-174v62h174v674h303zM825 424v606q0 170 -83 255t-240 85h-238v-610h230v-62h-230v-635h238q155 0 239 92.5t84 268.5z" />
    <glyph glyph-name="dcroat" unicode="&#x111;" horiz-adv-x="940" 
d="M887 1319v-53h-123v-1266h-55l-7 123q-41 -65 -111.5 -105.5t-154.5 -40.5q-137 0 -226 97.5t-89 255.5v409q0 157 88.5 254t224.5 97q84 0 157 -42.5t111 -115.5v334h-223v53h223v162h62v-162h123zM446 37q109 0 182.5 77.5t73.5 200.5v439q0 118 -73.5 197t-182.5 79
q-117 0 -189.5 -78t-72.5 -213v-409q0 -134 73 -213.5t189 -79.5z" />
    <glyph glyph-name="Emacron" unicode="&#x112;" horiz-adv-x="901" 
d="M668 1710v-59h-342v59h342zM238 61h575v-61h-641v1434h635v-62h-569v-612h526v-62h-526v-637z" />
    <glyph glyph-name="emacron" unicode="&#x113;" horiz-adv-x="888" 
d="M610 1348v-56h-342v56h342zM717 317h63q-15 -158 -101 -247.5t-239 -89.5q-147 0 -233 93.5t-86 252.5v417q0 159 86 253t233 94q149 0 235.5 -94t86.5 -253v-241h-578v-176q0 -132 68 -208.5t188 -76.5q125 0 194 72t83 204zM440 1028q-120 0 -188 -76.5t-68 -208.5
v-184h516v184q0 132 -69.5 208.5t-190.5 76.5z" />
    <glyph glyph-name="Edotaccent" unicode="&#x116;" horiz-adv-x="901" 
d="M496 1653q-30 0 -48 17t-18 46q0 30 18 48t48 18t47.5 -18t17.5 -48q0 -29 -18 -46t-47 -17zM238 61h575v-61h-641v1434h635v-62h-569v-612h526v-62h-526v-637z" />
    <glyph glyph-name="edotaccent" unicode="&#x117;" horiz-adv-x="888" 
d="M438 1272q-29 0 -47 18t-18 47t18 46.5t47 17.5t46.5 -17.5t17.5 -46.5t-17.5 -47t-46.5 -18zM717 317h63q-15 -158 -101 -247.5t-239 -89.5q-147 0 -233 93.5t-86 252.5v417q0 159 86 253t233 94q149 0 235.5 -94t86.5 -253v-241h-578v-176q0 -132 68 -208.5t188 -76.5
q125 0 194 72t83 204zM440 1028q-120 0 -188 -76.5t-68 -208.5v-184h516v184q0 132 -69.5 208.5t-190.5 76.5z" />
    <glyph glyph-name="Eogonek" unicode="&#x118;" horiz-adv-x="913" 
d="M772 -334q37 0 53 4v-59q-54 -6 -63 -6q-73 0 -115.5 42.5t-42.5 104.5q0 61 40 126t110 122h-582v1434h635v-62h-569v-612h530v-62h-530v-637h575v-61q-147 -128 -147 -236q0 -48 29.5 -73t76.5 -25z" />
    <glyph glyph-name="eogonek" unicode="&#x119;" horiz-adv-x="884" 
d="M610 -391q-74 0 -114.5 45.5t-40.5 116.5q0 119 112 231q-55 -22 -123 -22q-150 0 -236.5 93.5t-86.5 252.5v417q0 158 86.5 252.5t236.5 94.5q147 0 233.5 -94t86.5 -253v-245h-580v-172q0 -133 69 -209t193 -76q122 0 191.5 74t75.5 202h63q-6 -87 -32 -149t-78 -115
q-81 -85 -115.5 -145.5t-34.5 -126.5q0 -55 29.5 -83t77.5 -28q23 0 51 4v-57q-32 -8 -64 -8zM184 555h518v188q0 131 -69 208t-189 77q-121 0 -190.5 -76.5t-69.5 -208.5v-188z" />
    <glyph glyph-name="Ecaron" unicode="&#x11a;" horiz-adv-x="901" 
d="M532 1579h-73l-158 217h61l134 -172l135 172h59zM238 61h575v-61h-641v1434h635v-62h-569v-612h526v-62h-526v-637z" />
    <glyph glyph-name="ecaron" unicode="&#x11b;" horiz-adv-x="888" 
d="M475 1235h-74l-157 217h61l133 -172l135 172h60zM717 317h63q-15 -158 -101 -247.5t-239 -89.5q-147 0 -233 93.5t-86 252.5v417q0 159 86 253t233 94q149 0 235.5 -94t86.5 -253v-241h-578v-176q0 -132 68 -208.5t188 -76.5q125 0 194 72t83 204zM440 1028
q-120 0 -188 -76.5t-68 -208.5v-184h516v184q0 132 -69.5 208.5t-190.5 76.5z" />
    <glyph glyph-name="Gbreve" unicode="&#x11e;" horiz-adv-x="993" 
d="M492 1575q-93 0 -150.5 59t-58.5 158h59q1 -78 40 -120t110 -42q70 0 108.5 42t40.5 120h59q-1 -100 -57.5 -158.5t-150.5 -58.5zM504 -20q-163 0 -267 107.5t-104 301.5v645q0 204 101 312t264 108q106 0 186.5 -41.5t129.5 -130.5t52 -215h-65q-6 164 -87.5 245
t-215.5 81q-135 0 -217 -90.5t-82 -270.5v-643q0 -167 85 -257.5t220 -90.5q136 0 223.5 89.5t87.5 252.5v299h-317v61h381v-360q0 -190 -106 -296.5t-269 -106.5z" />
    <glyph glyph-name="gbreve" unicode="&#x11f;" horiz-adv-x="911" 
d="M449 1237q-93 0 -150.5 59t-58.5 158h59q1 -78 40 -120t110 -42q70 0 108.5 42t40.5 120h59q-1 -100 -57.5 -158.5t-150.5 -58.5zM707 1067h57v-1133q0 -152 -80.5 -238.5t-220.5 -86.5q-146 0 -232.5 79t-95.5 216h62q11 -112 78.5 -174t187.5 -62q113 0 175 69t62 197
v234q-38 -69 -106 -108.5t-148 -39.5q-141 0 -233 96.5t-92 252.5v366q0 160 91 257.5t230 97.5q84 0 153 -41t107 -115zM453 80q107 0 177 75t70 193v412q0 118 -71.5 194t-175.5 76q-118 0 -193.5 -80t-75.5 -215v-366q0 -131 75.5 -210t193.5 -79z" />
    <glyph glyph-name="Gdotaccent" unicode="&#x120;" horiz-adv-x="993" 
d="M492 1653q-30 0 -48 17t-18 46q0 30 18 48t48 18t47.5 -18t17.5 -48q0 -29 -18 -46t-47 -17zM504 -20q-163 0 -267 107.5t-104 301.5v645q0 204 101 312t264 108q106 0 186.5 -41.5t129.5 -130.5t52 -215h-65q-6 164 -87.5 245t-215.5 81q-135 0 -217 -90.5t-82 -270.5
v-643q0 -167 85 -257.5t220 -90.5q136 0 223.5 89.5t87.5 252.5v299h-317v61h381v-360q0 -190 -106 -296.5t-269 -106.5z" />
    <glyph glyph-name="gdotaccent" unicode="&#x121;" horiz-adv-x="911" 
d="M449 1274q-29 0 -47.5 18t-18.5 47t18.5 46.5t47.5 17.5t46 -17.5t17 -46.5t-17 -47t-46 -18zM707 1067h57v-1133q0 -152 -80.5 -238.5t-220.5 -86.5q-146 0 -232.5 79t-95.5 216h62q11 -112 78.5 -174t187.5 -62q113 0 175 69t62 197v234q-38 -69 -106 -108.5
t-148 -39.5q-141 0 -233 96.5t-92 252.5v366q0 160 91 257.5t230 97.5q84 0 153 -41t107 -115zM453 80q107 0 177 75t70 193v412q0 118 -71.5 194t-175.5 76q-118 0 -193.5 -80t-75.5 -215v-366q0 -131 75.5 -210t193.5 -79z" />
    <glyph glyph-name="Gcommaaccent" unicode="&#x122;" horiz-adv-x="993" 
d="M504 -20q-163 0 -267 107.5t-104 301.5v645q0 204 101 312t264 108q106 0 186.5 -41.5t129.5 -130.5t52 -215h-65q-6 164 -87.5 245t-215.5 81q-135 0 -217 -90.5t-82 -270.5v-643q0 -167 85 -257.5t220 -90.5q136 0 223.5 89.5t87.5 252.5v299h-317v61h381v-360
q0 -190 -106 -296.5t-269 -106.5zM428 -463l35 328h84l-64 -328h-55z" />
    <glyph glyph-name="gcommaaccent" unicode="&#x123;" horiz-adv-x="911" 
d="M502 1247h-86l-35 332h51zM707 1067h57v-1133q0 -152 -80.5 -238.5t-220.5 -86.5q-146 0 -232.5 79t-95.5 216h62q11 -112 78.5 -174t187.5 -62q113 0 175 69t62 197v234q-38 -69 -106 -108.5t-148 -39.5q-141 0 -233 96.5t-92 252.5v366q0 160 91 257.5t230 97.5
q84 0 153 -41t107 -115zM453 80q107 0 177 75t70 193v412q0 118 -71.5 194t-175.5 76q-118 0 -193.5 -80t-75.5 -215v-366q0 -131 75.5 -210t193.5 -79z" />
    <glyph glyph-name="Hbar" unicode="&#x126;" horiz-adv-x="1079" 
d="M1022 1145v-55h-125v-1090h-66v698h-583v-698h-66v1090h-125v55h125v289h66v-289h583v289h66v-289h125zM831 762v328h-583v-328h583z" />
    <glyph glyph-name="hbar" unicode="&#x127;" horiz-adv-x="925" 
d="M520 1090q131 0 202 -103t71 -305v-682h-64v680q0 350 -221 350q-126 0 -205.5 -104t-79.5 -273v-653h-63v1262h-127v55h127v162h63v-162h215v-55h-215v-375q43 95 121 149t176 54z" />
    <glyph glyph-name="Imacron" unicode="&#x12a;" horiz-adv-x="409" 
d="M37 1710h342v-59h-342v59zM172 1434h66v-1434h-66v1434z" />
    <glyph glyph-name="imacron" unicode="&#x12b;" horiz-adv-x="354" 
d="M16 1350h322v-58h-322v58zM145 0v1067h62v-1067h-62z" />
    <glyph glyph-name="Iogonek" unicode="&#x12e;" horiz-adv-x="405" 
d="M233 -332q24 0 52 4v-57q-27 -6 -64 -6q-74 0 -117 42t-43 107q0 58 29 122t80 120v1434h66v-1434q-113 -126 -113 -231q0 -50 30.5 -75.5t79.5 -25.5z" />
    <glyph glyph-name="iogonek" unicode="&#x12f;" horiz-adv-x="380" 
d="M190 1280q-25 0 -40 15t-15 40t15 40.5t40 15.5q24 0 40 -16t16 -40q0 -23 -16.5 -39t-39.5 -16zM217 -332q21 0 53 4v-57q-27 -6 -63 -6q-74 0 -116 42t-42 103q0 119 109 244v1067h63v-1065q-110 -122 -110 -229q0 -49 30 -76t76 -27z" />
    <glyph glyph-name="Idotaccent" unicode="&#x130;" horiz-adv-x="409" 
d="M207 1653q-30 0 -48 17t-18 46q0 30 18 48t48 18q29 0 47 -18t18 -48q0 -29 -18 -46t-47 -17zM172 1434h66v-1434h-66v1434z" />
    <glyph glyph-name="dotlessi" unicode="&#x131;" horiz-adv-x="358" 
d="M147 0v1067h64v-1067h-64z" />
    <glyph glyph-name="Kcommaaccent" unicode="&#x136;" horiz-adv-x="958" 
d="M414 815l516 -815h-76l-483 758l-133 -174v-584h-66v1434h66v-748l69 94l490 654h82zM428 -463l35 328h84l-64 -328h-55z" />
    <glyph glyph-name="kcommaaccent" unicode="&#x137;" horiz-adv-x="829" 
d="M362 621l445 -621h-74l-416 571l-106 -118v-453h-64v1481h64v-942l475 528h82zM367 -463l34 328h84l-63 -328h-55z" />
    <glyph glyph-name="Lacute" unicode="&#x139;" horiz-adv-x="782" 
d="M414 1796l-197 -217h-63l178 217h82zM238 63h530v-63h-596v1434h66v-1371z" />
    <glyph glyph-name="lacute" unicode="&#x13a;" horiz-adv-x="366" 
d="M106 1579l179 217h82l-197 -217h-64zM152 0v1479h63v-1479h-63z" />
    <glyph glyph-name="Lcommaaccent" unicode="&#x13b;" horiz-adv-x="794" 
d="M238 63h530v-63h-596v1434h66v-1371zM328 -463l34 328h84l-63 -328h-55z" />
    <glyph glyph-name="lcommaaccent" unicode="&#x13c;" horiz-adv-x="425" 
d="M156 0v1479h63v-1479h-63zM139 -463l35 328h84l-63 -328h-56z" />
    <glyph glyph-name="Lcaron" unicode="&#x13d;" horiz-adv-x="778" 
d="M238 61h514v-61h-580v1434h66v-1373zM588 1434l-47 -322h-47l18 322h76z" />
    <glyph glyph-name="lcaron" unicode="&#x13e;" horiz-adv-x="342" 
d="M324 1239l18 322h76l-47 -322h-47zM152 0v1479h63v-1479h-63z" />
    <glyph glyph-name="Lslash" unicode="&#x141;" horiz-adv-x="831" 
d="M291 61h514v-61h-580v688l-168 -65v63l168 66v682h66v-656l284 111v-66l-284 -110v-652z" />
    <glyph glyph-name="lslash" unicode="&#x142;" horiz-adv-x="452" 
d="M408 920v-64l-150 -53v-803h-63v780l-150 -53v61l150 54v635h63v-611z" />
    <glyph glyph-name="Nacute" unicode="&#x143;" horiz-adv-x="1083" 
d="M467 1579l178 217h82l-197 -217h-63zM844 1434h67v-1434h-67l-516 1096q-27 56 -90 202h-2q0 -35 1 -112t1 -113v-1073h-66v1434h68l512 -1090q14 -29 96 -209h2q-6 183 -6 211v1088z" />
    <glyph glyph-name="nacute" unicode="&#x144;" horiz-adv-x="913" 
d="M592 1452l-170 -217h-62l156 217h76zM508 1090q129 0 199.5 -100t70.5 -296v-694h-63v688q0 342 -219 342q-124 0 -204.5 -104.5t-80.5 -272.5v-653h-64v1067h58l6 -143v-37q43 95 121 149t176 54z" />
    <glyph glyph-name="Ncommaaccent" unicode="&#x145;" horiz-adv-x="1083" 
d="M844 1434h67v-1434h-67l-516 1096q-27 56 -90 202h-2q0 -35 1 -112t1 -113v-1073h-66v1434h68l512 -1090q14 -29 96 -209h2q-6 183 -6 211v1088zM479 -463l35 328h84l-63 -328h-56z" />
    <glyph glyph-name="ncommaaccent" unicode="&#x146;" horiz-adv-x="913" 
d="M508 1090q129 0 199.5 -100t70.5 -296v-694h-63v688q0 342 -219 342q-124 0 -204.5 -104.5t-80.5 -272.5v-653h-64v1067h58l6 -143v-37q43 95 121 149t176 54zM408 -463l34 328h84l-63 -328h-55z" />
    <glyph glyph-name="Ncaron" unicode="&#x147;" horiz-adv-x="1083" 
d="M582 1579h-74l-158 217h62l133 -172l135 172h59zM844 1434h67v-1434h-67l-516 1096q-27 56 -90 202h-2q0 -35 1 -112t1 -113v-1073h-66v1434h68l512 -1090q14 -29 96 -209h2q-6 183 -6 211v1088z" />
    <glyph glyph-name="ncaron" unicode="&#x148;" horiz-adv-x="913" 
d="M487 1235h-73l-158 217h61l134 -172l135 172h59zM508 1090q129 0 199.5 -100t70.5 -296v-694h-63v688q0 342 -219 342q-124 0 -204.5 -104.5t-80.5 -272.5v-653h-64v1067h58l6 -143v-37q43 95 121 149t176 54z" />
    <glyph glyph-name="Eng" unicode="&#x14a;" horiz-adv-x="1083" 
d="M844 1434h67v-1518q0 -146 -80 -235.5t-231 -92.5v60q124 4 185 75.5t61 192.5v82l-520 1104q-25 51 -88 196h-2q0 -35 1 -112t1 -113v-1073h-66v1434h68l516 -1094q11 -24 44.5 -101.5t49.5 -113.5h2q-8 126 -8 217v1092z" />
    <glyph glyph-name="eng" unicode="&#x14b;" horiz-adv-x="913" 
d="M508 1090q130 0 200 -100t70 -296v-745q0 -162 -78.5 -251.5t-232.5 -92.5v59q128 4 188 75.5t60 209.5v739q0 342 -219 342q-124 0 -204.5 -104.5t-80.5 -272.5v-653h-64v1067h58l6 -182q43 96 121 150.5t176 54.5z" />
    <glyph glyph-name="Omacron" unicode="&#x14c;" horiz-adv-x="1040" 
d="M350 1710h342v-59h-342v59zM520 -25q-181 0 -284 113t-103 320v616q0 209 103 321.5t284 112.5t284 -112.5t103 -321.5v-616q0 -207 -103 -320t-284 -113zM520 39q152 0 237 94.5t85 274.5v616q0 181 -85 276t-237 95t-235.5 -94.5t-83.5 -276.5v-616q0 -180 84 -274.5
t235 -94.5z" />
    <glyph glyph-name="omacron" unicode="&#x14d;" horiz-adv-x="897" 
d="M279 1350h342v-56h-342v56zM449 -23q-152 0 -240 95t-88 256v413q0 160 88 254.5t240 94.5q150 0 237.5 -94.5t87.5 -254.5v-413q0 -160 -87.5 -255.5t-237.5 -95.5zM449 39q123 0 192.5 77.5t69.5 211.5v413q0 134 -69.5 210.5t-192.5 76.5t-194 -77t-71 -210v-413
q0 -134 71 -211.5t194 -77.5z" />
    <glyph glyph-name="Ohungarumlaut" unicode="&#x150;" horiz-adv-x="1040" 
d="M594 1798l-168 -217h-59l151 217h76zM786 1798l-174 -217h-59l158 217h75zM520 -25q-181 0 -284 113t-103 320v616q0 209 103 321.5t284 112.5t284 -112.5t103 -321.5v-616q0 -207 -103 -320t-284 -113zM520 39q152 0 237 94.5t85 274.5v616q0 181 -85 276t-237 95
t-235.5 -94.5t-83.5 -276.5v-616q0 -180 84 -274.5t235 -94.5z" />
    <glyph glyph-name="ohungarumlaut" unicode="&#x151;" horiz-adv-x="897" 
d="M520 1454l-168 -217h-59l151 217h76zM713 1454l-174 -217h-60l158 217h76zM449 -23q-152 0 -240 95t-88 256v413q0 160 88 254.5t240 94.5q150 0 237.5 -94.5t87.5 -254.5v-413q0 -160 -87.5 -255.5t-237.5 -95.5zM449 39q123 0 192.5 77.5t69.5 211.5v413
q0 134 -69.5 210.5t-192.5 76.5t-194 -77t-71 -210v-413q0 -134 71 -211.5t194 -77.5z" />
    <glyph glyph-name="OE" unicode="&#x152;" horiz-adv-x="1564" 
d="M905 61h572v-61h-639v156q-45 -88 -127 -134.5t-189 -46.5q-182 0 -285.5 113t-103.5 320v616q0 209 103 321.5t286 112.5q108 0 190 -48.5t126 -141.5v166h632v-62h-565v-612h525v-62h-525v-637zM522 39q150 0 233 94.5t83 274.5v616q0 182 -83 276.5t-233 94.5
q-153 0 -237 -94.5t-84 -276.5v-616q0 -181 84 -275t237 -94z" />
    <glyph glyph-name="oe" unicode="&#x153;" horiz-adv-x="1468" 
d="M1296 324h64q-11 -160 -96.5 -252t-237.5 -92q-104 0 -179 52t-110 146q-34 -95 -109.5 -146.5t-181.5 -51.5q-150 0 -237.5 94t-87.5 254v411q0 159 87.5 253.5t237.5 94.5q104 0 180 -53t111 -149q34 95 110 148.5t179 53.5q149 0 235.5 -94.5t86.5 -253.5v-239h-578
v-174q0 -132 68 -208.5t188 -76.5q124 0 191.5 74.5t78.5 208.5zM707 328v411q0 132 -70 209.5t-191 77.5q-122 0 -192 -77t-70 -210v-411q0 -134 69.5 -210.5t192.5 -76.5q121 0 191 76.5t70 210.5zM770 739v-182h514v182q0 133 -68.5 210t-189.5 77q-119 0 -187.5 -77
t-68.5 -210z" />
    <glyph glyph-name="Racute" unicode="&#x154;" horiz-adv-x="946" 
d="M649 1796l-196 -217h-64l178 217h82zM801 0l-346 602h-217v-602h-66v1434h281q197 0 298 -104.5t101 -303.5q0 -187 -86.5 -297.5t-239.5 -124.5l348 -604h-73zM238 1372v-706h254q138 0 216 91.5t78 266.5q0 348 -333 348h-215z" />
    <glyph glyph-name="racute" unicode="&#x155;" horiz-adv-x="651" 
d="M510 1454l-170 -217h-61l155 217h76zM504 1090q60 0 110 -13v-67q-59 18 -122 18q-123 0 -202 -104t-79 -271v-649h-64v1063h58l6 -135v-45q43 95 119.5 149t173.5 54z" />
    <glyph glyph-name="Rcommaaccent" unicode="&#x156;" horiz-adv-x="946" 
d="M526 604l348 -604h-73l-346 602h-217v-602h-66v1434h281q197 0 298 -104.5t101 -303.5q0 -187 -86.5 -297.5t-239.5 -124.5zM238 1372v-706h254q138 0 216 91.5t78 266.5q0 348 -333 348h-215zM424 -463l35 328h84l-64 -328h-55z" />
    <glyph glyph-name="rcommaaccent" unicode="&#x157;" horiz-adv-x="651" 
d="M504 1090q60 0 110 -13v-67q-59 18 -122 18q-123 0 -202 -104t-79 -271v-649h-64v1063h58l6 -135v-45q43 95 119.5 149t173.5 54zM125 -463l35 328h84l-64 -328h-55z" />
    <glyph glyph-name="Rcaron" unicode="&#x158;" horiz-adv-x="946" 
d="M504 1579h-74l-158 217h62l133 -172l135 172h60zM801 0l-346 602h-217v-602h-66v1434h281q197 0 298 -104.5t101 -303.5q0 -187 -86.5 -297.5t-239.5 -124.5l348 -604h-73zM238 1372v-706h254q138 0 216 91.5t78 266.5q0 348 -333 348h-215z" />
    <glyph glyph-name="rcaron" unicode="&#x159;" horiz-adv-x="651" 
d="M406 1237h-74l-158 217h62l133 -172l135 172h59zM504 1090q60 0 110 -13v-67q-59 18 -122 18q-123 0 -202 -104t-79 -271v-649h-64v1063h58l6 -135v-45q43 95 119.5 149t173.5 54z" />
    <glyph glyph-name="Sacute" unicode="&#x15a;" horiz-adv-x="882" 
d="M360 1579l179 217h82l-197 -217h-64zM440 -25q-158 0 -252.5 98.5t-103.5 260.5h66q12 -139 87 -217t203 -78q133 0 209 80t76 205q0 60 -21.5 113t-58 93.5t-83.5 77.5t-99 71t-104.5 68t-99.5 73.5t-83.5 83t-58 101t-21.5 123.5q0 143 95.5 236.5t244.5 93.5
q148 0 239.5 -96t102.5 -258h-65q-12 140 -84 215.5t-191 75.5q-122 0 -199 -74.5t-77 -192.5q0 -74 35 -137t90.5 -109.5t123 -90t134.5 -89.5t122.5 -97t90.5 -123t35 -158q0 -147 -96.5 -248t-256.5 -101z" />
    <glyph glyph-name="sacute" unicode="&#x15b;" horiz-adv-x="796" 
d="M537 1454l-170 -217h-62l156 217h76zM408 -23q-148 0 -235 82t-91 230h61q6 -125 74 -187.5t191 -62.5q104 0 172.5 57t68.5 152q0 62 -30.5 109.5t-79.5 78.5t-108 57.5t-118.5 55t-108.5 63t-79.5 89.5t-30.5 126q0 116 82.5 189.5t210.5 73.5q135 0 217 -76.5
t86 -206.5h-63q-3 107 -66 165t-174 58q-101 0 -165 -56t-64 -149q0 -60 30.5 -105.5t79.5 -75.5t107.5 -56.5t117.5 -55.5t108 -64t79.5 -92t30.5 -130q0 -118 -87 -193.5t-216 -75.5z" />
    <glyph glyph-name="Scedilla" unicode="&#x15e;" horiz-adv-x="882" 
d="M793 324q0 -139 -86.5 -238t-233.5 -109l-29 -92q18 6 45 6q62 0 102 -38.5t40 -98.5q0 -68 -47 -106.5t-123 -38.5q-69 0 -117.5 42t-50.5 99h55q6 -41 37 -65.5t78 -24.5q50 0 80 25t30 69q0 41 -26 66.5t-66 25.5q-45 3 -75 -14l-21 23l39 120q-151 6 -241 104
t-99 255h66q12 -139 87 -217t203 -78q133 0 209 80t76 205q0 60 -21.5 113t-58 93.5t-83.5 77.5t-99 71t-104.5 68t-99.5 73.5t-83.5 83t-58 101t-21.5 123.5q0 143 95.5 236.5t244.5 93.5q148 0 239.5 -96t102.5 -258h-65q-12 140 -84 215.5t-191 75.5q-122 0 -199 -74.5
t-77 -192.5q0 -74 35 -137t90.5 -109.5t123 -90t134.5 -89.5t122.5 -97t90.5 -123t35 -158z" />
    <glyph glyph-name="scedilla" unicode="&#x15f;" horiz-adv-x="796" 
d="M711 246q0 -117 -85.5 -192t-213.5 -77l-29 -92q18 6 45 6q62 0 101.5 -38.5t39.5 -98.5q0 -68 -47 -106.5t-123 -38.5q-69 0 -117.5 42t-50.5 99h56q6 -41 36.5 -65.5t77.5 -24.5q50 0 80.5 25t30.5 69q0 41 -26 66.5t-66 25.5q-46 3 -76 -14l-20 23l41 125
q-129 12 -204 92t-79 217h61q6 -125 74 -187.5t191 -62.5q104 0 172.5 57t68.5 152q0 62 -30.5 109.5t-79.5 78.5t-108 57.5t-118.5 55t-108.5 63t-79.5 89.5t-30.5 126q0 116 82.5 189.5t210.5 73.5q135 0 217 -76.5t86 -206.5h-63q-3 107 -66 165t-174 58q-101 0 -165 -56
t-64 -149q0 -60 30.5 -105.5t79.5 -75.5t107.5 -56.5t117.5 -55.5t108 -64t79.5 -92t30.5 -130z" />
    <glyph glyph-name="Scaron" unicode="&#x160;" horiz-adv-x="882" 
d="M475 1579h-74l-157 217h61l133 -172l135 172h60zM162 1128q0 -74 35 -137t90.5 -109.5t123 -90t134.5 -89.5t122.5 -97t90.5 -123t35 -158q0 -147 -96.5 -248t-256.5 -101q-158 0 -252.5 98.5t-103.5 260.5h66q12 -139 87 -217t203 -78q133 0 209 80t76 205
q0 60 -21.5 113t-58 93.5t-83.5 77.5t-99 71t-104.5 68t-99.5 73.5t-83.5 83t-58 101t-21.5 123.5q0 143 95.5 236.5t244.5 93.5q148 0 239.5 -96t102.5 -258h-65q-12 140 -84 215.5t-191 75.5q-122 0 -199 -74.5t-77 -192.5z" />
    <glyph glyph-name="scaron" unicode="&#x161;" horiz-adv-x="796" 
d="M432 1237h-74l-157 217h61l133 -172l135 172h60zM158 825q0 -60 30.5 -105.5t79.5 -75.5t107.5 -56.5t117.5 -55.5t108 -64t79.5 -92t30.5 -130q0 -118 -87 -193.5t-216 -75.5q-148 0 -235 82t-91 230h61q6 -125 74 -187.5t191 -62.5q104 0 172.5 57t68.5 152
q0 62 -30.5 109.5t-79.5 78.5t-108 57.5t-118.5 55t-108.5 63t-79.5 89.5t-30.5 126q0 116 82.5 189.5t210.5 73.5q135 0 217 -76.5t86 -206.5h-63q-3 107 -66 165t-174 58q-101 0 -165 -56t-64 -149z" />
    <glyph glyph-name="uni0162" unicode="&#x162;" horiz-adv-x="813" 
d="M49 1434h715v-62h-328v-1372h-65v1372h-322v62zM340 -463l35 328h84l-64 -328h-55z" />
    <glyph glyph-name="uni0163" unicode="&#x163;" horiz-adv-x="575" 
d="M475 53h45v-59h-45q-276 0 -276 282v734h-152v57h152v252h63v-252h242v-57h-242v-734q0 -115 53.5 -169t159.5 -54zM268 -463l35 328h84l-63 -328h-56z" />
    <glyph glyph-name="Tcaron" unicode="&#x164;" horiz-adv-x="813" 
d="M440 1579h-73l-158 217h61l133 -172l136 172h59zM764 1434v-62h-328v-1372h-65v1372h-322v62h715z" />
    <glyph glyph-name="tcaron" unicode="&#x165;" horiz-adv-x="579" 
d="M489 1536l-53 -299h-49l31 299h71zM475 53h45v-59h-45q-276 0 -276 282v734h-152v57h152v252h63v-252h242v-57h-242v-734q0 -115 53.5 -169t159.5 -54z" />
    <glyph glyph-name="Tbar" unicode="&#x166;" horiz-adv-x="813" 
d="M764 1372h-324v-594h181v-55h-181v-723h-65v723h-182v55h182v594h-326v62h715v-62z" />
    <glyph glyph-name="tbar" unicode="&#x167;" horiz-adv-x="575" 
d="M475 53h45v-59h-45q-276 0 -276 282v312h-127v53h127v369h-152v57h152v252h63v-252h242v-57h-242v-369h184v-53h-184v-312q0 -115 53.5 -169t159.5 -54z" />
    <glyph glyph-name="Umacron" unicode="&#x16a;" horiz-adv-x="1015" 
d="M338 1710h342v-59h-342v59zM508 -20q-167 0 -264 106.5t-97 304.5v1043h66v-1043q0 -170 78.5 -259t216.5 -89q137 0 216 89.5t79 258.5v1043h65v-1043q0 -197 -97 -304t-263 -107z" />
    <glyph glyph-name="umacron" unicode="&#x16b;" horiz-adv-x="913" 
d="M612 1348v-56h-342v56h342zM702 1067h64v-1067h-57l-7 143v37q-43 -95 -120.5 -149t-175.5 -54q-129 0 -200 100t-71 296v694h64v-688q0 -342 219 -342q124 0 204 104t80 273v653z" />
    <glyph glyph-name="Uring" unicode="&#x16e;" horiz-adv-x="1015" 
d="M381 1716q0 55 35 89t92 34t93 -34t36 -89q0 -58 -36 -93.5t-93 -35.5t-92 35.5t-35 93.5zM430 1714q0 -37 21.5 -58.5t56.5 -21.5t56.5 21.5t21.5 58.5q0 34 -21.5 56t-56.5 22t-56.5 -22t-21.5 -56zM508 -20q-167 0 -264 106.5t-97 304.5v1043h66v-1043
q0 -170 78.5 -259t216.5 -89q137 0 216 89.5t79 258.5v1043h65v-1043q0 -197 -97 -304t-263 -107z" />
    <glyph glyph-name="uring" unicode="&#x16f;" horiz-adv-x="913" 
d="M440 1225q-57 0 -92 35.5t-35 93.5q0 55 35 89t92 34t93 -34t36 -89q0 -58 -36 -93.5t-93 -35.5zM440 1430q-35 0 -56.5 -22t-21.5 -56q0 -37 21.5 -58.5t56.5 -21.5t56.5 21.5t21.5 58.5q0 34 -21.5 56t-56.5 22zM702 1067h64v-1067h-57l-7 143v37q-43 -95 -120.5 -149
t-175.5 -54q-129 0 -200 100t-71 296v694h64v-688q0 -342 219 -342q124 0 204 104t80 273v653z" />
    <glyph glyph-name="Uhungarumlaut" unicode="&#x170;" horiz-adv-x="1015" 
d="M582 1798l-168 -217h-60l152 217h76zM774 1798l-174 -217h-59l157 217h76zM508 -20q-167 0 -264 106.5t-97 304.5v1043h66v-1043q0 -170 78.5 -259t216.5 -89q137 0 216 89.5t79 258.5v1043h65v-1043q0 -197 -97 -304t-263 -107z" />
    <glyph glyph-name="uhungarumlaut" unicode="&#x171;" horiz-adv-x="913" 
d="M512 1452l-168 -217h-59l151 217h76zM530 1235h-59l158 217h76zM702 1067h64v-1067h-57l-7 143v37q-43 -95 -120.5 -149t-175.5 -54q-129 0 -200 100t-71 296v694h64v-688q0 -342 219 -342q124 0 204 104t80 273v653z" />
    <glyph glyph-name="Uogonek" unicode="&#x172;" horiz-adv-x="1011" 
d="M623 -391q-74 0 -115 42t-41 105q0 59 38.5 122t104.5 118l-2 2q-56 -18 -102 -18q-166 0 -262.5 106t-96.5 299v1049h66v-1049q0 -166 78.5 -254t214.5 -88t214.5 88t78.5 254v1049h65v-1049q0 -130 -40.5 -210.5t-116.5 -141.5q-86 -67 -132.5 -137t-46.5 -129
q0 -48 30 -73.5t77 -25.5q23 0 51 4v-57q-27 -6 -63 -6z" />
    <glyph glyph-name="uogonek" unicode="&#x173;" horiz-adv-x="917" 
d="M721 -332q19 0 47 4v-57q-24 -6 -59 -6q-74 0 -116 43t-42 106q0 60 43 124t115 118l-7 143v41q-42 -96 -119.5 -151.5t-176.5 -55.5q-129 0 -200 100.5t-71 297.5v692h62v-688q0 -170 56.5 -256t164.5 -86q124 0 204 105t80 272v653h62v-1067q-152 -124 -152 -231
q0 -48 30.5 -74.5t78.5 -26.5z" />
    <glyph glyph-name="Wcircumflex" unicode="&#x174;" horiz-adv-x="1376" 
d="M690 1751l-133 -172h-61l157 217h74l158 -217h-60zM1278 1434h70l-310 -1434h-75l-213 969q-31 156 -60 336h-2q-25 -155 -61 -336l-213 -969h-76l-309 1434h69l215 -1039q59 -284 62 -301h2q17 87 63 307l211 1012h74l209 -991q9 -47 32 -163t33 -165h2q9 48 33 162
t33 158z" />
    <glyph glyph-name="wcircumflex" unicode="&#x175;" horiz-adv-x="1208" 
d="M602 1405l-133 -172h-61l157 217h74l158 -217h-60zM1106 1067h65l-266 -1067h-67l-191 756q-19 78 -43 196h-2q-9 -57 -43 -196l-190 -756h-68l-266 1067h65l181 -756q6 -23 53 -235h2q33 156 55 248l178 723h68l178 -723q10 -41 29.5 -128t27.5 -120q7 28 16 67.5
t20.5 90t17.5 77.5z" />
    <glyph glyph-name="Ycircumflex" unicode="&#x176;" horiz-adv-x="831" 
d="M414 1751l-133 -172h-62l158 217h74l157 -217h-59zM741 1434h70l-362 -899v-535h-66v535l-365 899h70l250 -623q56 -137 78 -195q13 33 38.5 97.5t37.5 97.5z" />
    <glyph glyph-name="ycircumflex" unicode="&#x177;" horiz-adv-x="765" 
d="M381 1407l-133 -172h-62l158 217h74l157 -217h-59zM666 1067h65l-379 -1231q-31 -99 -79.5 -155t-125.5 -56h-57v60h51q54 0 89.5 42.5t62.5 122.5l78 254l-336 963h67l299 -864z" />
    <glyph glyph-name="Ydieresis" unicode="&#x178;" horiz-adv-x="831" 
d="M295 1647q-27 0 -42 15t-15 42t15 42t42 15q59 0 59 -57t-59 -57zM532 1647q-27 0 -43 15t-16 42t16 42t43 15q28 0 44 -15t16 -42t-16 -42t-44 -15zM383 0v535l-365 899h70l250 -623q56 -137 78 -195q13 33 38.5 97.5t37.5 97.5l249 623h70l-362 -899v-535h-66z" />
    <glyph glyph-name="Zacute" unicode="&#x179;" horiz-adv-x="806" 
d="M313 1579l179 217h81l-196 -217h-64zM123 61h614v-61h-690v53l602 1319h-577v62h657v-48z" />
    <glyph glyph-name="zacute" unicode="&#x17a;" horiz-adv-x="698" 
d="M496 1454l-170 -217h-62l156 217h76zM117 59h520v-59h-596v53l512 957h-479v59h555v-53z" />
    <glyph glyph-name="Zdotaccent" unicode="&#x17b;" horiz-adv-x="806" 
d="M391 1640q-29 0 -47 18.5t-18 47.5t18 46t47 17t46.5 -17t17.5 -46t-17.5 -47.5t-46.5 -18.5zM123 61h614v-61h-690v53l602 1319h-577v62h657v-48z" />
    <glyph glyph-name="zdotaccent" unicode="&#x17c;" horiz-adv-x="698" 
d="M354 1274q-29 0 -47 18t-18 47t18 46.5t47 17.5t46.5 -17.5t17.5 -46.5t-17.5 -47t-46.5 -18zM117 59h520v-59h-596v53l512 957h-479v59h555v-53z" />
    <glyph glyph-name="Zcaron" unicode="&#x17d;" horiz-adv-x="806" 
d="M428 1579h-74l-157 217h61l133 -172l135 172h60zM123 61h614v-61h-690v53l602 1319h-577v62h657v-48z" />
    <glyph glyph-name="zcaron" unicode="&#x17e;" horiz-adv-x="698" 
d="M391 1237h-74l-157 217h61l133 -172l135 172h60zM117 59h520v-59h-596v53l512 957h-479v59h555v-53z" />
    <glyph glyph-name="Scommaaccent" unicode="&#x218;" horiz-adv-x="882" 
d="M440 -25q-158 0 -252.5 98.5t-103.5 260.5h66q12 -139 87 -217t203 -78q133 0 209 80t76 205q0 60 -21.5 113t-58 93.5t-83.5 77.5t-99 71t-104.5 68t-99.5 73.5t-83.5 83t-58 101t-21.5 123.5q0 143 95.5 236.5t244.5 93.5q148 0 239.5 -96t102.5 -258h-65
q-12 140 -84 215.5t-191 75.5q-122 0 -199 -74.5t-77 -192.5q0 -74 35 -137t90.5 -109.5t123 -90t134.5 -89.5t122.5 -97t90.5 -123t35 -158q0 -147 -96.5 -248t-256.5 -101zM393 -463l35 328h84l-63 -328h-56z" />
    <glyph glyph-name="scommaaccent" unicode="&#x219;" horiz-adv-x="796" 
d="M408 -23q-148 0 -235 82t-91 230h61q6 -125 74 -187.5t191 -62.5q104 0 172.5 57t68.5 152q0 62 -30.5 109.5t-79.5 78.5t-108 57.5t-118.5 55t-108.5 63t-79.5 89.5t-30.5 126q0 116 82.5 189.5t210.5 73.5q135 0 217 -76.5t86 -206.5h-63q-3 107 -66 165t-174 58
q-101 0 -165 -56t-64 -149q0 -60 30.5 -105.5t79.5 -75.5t107.5 -56.5t117.5 -55.5t108 -64t79.5 -92t30.5 -130q0 -118 -87 -193.5t-216 -75.5zM346 -463l35 328h84l-64 -328h-55z" />
    <glyph glyph-name="uni021A" unicode="&#x21a;" horiz-adv-x="813" 
d="M49 1434h715v-62h-328v-1372h-65v1372h-322v62zM340 -463l35 328h84l-64 -328h-55z" />
    <glyph glyph-name="uni021B" unicode="&#x21b;" horiz-adv-x="575" 
d="M475 53h45v-59h-45q-276 0 -276 282v734h-152v57h152v252h63v-252h242v-57h-242v-734q0 -115 53.5 -169t159.5 -54zM268 -463l35 328h84l-63 -328h-56z" />
    <glyph glyph-name="gravecomb" unicode="&#x300;" 
d="M-231 1454h75l156 -217h-61z" />
    <glyph glyph-name="acutecomb" unicode="&#x301;" 
d="M2 1454l-170 -217h-61l155 217h76z" />
    <glyph glyph-name="uni0302" unicode="&#x302;" 
d="M0 1235h-59l-136 172l-133 -172h-61l158 217h73z" />
    <glyph glyph-name="tildecomb" unicode="&#x303;" 
d="M-291 1368q-28 0 -45 -23t-18 -67h-60q1 66 34.5 105.5t86.5 39.5q30 0 55 -15t40 -33t35 -33t40 -15q28 0 46.5 24.5t19.5 67.5h57q-5 -68 -37 -107.5t-84 -39.5q-28 0 -53 15t-40 33t-35.5 33t-41.5 15z" />
    <glyph glyph-name="uni0304" unicode="&#x304;" 
d="M-342 1350h342v-56h-342v56z" />
    <glyph glyph-name="uni0306" unicode="&#x306;" 
d="M-215 1237q-93 0 -150.5 59t-58.5 158h59q1 -78 40 -120t110 -42q70 0 108.5 42t40.5 120h60q-1 -100 -58 -158.5t-151 -58.5z" />
    <glyph glyph-name="uni0307" unicode="&#x307;" 
d="M-174 1274q-29 0 -47.5 18t-18.5 47t18.5 46.5t47.5 17.5t46 -17.5t17 -46.5t-17 -47t-46 -18z" />
    <glyph glyph-name="uni0308" unicode="&#x308;" 
d="M-272 1278q-28 0 -44 15.5t-16 41.5q0 28 16 44t44 16q26 0 41.5 -16t15.5 -44q0 -26 -15.5 -41.5t-41.5 -15.5zM-57 1278q-28 0 -44 15.5t-16 41.5q0 28 16 44t44 16q26 0 41.5 -16t15.5 -44q0 -26 -15.5 -41.5t-41.5 -15.5z" />
    <glyph glyph-name="uni030A" unicode="&#x30a;" 
d="M-270 1356q0 55 35 89t92 34t93 -34t36 -89q0 -58 -36 -93.5t-93 -35.5t-92 35.5t-35 93.5zM-221 1354q0 -37 21.5 -58.5t56.5 -21.5t56 21.5t21 58.5q0 34 -21 56t-56 22t-56.5 -22t-21.5 -56z" />
    <glyph glyph-name="uni030B" unicode="&#x30b;" 
d="M-188 1454l-168 -217h-60l152 217h76zM4 1454l-174 -217h-59l157 217h76z" />
    <glyph glyph-name="uni030C" unicode="&#x30c;" 
d="M-72 1454h60l-158 -217h-74l-157 217h61l133 -172z" />
    <glyph glyph-name="uni0312" unicode="&#x312;" 
d="M-70 1579l70 -332h-86l-35 332h51z" />
    <glyph glyph-name="uni0326" unicode="&#x326;" 
d="M-133 -463l35 328h84l-64 -328h-55z" />
    <glyph glyph-name="uni0327" unicode="&#x327;" 
d="M-178 -391q-69 0 -117.5 42t-50.5 99h55q6 -41 37 -65.5t78 -24.5q50 0 80 25t30 69q0 41 -26 66.5t-66 25.5q-45 3 -75 -14l-21 23l47 145h49l-37 -115q18 6 45 6q62 0 102 -38.5t40 -98.5q0 -68 -47 -106.5t-123 -38.5z" />
    <glyph glyph-name="uni0328" unicode="&#x328;" 
d="M0 -385q-27 -6 -63 -6q-74 0 -116 42t-42 103q0 60 40 125.5t107 120.5h60q-70 -60 -108 -121.5t-38 -114.5q0 -46 30.5 -71t76.5 -25q21 0 53 4v-57z" />
    <glyph glyph-name="uni0335" unicode="&#x335;" 
d="M-430 762v55h410v-55h-410z" />
    <glyph glyph-name="uni0336" unicode="&#x336;" 
d="M-676 817h656v-55h-656v55z" />
    <glyph glyph-name="uni0337" unicode="&#x337;" 
d="M-438 -88l332 1202h61l-330 -1202h-63z" />
    <glyph glyph-name="uni0338" unicode="&#x338;" 
d="M-649 -74l442 1577h62l-445 -1577h-59z" />
    <glyph glyph-name="uni0401" unicode="&#x401;" horiz-adv-x="901" 
d="M358 1647q-27 0 -42 15t-15 42t15 42t42 15q28 0 44 -15t16 -42t-16 -42t-44 -15zM596 1647q-27 0 -43 15t-16 42t16 42t43 15q59 0 59 -57t-59 -57zM238 61h575v-61h-641v1434h635v-62h-569v-612h526v-62h-526v-637z" />
    <glyph glyph-name="uni0402" unicode="&#x402;" horiz-adv-x="1114" 
d="M721 1087q132 0 202 -102.5t70 -304.5v-369q0 -151 -78.5 -238t-232.5 -91v61q248 6 248 268v367q0 350 -219 350q-126 0 -205.5 -104t-79.5 -273v-651h-66v1372h-311v62h694v-62h-317v-489q42 95 120 149.5t175 54.5z" />
    <glyph glyph-name="uni0403" unicode="&#x403;" horiz-adv-x="819" 
d="M641 1796l-197 -217h-63l178 217h82zM770 1434v-62h-532v-1372h-66v1434h598z" />
    <glyph glyph-name="uni0404" unicode="&#x404;" horiz-adv-x="960" 
d="M815 367h64q-12 -192 -110.5 -292t-272.5 -100q-167 0 -265 109t-98 313v639q0 205 97 313.5t264 108.5q171 0 267 -99t109 -292h-65q-27 330 -311 330q-138 0 -216.5 -91.5t-78.5 -269.5v-270h467v-61h-467v-308q0 -178 79 -269t218 -91q292 0 319 330z" />
    <glyph glyph-name="uni0405" unicode="&#x405;" horiz-adv-x="882" 
d="M440 -25q-158 0 -252.5 98.5t-103.5 260.5h66q12 -139 87 -217t203 -78q133 0 209 80t76 205q0 60 -21.5 113t-58 93.5t-83.5 77.5t-99 71t-104.5 68t-99.5 73.5t-83.5 83t-58 101t-21.5 123.5q0 143 95.5 236.5t244.5 93.5q148 0 239.5 -96t102.5 -258h-65
q-12 140 -84 215.5t-191 75.5q-122 0 -199 -74.5t-77 -192.5q0 -74 35 -137t90.5 -109.5t123 -90t134.5 -89.5t122.5 -97t90.5 -123t35 -158q0 -147 -96.5 -248t-256.5 -101z" />
    <glyph glyph-name="uni0406" unicode="&#x406;" horiz-adv-x="409" 
d="M172 1434h66v-1434h-66v1434z" />
    <glyph glyph-name="uni0407" unicode="&#x407;" horiz-adv-x="409" 
d="M88 1647q-27 0 -42 15t-15 42t15 42t42 15q59 0 59 -57t-59 -57zM326 1647q-27 0 -43.5 15t-16.5 42t16.5 42t43.5 15q59 0 59 -57t-59 -57zM172 1434h66v-1434h-66v1434z" />
    <glyph glyph-name="uni0408" unicode="&#x408;" horiz-adv-x="448" 
d="M-14 -145v63q229 0 229 266v1250h66v-1250q0 -157 -74.5 -243t-220.5 -86z" />
    <glyph glyph-name="uni0409" unicode="&#x409;" horiz-adv-x="1476" 
d="M14 -16v63q37 0 66 25t47 66t28 79t15 78q28 191 72 1139h544v-617h244q190 0 292.5 -105t102.5 -300q0 -198 -102.5 -305t-292.5 -107h-309v1372h-418q-23 -505 -37.5 -736.5t-32.5 -348.5q-8 -51 -22.5 -98.5t-39.5 -96.5t-65.5 -78.5t-91.5 -29.5zM786 63h244
q328 0 328 349q0 170 -82.5 257t-245.5 87h-244v-693z" />
    <glyph glyph-name="uni040A" unicode="&#x40a;" horiz-adv-x="1570" 
d="M1126 786q190 0 292 -100.5t102 -288.5q0 -192 -101.5 -294.5t-292.5 -102.5h-309v723h-579v-723h-66v1434h66v-650h579v650h66v-648h243zM1126 63q162 0 245 84.5t83 249.5q0 162 -83 245t-245 83h-243v-662h243z" />
    <glyph glyph-name="uni040B" unicode="&#x40b;" horiz-adv-x="1124" 
d="M717 1087q132 0 202 -102.5t70 -304.5v-680h-61v678q0 350 -221 350q-123 0 -202 -104t-79 -273v-651h-66v1372h-311v62h694v-62h-317v-487q42 95 118 148.5t173 53.5z" />
    <glyph glyph-name="uni040C" unicode="&#x40c;" horiz-adv-x="958" 
d="M657 1796l-196 -217h-64l178 217h82zM854 0l-483 758l-133 -174v-584h-66v1434h66v-748l69 94l490 654h82l-465 -619l516 -815h-76z" />
    <glyph glyph-name="uni040D" unicode="&#x40d;" horiz-adv-x="1081" 
d="M604 1579h-63l-197 217h82zM172 0v1434h66v-1127q0 -119 -2 -170h2q8 17 35.5 79t43.5 95l523 1123h69v-1434h-65v1114v182v2q-47 -102 -70 -155l-532 -1143h-70z" />
    <glyph glyph-name="uni040E" unicode="&#x40e;" horiz-adv-x="798" 
d="M414 1575q-93 0 -150.5 59t-58.5 158h59q1 -78 40 -120t110 -42q70 0 108.5 42t40.5 120h60q-1 -100 -58 -158.5t-151 -58.5zM711 1434h67l-387 -1217q-10 -31 -23 -60t-35 -61.5t-47.5 -56.5t-62 -39.5t-76.5 -15.5h-49v63h45q39 0 72 18.5t55.5 49.5t37 60t24.5 61
l76 237l-383 961h69l342 -867z" />
    <glyph glyph-name="uni040F" unicode="&#x40f;" horiz-adv-x="1056" 
d="M498 -236v236h-326v1434h66v-1373h581v1373h66v-1434h-324v-236h-63z" />
    <glyph glyph-name="uni0410" unicode="&#x410;" horiz-adv-x="897" 
d="M799 0l-103 393h-495l-103 -393h-69l383 1434h73l383 -1434h-69zM217 453h463l-152 583q-14 53 -40 159t-39 153q-13 -48 -39.5 -154t-40.5 -158z" />
    <glyph glyph-name="uni0411" unicode="&#x411;" horiz-adv-x="974" 
d="M502 831q171 0 280 -108.5t109 -304.5q0 -195 -109.5 -306.5t-279.5 -111.5h-330v1434h645v-62h-579v-541h264zM502 61q142 0 232.5 93t90.5 264q0 172 -90 262t-233 90h-264v-709h264z" />
    <glyph glyph-name="uni0412" unicode="&#x412;" horiz-adv-x="978" 
d="M618 745q140 -28 207.5 -122.5t67.5 -233.5q0 -186 -106 -287.5t-295 -101.5h-320v1434h301q169 0 265 -96t96 -267q0 -125 -53.5 -211.5t-162.5 -114.5zM473 1372h-235v-600h247q141 0 212 82.5t71 216.5q0 147 -76.5 224t-218.5 77zM492 61q161 0 248 84t87 244
q0 142 -88 232t-252 90h-249v-650h254z" />
    <glyph glyph-name="uni0413" unicode="&#x413;" horiz-adv-x="819" 
d="M770 1434v-62h-532v-1372h-66v1434h598z" />
    <glyph glyph-name="uni0414" unicode="&#x414;" horiz-adv-x="1054" 
d="M852 61h123v-290h-66v227h-823v-227h-63v290h92q62 70 105.5 246t49.5 375l25 752h557v-1373zM784 61v1311h-426l-24 -700q-8 -191 -44.5 -355.5t-94.5 -255.5h589z" />
    <glyph glyph-name="uni0415" unicode="&#x415;" horiz-adv-x="901" 
d="M238 61h575v-61h-641v1434h635v-62h-569v-612h526v-62h-526v-637z" />
    <glyph glyph-name="uni0416" unicode="&#x416;" horiz-adv-x="1431" 
d="M1327 0l-467 745l-112 -151v-594h-64v594l-113 151l-467 -745h-75l501 803l-464 631h77l394 -537l147 -203v740h64v-740l153 213l387 527h78l-463 -629l502 -805h-78z" />
    <glyph glyph-name="uni0417" unicode="&#x417;" horiz-adv-x="954" 
d="M586 739q132 -29 199 -120.5t67 -239.5q0 -189 -102 -296.5t-275 -107.5q-170 0 -275.5 104.5t-117.5 287.5h68q13 -156 99 -242t226 -86q144 0 227.5 89.5t83.5 248.5q0 161 -88 245.5t-245 84.5h-131v63h143q139 0 216 80.5t77 230.5q0 151 -75.5 232.5t-209.5 81.5
q-137 0 -216.5 -85.5t-88.5 -242.5h-66q11 185 108.5 288t262.5 103q162 0 256 -99.5t94 -281.5q0 -275 -237 -338z" />
    <glyph glyph-name="uni0418" unicode="&#x418;" horiz-adv-x="1081" 
d="M172 0v1434h66v-1127q0 -119 -2 -170h2q8 17 35.5 79t43.5 95l523 1123h69v-1434h-65v1114v182v2q-47 -102 -70 -155l-532 -1143h-70z" />
    <glyph glyph-name="uni0419" unicode="&#x419;" horiz-adv-x="1081" 
d="M541 1575q-93 0 -150.5 59t-58.5 158h59q1 -78 40 -120t110 -42q70 0 108.5 42t40.5 120h60q-1 -100 -58 -158.5t-151 -58.5zM172 0v1434h66v-1127q0 -119 -2 -170h2q8 17 35.5 79t43.5 95l523 1123h69v-1434h-65v1114v182v2q-47 -102 -70 -155l-532 -1143h-70z" />
    <glyph glyph-name="uni041A" unicode="&#x41a;" horiz-adv-x="958" 
d="M854 0l-483 758l-133 -174v-584h-66v1434h66v-748l69 94l490 654h82l-465 -619l516 -815h-76z" />
    <glyph glyph-name="uni041B" unicode="&#x41b;" horiz-adv-x="976" 
d="M250 1434h555v-1434h-66v1372h-426q-25 -526 -39 -748t-32 -337q-5 -39 -15 -77.5t-29 -80.5t-43.5 -73t-61 -51.5t-79.5 -20.5v63q38 0 69 25t49.5 66t29.5 79.5t16 77.5q28 191 72 1139z" />
    <glyph glyph-name="uni041C" unicode="&#x41c;" horiz-adv-x="1282" 
d="M1040 1434h70v-1430h-66v1057q0 45 5 225h-2l-82 -203l-291 -708h-66l-289 708q-70 173 -81 203h-2q2 -72 2 -225v-1057h-66v1430h70l319 -772q14 -33 41 -105t39 -102h2q55 146 80 207z" />
    <glyph glyph-name="uni041D" unicode="&#x41d;" horiz-adv-x="1058" 
d="M821 1434h66v-1434h-66v698h-583v-698h-66v1434h66v-672h583v672z" />
    <glyph glyph-name="uni041E" unicode="&#x41e;" horiz-adv-x="1040" 
d="M520 -25q-181 0 -284 113t-103 320v616q0 209 103 321.5t284 112.5t284 -112.5t103 -321.5v-616q0 -207 -103 -320t-284 -113zM520 39q152 0 237 94.5t85 274.5v616q0 181 -85 276t-237 95t-235.5 -94.5t-83.5 -276.5v-616q0 -180 84 -274.5t235 -94.5z" />
    <glyph glyph-name="uni041F" unicode="&#x41f;" horiz-adv-x="1058" 
d="M887 1434v-1434h-66v1372h-583v-1372h-66v1434h715z" />
    <glyph glyph-name="uni0420" unicode="&#x420;" horiz-adv-x="960" 
d="M877 1008q1 -209 -103 -324t-295 -115h-241v-569h-66v1434h307q189 0 292.5 -112t105.5 -314zM811 1008q2 174 -84 268t-248 94h-241v-739h241q162 0 246 97t86 280z" />
    <glyph glyph-name="uni0421" unicode="&#x421;" horiz-adv-x="960" 
d="M496 -25q-167 0 -265 109t-98 313v639q0 205 97 313.5t264 108.5q171 0 267 -99t109 -292h-65q-27 330 -311 330q-138 0 -216.5 -91.5t-78.5 -269.5v-639q0 -178 79 -269t218 -91q292 0 319 330h64q-12 -192 -110.5 -292t-272.5 -100z" />
    <glyph glyph-name="uni0422" unicode="&#x422;" horiz-adv-x="813" 
d="M764 1434v-62h-328v-1372h-65v1372h-322v62h715z" />
    <glyph glyph-name="uni0423" unicode="&#x423;" horiz-adv-x="798" 
d="M711 1434h67l-387 -1217q-10 -31 -23 -60t-35 -61.5t-47.5 -56.5t-62 -39.5t-76.5 -15.5h-49v63h45q39 0 72 18.5t55.5 49.5t37 60t24.5 61l76 237l-383 961h69l342 -867z" />
    <glyph glyph-name="uni0424" unicode="&#x424;" horiz-adv-x="1316" 
d="M627 -104v167h-101q-200 0 -313 127t-113 353v358q0 224 113 348.5t313 124.5h101v154h65v-154h99q200 0 313 -124.5t113 -348.5v-358q0 -226 -113 -353t-313 -127h-99v-167h-65zM526 127h101v1184h-101q-171 0 -264.5 -107t-93.5 -303v-358q0 -198 94 -307t264 -109z
M692 127h99q172 0 266 109t94 307v358q0 196 -94 303t-266 107h-99v-1184z" />
    <glyph glyph-name="uni0425" unicode="&#x425;" horiz-adv-x="862" 
d="M817 0h-72l-313 672l-315 -672h-74l352 743l-334 691h72l299 -625l297 625h72l-332 -691z" />
    <glyph glyph-name="uni0426" unicode="&#x426;" horiz-adv-x="1093" 
d="M948 -236v236h-776v1434h66v-1373h579v1373h66v-1373h129v-297h-64z" />
    <glyph glyph-name="uni0427" unicode="&#x427;" horiz-adv-x="978" 
d="M739 1434h66v-1430h-66v606q-117 -69 -258 -69q-169 0 -276 104.5t-107 292.5v496h66v-496q0 -162 88.5 -249t228.5 -87q137 0 258 74v758z" />
    <glyph glyph-name="uni0428" unicode="&#x428;" horiz-adv-x="1595" 
d="M172 0v1434h66v-1373h526v1373h65v-1373h527v1373h67v-1434h-1251z" />
    <glyph glyph-name="uni0429" unicode="&#x429;" horiz-adv-x="1632" 
d="M1423 61h127v-297h-61v236h-1317v1434h66v-1373h526v1373h65v-1373h527v1373h67v-1373z" />
    <glyph glyph-name="uni042A" unicode="&#x42a;" horiz-adv-x="1042" 
d="M279 0v1372h-234v62h299v-609h244q195 0 299 -106t104 -303q0 -200 -104 -308t-299 -108h-309zM344 63h244q167 0 252.5 89t85.5 264q0 172 -85.5 260t-252.5 88h-244v-701z" />
    <glyph glyph-name="uni042B" unicode="&#x42b;" horiz-adv-x="1271" 
d="M172 0v1434h66v-617h241q190 0 292.5 -105t102.5 -300q0 -198 -102.5 -305t-292.5 -107h-307zM1034 0v1434h66v-1434h-66zM238 63h241q163 0 246.5 88t83.5 261q0 170 -83.5 257t-246.5 87h-241v-693z" />
    <glyph glyph-name="uni042C" unicode="&#x42c;" horiz-adv-x="937" 
d="M172 0v1434h66v-611h251q191 0 294.5 -106t103.5 -301q0 -199 -103.5 -307.5t-294.5 -108.5h-317zM238 61h251q163 0 247.5 89.5t84.5 265.5q0 171 -84.5 258.5t-247.5 87.5h-251v-701z" />
    <glyph glyph-name="uni042D" unicode="&#x42d;" horiz-adv-x="960" 
d="M467 1458q167 0 263.5 -108.5t96.5 -313.5v-639q0 -205 -97.5 -313.5t-264.5 -108.5q-174 0 -272.5 100t-110.5 292h63q27 -330 320 -330q139 0 218 91t79 269v308h-467v61h467v270q0 178 -78.5 269.5t-216.5 91.5q-284 0 -311 -330h-66q13 193 109.5 292t267.5 99z" />
    <glyph glyph-name="uni042E" unicode="&#x42e;" horiz-adv-x="1423" 
d="M905 1454q181 0 283 -113t102 -325v-600q0 -211 -102 -323.5t-283 -112.5t-284 112.5t-103 323.5v282h-280v-698h-66v1434h66v-672h280v254q0 212 103 325t284 113zM1225 416v600q0 186 -84 281.5t-236 95.5q-153 0 -237 -95.5t-84 -281.5v-600q0 -185 84 -280t237 -95
q152 0 236 95.5t84 279.5z" />
    <glyph glyph-name="uni042F" unicode="&#x42f;" horiz-adv-x="960" 
d="M74 0l375 594q-157 14 -248.5 123t-91.5 295q0 201 107 311.5t284 110.5h288v-1434h-65v592h-199l-372 -592h-78zM498 653h225v719h-223q-153 0 -239.5 -90.5t-86.5 -267.5q0 -176 86.5 -268.5t237.5 -92.5z" />
    <glyph glyph-name="uni0430" unicode="&#x430;" horiz-adv-x="892" 
d="M446 1090q141 0 219 -86t78 -240v-764h-57l-4 129q-35 -72 -106 -112t-175 -40q-137 0 -219 86.5t-82 237.5q0 149 92.5 230t262.5 81h227v152q0 128 -61.5 197t-176.5 69q-108 0 -176 -62t-71 -157h-64q8 123 92 201t221 78zM410 39q133 0 202.5 73t69.5 205v236h-227
q-142 0 -216.5 -65.5t-74.5 -186.5q0 -123 66 -192.5t180 -69.5z" />
    <glyph glyph-name="uni0431" unicode="&#x431;" horiz-adv-x="919" 
d="M502 1024q140 0 217.5 -98t77.5 -275v-323q0 -160 -87 -254t-237 -94t-238 94t-88 254v639q0 295 322 391q85 26 133 57.5t78 93.5l51 -34q-31 -72 -92.5 -112.5t-151.5 -68.5q-61 -18 -106 -41t-86 -60t-62.5 -94t-21.5 -132v-131q39 92 116 140t175 48zM733 328v315
q0 156 -62.5 238t-178.5 82q-120 0 -200.5 -85.5t-80.5 -244.5v-305q0 -134 69.5 -210.5t192.5 -76.5t191.5 76.5t68.5 210.5z" />
    <glyph glyph-name="uni0432" unicode="&#x432;" horiz-adv-x="864" 
d="M582 571q93 -31 146.5 -102t53.5 -170q0 -143 -87.5 -221t-248.5 -78h-299v1067h283q140 0 219.5 -72.5t79.5 -195.5q0 -73 -38 -132t-109 -96zM211 1006v-412h238q90 0 153.5 59.5t63.5 145.5q0 95 -62 151t-174 56h-219zM446 61q133 0 203 61t70 177q0 106 -71.5 169.5
t-190.5 63.5h-246v-471h235z" />
    <glyph glyph-name="uni0433" unicode="&#x433;" horiz-adv-x="671" 
d="M639 1067v-59h-428v-1008h-64v1067h492z" />
    <glyph glyph-name="uni0434" unicode="&#x434;" horiz-adv-x="892" 
d="M0 -236v297h66q60 59 91.5 169.5t43.5 295.5q17 251 20 541h512v-1006h113v-297h-60v236h-725v-236h-61zM147 61h521v947h-383q-6 -243 -21 -486q-12 -176 -39 -285.5t-78 -175.5z" />
    <glyph glyph-name="uni0435" unicode="&#x435;" horiz-adv-x="888" 
d="M717 317h63q-15 -158 -101 -247.5t-239 -89.5q-147 0 -233 93.5t-86 252.5v417q0 159 86 253t233 94q149 0 235.5 -94t86.5 -253v-241h-578v-176q0 -132 68 -208.5t188 -76.5q125 0 194 72t83 204zM440 1028q-120 0 -188 -76.5t-68 -208.5v-184h516v184
q0 132 -69.5 208.5t-190.5 76.5z" />
    <glyph glyph-name="uni0436" unicode="&#x436;" horiz-adv-x="1202" 
d="M1106 0l-365 555l-108 -137v-418h-62v416l-110 139l-365 -555h-73l399 602l-365 465h76l242 -311l196 -252v563h62v-559q33 41 97 125t97 125l242 309h78l-367 -465l402 -602h-76z" />
    <glyph glyph-name="uni0437" unicode="&#x437;" horiz-adv-x="786" 
d="M498 563q102 -24 156.5 -95t54.5 -173q0 -135 -92.5 -226.5t-235.5 -91.5q-140 0 -229.5 88t-94.5 224h62q6 -111 77 -180.5t185 -69.5q117 0 190.5 73t73.5 185q0 101 -71 167t-203 66h-152v60h150q117 0 178 62t61 155q0 94 -62 156.5t-169 62.5q-111 0 -169.5 -64
t-64.5 -180h-61q5 140 81 222.5t214 82.5q129 0 211 -81t82 -199q0 -91 -48 -156.5t-124 -87.5z" />
    <glyph glyph-name="uni0438" unicode="&#x438;" horiz-adv-x="913" 
d="M147 0v1067h64v-750q0 -149 -2 -200l2 -2q32 77 84 170l405 784h66v-1069h-61v713q0 109 4 245l-2 3q-35 -77 -97 -199l-401 -762h-62z" />
    <glyph glyph-name="uni0439" unicode="&#x439;" horiz-adv-x="913" 
d="M459 1237q-93 0 -150.5 59t-58.5 158h59q1 -78 40 -120t110 -42q70 0 108.5 42t40.5 120h60q-1 -100 -58 -158.5t-151 -58.5zM147 0v1067h64v-750q0 -149 -2 -200l2 -2q32 77 84 170l405 784h66v-1069h-61v713q0 109 4 245l-2 3q-35 -77 -97 -199l-401 -762h-62z" />
    <glyph glyph-name="uni043A" unicode="&#x43a;" horiz-adv-x="823" 
d="M801 0h-76l-393 559l-121 -145v-414h-64v1067h64v-561l158 190l305 371h80l-381 -457z" />
    <glyph glyph-name="uni043B" unicode="&#x43b;" horiz-adv-x="870" 
d="M27 -16v61q121 0 155 305q26 259 31 717h508v-1067h-62v1008h-383q-11 -460 -32 -668q-35 -356 -217 -356z" />
    <glyph glyph-name="uni043C" unicode="&#x43c;" horiz-adv-x="1089" 
d="M874 1067h68v-1067h-61v733q0 40 1 112t1 107q-5 -11 -40 -89.5t-55 -119.5l-208 -442h-68l-211 442q-9 20 -41.5 95t-50.5 114h-2q0 -35 1 -107t1 -112v-733h-62v1067h70l285 -604l43 -94q7 16 21.5 47t21.5 47z" />
    <glyph glyph-name="uni043D" unicode="&#x43d;" horiz-adv-x="894" 
d="M684 1067h64v-1067h-64v528h-473v-528h-64v1067h64v-479h473v479z" />
    <glyph glyph-name="uni043E" unicode="&#x43e;" horiz-adv-x="897" 
d="M449 -23q-152 0 -240 95t-88 256v413q0 160 88 254.5t240 94.5q150 0 237.5 -94.5t87.5 -254.5v-413q0 -160 -87.5 -255.5t-237.5 -95.5zM449 39q123 0 192.5 77.5t69.5 211.5v413q0 134 -69.5 210.5t-192.5 76.5t-194 -77t-71 -210v-413q0 -134 71 -211.5t194 -77.5z
" />
    <glyph glyph-name="uni043F" unicode="&#x43f;" horiz-adv-x="894" 
d="M748 1067v-1067h-64v1008h-473v-1008h-64v1067h601z" />
    <glyph glyph-name="uni0440" unicode="&#x440;" horiz-adv-x="913" 
d="M489 1090q130 0 216 -97.5t86 -255.5v-409q0 -157 -88 -254t-224 -97q-83 0 -156.5 42t-111.5 114v-502h-64v1436h58l4 -156q37 85 110 132t170 47zM727 328v409q0 136 -70 214.5t-182 78.5q-108 0 -186 -85.5t-78 -233.5v-398q0 -117 73 -196.5t183 -79.5
q117 0 188.5 78.5t71.5 212.5z" />
    <glyph glyph-name="uni0441" unicode="&#x441;" horiz-adv-x="862" 
d="M440 -20q-147 0 -233 93.5t-86 252.5v417q0 159 84.5 253t228.5 94q150 0 236 -95.5t88 -261.5h-64q-2 140 -69.5 217.5t-190.5 77.5q-117 0 -183.5 -76.5t-66.5 -208.5v-417q0 -132 68 -208.5t188 -76.5q122 0 190.5 78.5t69.5 220.5h64q-1 -168 -87.5 -264t-236.5 -96z
" />
    <glyph glyph-name="uni0442" unicode="&#x442;" horiz-adv-x="684" 
d="M645 1067v-57h-272v-1010h-64v1010h-270v57h606z" />
    <glyph glyph-name="uni0443" unicode="&#x443;" horiz-adv-x="765" 
d="M666 1067h65l-379 -1231q-31 -99 -79.5 -155t-125.5 -56h-57v60h51q54 0 89.5 42.5t62.5 122.5l78 254l-336 963h67l299 -864z" />
    <glyph glyph-name="uni0444" unicode="&#x444;" horiz-adv-x="1239" 
d="M748 1079q171 0 269.5 -103.5t98.5 -287.5v-311q0 -182 -98.5 -285.5t-269.5 -103.5h-97v-357h-63v357h-96q-171 0 -271 103.5t-100 285.5v311q0 183 100 287t271 104h96v367h63v-367h97zM492 49h96v971h-96q-146 0 -227 -86.5t-81 -245.5v-311q0 -156 81.5 -242
t226.5 -86zM1055 377v311q0 159 -81 245.5t-226 86.5h-97v-971h97q145 0 226 86t81 242z" />
    <glyph glyph-name="uni0445" unicode="&#x445;" horiz-adv-x="739" 
d="M713 0h-74l-268 485l-273 -485h-71l307 539l-295 528h72l260 -469l258 469h71l-292 -528z" />
    <glyph glyph-name="uni0446" unicode="&#x446;" horiz-adv-x="909" 
d="M795 -236v236h-648v1067h64v-1008h469v1008h61v-1008h115v-295h-61z" />
    <glyph glyph-name="uni0447" unicode="&#x447;" horiz-adv-x="837" 
d="M627 1067h61v-1067h-61v442q-108 -59 -238 -59q-147 0 -230 94.5t-83 255.5v334h61v-334q0 -133 69.5 -211t188.5 -78q135 0 232 70v553z" />
    <glyph glyph-name="uni0448" unicode="&#x448;" horiz-adv-x="1370" 
d="M1159 1067h64v-1067h-1088v1067h62v-1008h450v1008h64v-1008h448v1008z" />
    <glyph glyph-name="uni0449" unicode="&#x449;" horiz-adv-x="1398" 
d="M1233 59h113v-295h-58v236h-1141v1067h64v-1008h448v1008h64v-1008h446v1008h64v-1008z" />
    <glyph glyph-name="uni044A" unicode="&#x44a;" horiz-adv-x="899" 
d="M532 670q145 0 236.5 -95t91.5 -241q0 -144 -91 -239t-237 -95h-282v1010h-211v57h274v-397h219zM532 59q121 0 193 77t72 198t-72 197.5t-193 76.5h-219v-549h219z" />
    <glyph glyph-name="uni044B" unicode="&#x44b;" horiz-adv-x="1132" 
d="M430 657q145 0 236.5 -93t91.5 -234q0 -143 -91 -236.5t-237 -93.5h-283v1065h64v-408h219zM922 1065h63v-1065h-63v1065zM430 59q121 0 192.5 76t71.5 195q0 118 -71.5 192t-192.5 74h-219v-537h219z" />
    <glyph glyph-name="uni044C" unicode="&#x44c;" horiz-adv-x="796" 
d="M430 670q145 0 236.5 -95t91.5 -241q0 -144 -91 -239t-237 -95h-283v1067h64v-397h219zM430 59q121 0 192.5 77t71.5 198t-71.5 197.5t-192.5 76.5h-219v-549h219z" />
    <glyph glyph-name="uni044D" unicode="&#x44d;" horiz-adv-x="862" 
d="M428 1090q144 0 228.5 -94t84.5 -253v-417q0 -159 -86 -252.5t-233 -93.5q-149 0 -234 95.5t-90 264.5h64q5 -143 72 -221t188 -78q120 0 188 76.5t68 208.5v190h-420v57h420v170q0 132 -66.5 208.5t-183.5 76.5q-121 0 -187 -77t-71 -218h-64q5 167 89.5 262t232.5 95z
" />
    <glyph glyph-name="uni044E" unicode="&#x44e;" horiz-adv-x="1214" 
d="M770 1090q149 0 235.5 -94.5t86.5 -254.5v-413q0 -160 -86.5 -254t-235.5 -94q-150 0 -237 94t-87 254v198h-235v-526h-64v1067h64v-481h235v155q0 160 87 254.5t237 94.5zM1028 328v413q0 134 -68.5 210.5t-189.5 76.5q-123 0 -191.5 -76.5t-68.5 -210.5v-413
q0 -134 68.5 -210.5t191.5 -76.5q121 0 189.5 76.5t68.5 210.5z" />
    <glyph glyph-name="uni044F" unicode="&#x44f;" horiz-adv-x="798" 
d="M395 1067h271v-1067h-64v426h-219l-268 -426h-74l274 430q-107 15 -174 105t-67 215q0 139 87.5 228t233.5 89zM602 483v525h-207q-119 0 -188.5 -71.5t-69.5 -186.5q0 -117 66 -192t174 -75h225z" />
    <glyph glyph-name="uni0451" unicode="&#x451;" horiz-adv-x="888" 
d="M336 1278q-28 0 -44 15.5t-16 41.5q0 28 16 44t44 16q26 0 41.5 -16t15.5 -44q0 -26 -15.5 -41.5t-41.5 -15.5zM551 1278q-28 0 -43.5 15.5t-15.5 41.5q0 28 15.5 44t43.5 16q26 0 41.5 -16t15.5 -44q0 -26 -15.5 -41.5t-41.5 -15.5zM717 317h63q-15 -158 -101 -247.5
t-239 -89.5q-147 0 -233 93.5t-86 252.5v417q0 159 86 253t233 94q149 0 235.5 -94t86.5 -253v-241h-578v-176q0 -132 68 -208.5t188 -76.5q125 0 194 72t83 204zM440 1028q-120 0 -188 -76.5t-68 -208.5v-184h516v184q0 132 -69.5 208.5t-190.5 76.5z" />
    <glyph glyph-name="uni0452" unicode="&#x452;" horiz-adv-x="944" 
d="M539 1090q130 0 200 -103t70 -305v-733q0 -162 -78 -251.5t-231 -92.5v59q248 9 248 285v731q0 350 -222 350q-125 0 -204.5 -104t-79.5 -273v-653h-64v1264h-168v53h168v162h64v-162h250v-53h-250v-379q42 95 120 150t177 55z" />
    <glyph glyph-name="uni0453" unicode="&#x453;" horiz-adv-x="671" 
d="M508 1454l-170 -217h-62l156 217h76zM639 1067v-59h-428v-1008h-64v1067h492z" />
    <glyph glyph-name="uni0454" unicode="&#x454;" horiz-adv-x="862" 
d="M700 340h64q-5 -169 -90 -264.5t-234 -95.5q-147 0 -233 93.5t-86 252.5v417q0 159 84.5 253t228.5 94q148 0 232.5 -95t89.5 -262h-64q-5 141 -71 218t-187 77q-117 0 -183.5 -76.5t-66.5 -208.5v-170h420v-57h-420v-190q0 -132 68 -208.5t188 -76.5q121 0 188 78
t72 221z" />
    <glyph glyph-name="uni0455" unicode="&#x455;" horiz-adv-x="796" 
d="M408 -23q-148 0 -235 82t-91 230h61q6 -125 74 -187.5t191 -62.5q104 0 172.5 57t68.5 152q0 62 -30.5 109.5t-79.5 78.5t-108 57.5t-118.5 55t-108.5 63t-79.5 89.5t-30.5 126q0 116 82.5 189.5t210.5 73.5q135 0 217 -76.5t86 -206.5h-63q-3 107 -66 165t-174 58
q-101 0 -165 -56t-64 -149q0 -60 30.5 -105.5t79.5 -75.5t107.5 -56.5t117.5 -55.5t108 -64t79.5 -92t30.5 -130q0 -118 -87 -193.5t-216 -75.5z" />
    <glyph glyph-name="uni0456" unicode="&#x456;" horiz-adv-x="358" 
d="M180 1274q-29 0 -47 18t-18 47t18 46.5t47 17.5t46.5 -17.5t17.5 -46.5t-17.5 -47t-46.5 -18zM147 0v1067h64v-1067h-64z" />
    <glyph glyph-name="uni0457" unicode="&#x457;" horiz-adv-x="409" 
d="M98 1282q-27 0 -42 15t-15 42q0 26 15.5 42t41.5 16q27 0 42.5 -15.5t15.5 -42.5q0 -57 -58 -57zM311 1282q-59 0 -59 57q0 27 16 42.5t43 15.5q26 0 42 -16t16 -42q0 -27 -15.5 -42t-42.5 -15zM172 0v1067h64v-1067h-64z" />
    <glyph glyph-name="uni0458" unicode="&#x458;" horiz-adv-x="436" 
d="M223 1274q-29 0 -47 17t-18 46t18 47.5t47 18.5t47.5 -18.5t18.5 -47.5t-18 -46t-48 -17zM-55 -387v59q248 9 248 271v1124h63v-1124q0 -152 -79 -239.5t-232 -90.5z" />
    <glyph glyph-name="uni0459" unicode="&#x459;" horiz-adv-x="1306" 
d="M27 -16v61q125 0 155 305q26 259 31 717h508v-410h221q145 0 236.5 -93t91.5 -234q0 -142 -91.5 -236t-236.5 -94h-283v1008h-383q-11 -460 -32 -668q-35 -356 -217 -356zM721 59h221q120 0 192 76t72 195q0 117 -72 191.5t-192 74.5h-221v-537z" />
    <glyph glyph-name="uni045A" unicode="&#x45a;" horiz-adv-x="1331" 
d="M965 621q144 0 235.5 -88t91.5 -220q0 -135 -90.5 -224t-236.5 -89h-281v561h-473v-561h-64v1067h64v-446h473v446h61v-446h220zM965 59q121 0 192.5 71.5t71.5 182.5q0 108 -71.5 178t-192.5 70h-220v-502h220z" />
    <glyph glyph-name="uni045B" unicode="&#x45b;" horiz-adv-x="925" 
d="M520 1090q131 0 202 -103t71 -305v-682h-64v680q0 350 -221 350q-126 0 -205.5 -104t-79.5 -273v-653h-63v1262h-127v55h127v162h63v-162h215v-55h-215v-375q43 95 121 149t176 54z" />
    <glyph glyph-name="uni045C" unicode="&#x45c;" horiz-adv-x="823" 
d="M549 1454l-170 -217h-62l156 217h76zM801 0h-76l-393 559l-121 -145v-414h-64v1067h64v-561l158 190l305 371h80l-381 -457z" />
    <glyph glyph-name="uni045D" unicode="&#x45d;" horiz-adv-x="913" 
d="M309 1454h76l156 -217h-62zM147 0v1067h64v-750q0 -149 -2 -200l2 -2q32 77 84 170l405 784h66v-1069h-61v713q0 109 4 245l-2 3q-35 -77 -97 -199l-401 -762h-62z" />
    <glyph glyph-name="uni045E" unicode="&#x45e;" horiz-adv-x="765" 
d="M381 1237q-93 0 -150.5 59t-58.5 158h59q1 -78 40 -120t110 -42q70 0 108.5 42t40.5 120h60q-1 -100 -58 -158.5t-151 -58.5zM666 1067h65l-379 -1231q-31 -99 -79.5 -155t-125.5 -56h-57v60h51q54 0 89.5 42.5t62.5 122.5l78 254l-336 963h67l299 -864z" />
    <glyph glyph-name="uni045F" unicode="&#x45f;" horiz-adv-x="892" 
d="M743 1067v-1067h-264v-236h-61v236h-271v1067h64v-1008h471v1008h61z" />
    <glyph glyph-name="uni0490" unicode="&#x490;" horiz-adv-x="798" 
d="M688 1620h62v-248h-512v-1372h-66v1434h516v186z" />
    <glyph glyph-name="uni0491" unicode="&#x491;" horiz-adv-x="671" 
d="M578 1266h61v-258h-428v-1008h-64v1067h431v199z" />
    <glyph glyph-name="Wgrave" unicode="&#x1e80;" horiz-adv-x="1376" 
d="M754 1579h-64l-196 217h81zM1278 1434h70l-310 -1434h-75l-213 969q-31 156 -60 336h-2q-25 -155 -61 -336l-213 -969h-76l-309 1434h69l215 -1039q59 -284 62 -301h2q17 87 63 307l211 1012h74l209 -991q9 -47 32 -163t33 -165h2q9 48 33 162t33 158z" />
    <glyph glyph-name="wgrave" unicode="&#x1e81;" horiz-adv-x="1208" 
d="M684 1235h-61l-170 217h75zM1106 1067h65l-266 -1067h-67l-191 756q-19 78 -43 196h-2q-9 -57 -43 -196l-190 -756h-68l-266 1067h65l181 -756q6 -23 53 -235h2q33 156 55 248l178 723h68l178 -723q10 -41 29.5 -128t27.5 -120q7 28 16 67.5t20.5 90t17.5 77.5z" />
    <glyph glyph-name="Wacute" unicode="&#x1e82;" horiz-adv-x="1376" 
d="M612 1579l179 217h81l-196 -217h-64zM1278 1434h70l-310 -1434h-75l-213 969q-31 156 -60 336h-2q-25 -155 -61 -336l-213 -969h-76l-309 1434h69l215 -1039q59 -284 62 -301h2q17 87 63 307l211 1012h74l209 -991q9 -47 32 -163t33 -165h2q9 48 33 162t33 158z" />
    <glyph glyph-name="wacute" unicode="&#x1e83;" horiz-adv-x="1208" 
d="M743 1452l-170 -217h-61l156 217h75zM1106 1067h65l-266 -1067h-67l-191 756q-19 78 -43 196h-2q-9 -57 -43 -196l-190 -756h-68l-266 1067h65l181 -756q6 -23 53 -235h2q33 156 55 248l178 723h68l178 -723q10 -41 29.5 -128t27.5 -120q7 28 16 67.5t20.5 90t17.5 77.5z
" />
    <glyph glyph-name="Wdieresis" unicode="&#x1e84;" horiz-adv-x="1376" 
d="M571 1647q-27 0 -42 15t-15 42t15 42t42 15q28 0 44 -15t16 -42t-16 -42t-44 -15zM809 1647q-27 0 -43 15t-16 42t16 42t43 15q59 0 59 -57t-59 -57zM1278 1434h70l-310 -1434h-75l-213 969q-31 156 -60 336h-2q-25 -155 -61 -336l-213 -969h-76l-309 1434h69l215 -1039
q59 -284 62 -301h2q17 87 63 307l211 1012h74l209 -991q9 -47 32 -163t33 -165h2q9 48 33 162t33 158z" />
    <glyph glyph-name="wdieresis" unicode="&#x1e85;" horiz-adv-x="1208" 
d="M496 1278q-28 0 -44 15.5t-16 41.5q0 28 16 44t44 16q26 0 41.5 -16t15.5 -44q0 -26 -15.5 -41.5t-41.5 -15.5zM711 1278q-28 0 -44 15.5t-16 41.5q0 28 16 44t44 16q26 0 41.5 -16t15.5 -44q0 -26 -15.5 -41.5t-41.5 -15.5zM1106 1067h65l-266 -1067h-67l-191 756
q-19 78 -43 196h-2q-9 -57 -43 -196l-190 -756h-68l-266 1067h65l181 -756q6 -23 53 -235h2q33 156 55 248l178 723h68l178 -723q10 -41 29.5 -128t27.5 -120q7 28 16 67.5t20.5 90t17.5 77.5z" />
    <glyph glyph-name="Ygrave" unicode="&#x1ef2;" horiz-adv-x="831" 
d="M477 1579h-63l-197 217h82zM383 0v535l-365 899h70l250 -623q56 -137 78 -195q13 33 38.5 97.5t37.5 97.5l249 623h70l-362 -899v-535h-66z" />
    <glyph glyph-name="ygrave" unicode="&#x1ef3;" horiz-adv-x="765" 
d="M463 1237h-62l-170 217h76zM666 1067h65l-379 -1231q-31 -99 -79.5 -155t-125.5 -56h-57v60h51q54 0 89.5 42.5t62.5 122.5l78 254l-336 963h67l299 -864z" />
    <glyph glyph-name="endash" unicode="&#x2013;" horiz-adv-x="888" 
d="M100 494v61h688v-61h-688z" />
    <glyph glyph-name="emdash" unicode="&#x2014;" horiz-adv-x="1134" 
d="M100 555h934v-61h-934v61z" />
    <glyph glyph-name="quoteleft" unicode="&#x2018;" horiz-adv-x="219" 
d="M137 1065h-86l74 371h51z" />
    <glyph glyph-name="quoteright" unicode="&#x2019;" horiz-adv-x="219" 
d="M84 1436h86l-76 -371h-49z" />
    <glyph glyph-name="quotesinglbase" unicode="&#x201a;" horiz-adv-x="262" 
d="M106 117h89l-76 -371h-49z" />
    <glyph glyph-name="quotedblleft" unicode="&#x201c;" horiz-adv-x="395" 
d="M137 1063h-86l74 371h51zM311 1063h-86l76 371h49z" />
    <glyph glyph-name="quotedblright" unicode="&#x201d;" horiz-adv-x="395" 
d="M84 1434h86l-76 -371h-49zM258 1434h86l-74 -371h-51z" />
    <glyph glyph-name="quotedblbase" unicode="&#x201e;" horiz-adv-x="262" 
d="M106 117h89l-76 -371h-49z" />
    <glyph glyph-name="dagger" unicode="&#x2020;" horiz-adv-x="714" 
d="M653 1036v-61h-264v-1172h-63v1172h-256v61h256v406h63v-406h264z" />
    <glyph glyph-name="daggerdbl" unicode="&#x2021;" horiz-adv-x="724" 
d="M659 975h-260v-637h260v-62h-260v-473h-63v473h-262v62h262v637h-262v61h262v406h63v-406h260v-61z" />
    <glyph glyph-name="bullet" unicode="&#x2022;" horiz-adv-x="380" 
d="M188 410q-44 0 -73 29t-29 73q0 47 28.5 76.5t73.5 29.5q47 0 76 -29.5t29 -76.5q0 -45 -29 -73.5t-76 -28.5z" />
    <glyph glyph-name="ellipsis" unicode="&#x2026;" horiz-adv-x="944" 
d="M174 -16q-29 0 -46 17t-17 46t17 45.5t46 16.5q28 0 45 -16.5t17 -45.5t-17 -46t-45 -17zM471 -16q-28 0 -44.5 17t-16.5 46t16.5 45.5t44.5 16.5q29 0 46.5 -16.5t17.5 -45.5t-17.5 -46t-46.5 -17zM770 -16q-29 0 -45 17t-16 46t16 45.5t45 16.5t46.5 -16.5t17.5 -45.5
t-17.5 -46t-46.5 -17z" />
    <glyph glyph-name="perthousand" unicode="&#x2030;" horiz-adv-x="1720" 
d="M264 813q-78 0 -125 51t-47 133v267q0 82 47.5 134t124.5 52q81 0 127.5 -51.5t46.5 -134.5v-267q0 -83 -46.5 -133.5t-127.5 -50.5zM63 0l1024 1434h64l-1024 -1434h-64zM264 864q57 0 88 36t31 97v267q0 61 -31 97t-88 36q-55 0 -87 -36.5t-32 -96.5v-267
q0 -60 32 -96.5t87 -36.5zM952 -16q-76 0 -124 52t-48 134v266q0 82 48 133.5t124 51.5q81 0 127.5 -51t46.5 -134v-266q0 -83 -46.5 -134.5t-127.5 -51.5zM1436 -16q-77 0 -124.5 52t-47.5 134v266q0 82 47 133.5t125 51.5q81 0 127.5 -51t46.5 -134v-266
q0 -83 -46.5 -134.5t-127.5 -51.5zM952 37q57 0 88 36t31 97v266q0 61 -31 97t-88 36q-55 0 -86.5 -36t-31.5 -97v-266q0 -61 31.5 -97t86.5 -36zM1436 37q57 0 87.5 36t30.5 97v266q0 61 -30.5 97t-87.5 36q-55 0 -87 -36.5t-32 -96.5v-266q0 -60 32 -96.5t87 -36.5z" />
    <glyph glyph-name="guilsinglleft" unicode="&#x2039;" horiz-adv-x="536" 
d="M367 184l-267 324v37l267 323h69l-282 -342l282 -342h-69z" />
    <glyph glyph-name="guilsinglright" unicode="&#x203a;" horiz-adv-x="536" 
d="M170 184h-70l283 342l-283 342h70l266 -323v-37z" />
    <glyph glyph-name="fraction" unicode="&#x2044;" horiz-adv-x="1110" 
d="M35 0l973 1434h67l-973 -1434h-67z" />
    <glyph glyph-name="Euro" unicode="&#x20ac;" horiz-adv-x="1091" 
d="M946 367h64q-12 -192 -111 -292t-272 -100q-168 0 -265.5 108.5t-97.5 313.5v168h-168v56h168v190h-168v55h168v170q0 205 97 313.5t262 108.5q172 0 267.5 -99t110.5 -292h-65q-27 330 -313 330q-138 0 -216.5 -91.5t-78.5 -269.5v-170h407v-55h-407v-190h407v-56h-407
v-168q0 -178 80 -269t219 -91q292 0 319 330z" />
    <glyph glyph-name="trademark" unicode="&#x2122;" horiz-adv-x="940" 
d="M80 1393v41h289v-41h-123v-494h-43v494h-123zM799 1434h49v-535h-43v303q0 27 1 81t1 73v2q-7 -15 -24.5 -51.5t-26.5 -55.5l-94 -209h-44l-96 209q-24 55 -49 107v-2v-154v-303h-41v535h49l113 -242l45 -105q7 15 23.5 52.5t23.5 52.5z" />
    <glyph glyph-name="partialdiff" unicode="&#x2202;" horiz-adv-x="890" 
d="M330 1493q90 -25 165.5 -72.5t138.5 -122t98.5 -185.5t35.5 -247v-538q0 -160 -88.5 -254t-243.5 -94q-146 0 -230.5 94t-84.5 254v364q0 158 84 253t225 95q92 0 164 -40.5t113 -110.5q-6 218 -110 355.5t-288 191.5zM705 328v364q0 132 -71 209.5t-194 77.5
q-119 0 -187.5 -77t-68.5 -210v-364q0 -134 68 -210.5t188 -76.5q124 0 194.5 76.5t70.5 210.5z" />
    <glyph glyph-name="emptyset" unicode="&#x2205;" horiz-adv-x="1654" 
d="M1321 1264q101 -98 155 -237.5t54 -309.5q0 -218 -88 -384.5t-248 -257.5t-369 -91q-269 0 -454 149l-181 -213h-65l209 248q-213 204 -213 549q0 218 87.5 384.5t247.5 257.5t369 91q272 0 459 -154l182 217h66zM178 717q0 -157 49.5 -286.5t141.5 -219.5l880 1044
q-175 142 -424 142q-292 0 -469.5 -187t-177.5 -493zM825 37q293 0 471.5 187t178.5 493q0 156 -49 284.5t-140 219.5l-880 -1045q175 -139 419 -139z" />
    <glyph glyph-name="product" unicode="&#x220f;" horiz-adv-x="1001" 
d="M172 -201v1635h657v-1637h-63v1575h-528v-1573h-66z" />
    <glyph glyph-name="summation" unicode="&#x2211;" horiz-adv-x="774" 
d="M96 -2v57l367 662l-367 661v58h582v-60h-514l356 -631v-57l-356 -631h514v-59h-582z" />
    <glyph glyph-name="minus" unicode="&#x2212;" horiz-adv-x="866" 
d="M106 602v60h654v-60h-654z" />
    <glyph glyph-name="radical" unicode="&#x221a;" horiz-adv-x="962" 
d="M924 1630l-373 -1630h-109l-227 961h-168v61h219l232 -954l362 1562h64z" />
    <glyph glyph-name="infinity" unicode="&#x221e;" horiz-adv-x="1306" 
d="M920 801q115 0 189.5 -82.5t74.5 -206.5q0 -127 -73.5 -207t-188.5 -80q-105 0 -165.5 56.5t-103.5 158.5q-21 -49 -42 -83t-52.5 -66.5t-75.5 -49t-100 -16.5q-113 0 -187.5 80t-74.5 207q0 124 75.5 206.5t190.5 82.5q44 0 81 -12t63.5 -30t50 -47t39 -56t32.5 -64
q21 47 41.5 79.5t51.5 64.5t75 48.5t99 16.5zM383 283q40 0 73.5 13.5t56 32.5t44 53.5t34 60.5t30.5 71q-18 44 -30.5 70.5t-34 60t-43.5 52t-54.5 31.5t-71.5 13q-93 0 -148 -63.5t-55 -165.5q0 -101 54.5 -165t144.5 -64zM922 283q90 0 145 64t55 165q0 102 -55 165.5
t-147 63.5q-49 0 -86 -17t-65 -54t-44 -68.5t-39 -87.5q23 -56 39.5 -88t44.5 -70t65.5 -55.5t86.5 -17.5z" />
    <glyph glyph-name="integral" unicode="&#x222b;" horiz-adv-x="641" 
d="M45 -385v61q244 6 244 252v1207q0 147 78 227.5t231 83.5v-60q-127 -4 -186.5 -66.5t-59.5 -184.5v-1207q0 -146 -78 -227.5t-229 -85.5z" />
    <glyph glyph-name="approxequal" unicode="&#x2248;" horiz-adv-x="894" 
d="M743 813l37 -43q-66 -115 -164 -115q-48 0 -110.5 28.5t-121 56.5t-97.5 28q-74 0 -137 -96l-33 47q68 108 166 108q49 0 112.5 -28t122.5 -56t98 -28q70 0 127 98zM743 549l37 -43q-66 -115 -164 -115q-48 0 -110.5 28.5t-121 56.5t-97.5 28q-74 0 -137 -96l-33 45
q69 110 166 110q49 0 112.5 -28t122.5 -56t98 -28q70 0 127 98z" />
    <glyph glyph-name="notequal" unicode="&#x2260;" horiz-adv-x="894" 
d="M774 815h-258l-90 -174h348v-59h-379l-73 -142h-60l74 142h-215v59h246l90 174h-336v59h366l84 164h60l-84 -164h227v-59z" />
    <glyph glyph-name="lessequal" unicode="&#x2264;" horiz-adv-x="770" 
d="M664 1026v-65l-496 -254l496 -256v-66l-558 285v71zM106 201v59h558v-59h-558z" />
    <glyph glyph-name="greaterequal" unicode="&#x2265;" horiz-adv-x="770" 
d="M106 1026l558 -285v-71l-558 -285v66l496 256l-496 254v65zM106 201v59h558v-59h-558z" />
    <glyph glyph-name="lozenge" unicode="&#x25ca;" horiz-adv-x="937" 
d="M432 0l-311 694v45l311 695h74l311 -695v-45l-311 -694h-74zM469 55l293 662l-293 661l-291 -661z" />
    <glyph glyph-name="uni0162.ss01" horiz-adv-x="813" 
d="M436 0h-10l-37 -115q18 6 47 6q60 0 98.5 -39t38.5 -100q0 -64 -45.5 -102.5t-119.5 -38.5q-69 0 -117.5 42t-50.5 97h55q4 -41 35.5 -64.5t79.5 -23.5q51 0 81.5 24.5t30.5 67.5q0 42 -27 68t-67 26q-47 0 -76 -16l-20 23l47 145h-8v1372h-322v62h715v-62h-328v-1372z
" />
    <glyph glyph-name="i.loclTRK" horiz-adv-x="358" 
d="M180 1274q-29 0 -47 18t-18 47t18 46.5t47 17.5t46.5 -17.5t17.5 -46.5t-17.5 -47t-46.5 -18zM147 0v1067h64v-1067h-64z" />
    <glyph glyph-name="uni0163.ss01" horiz-adv-x="579" 
d="M475 -6q-53 0 -100 12l-43 -121q18 6 47 6q59 0 98 -39t39 -100q0 -64 -46.5 -102.5t-119.5 -38.5q-70 0 -119 42t-51 97h56q6 -41 36.5 -64.5t77.5 -23.5q51 0 82 24.5t31 67.5q0 42 -26.5 68t-65.5 26q-50 0 -76 -16l-21 23l58 165q-133 62 -133 256v734h-152v57h152
v252h63v-252h242v-57h-242v-734q0 -115 53.5 -169t159.5 -54h45v-59h-45z" />
    <glyph glyph-name="uni0414.loclBGR" horiz-adv-x="942" 
d="M16 -229v290h74l344 1373h76l344 -1373h72v-290h-62v229h-784v-229h-64zM160 61h624l-209 857q-18 74 -52 219.5t-50 212.5h-2q-81 -343 -104 -435z" />
    <glyph glyph-name="uni041B.loclBGR" horiz-adv-x="878" 
d="M399 1434h78l373 -1434h-72l-262 1040q-12 48 -37.5 151.5t-38.5 154.5h-2q-6 -21 -76 -304l-262 -1042h-71z" />
    <glyph glyph-name="hacy.001" horiz-adv-x="739" 
d="M713 0h-74l-268 485l-273 -485h-71l307 539l-295 528h72l260 -469l258 469h71l-292 -528z" />
    <glyph glyph-name="uni0432.loclBGR" horiz-adv-x="886" 
d="M526 784q269 -53 269 -381q0 -201 -93.5 -310t-250.5 -109q-144 0 -227 97t-83 269v754q0 184 81 290.5t227 106.5q139 0 219 -96t80 -262q0 -143 -60.5 -235t-161.5 -124zM446 1440q-115 0 -178 -89.5t-63 -246.5v-316l172 13q82 6 142.5 34.5t96 75t52 104t16.5 126.5
q0 142 -61.5 220.5t-176.5 78.5zM451 45q131 0 205.5 90t74.5 264q0 363 -346 340l-180 -12v-383q0 -142 64.5 -220.5t181.5 -78.5z" />
    <glyph glyph-name="uni0433.loclBGR" horiz-adv-x="792" 
d="M391 -20q-132 0 -218.5 73.5t-86.5 192.5q0 75 30 132.5t78 93t105.5 64.5t115.5 55t106 55.5t78 75t30 105.5q0 92 -63 147.5t-160 55.5q-109 0 -172 -58t-66 -165h-64q3 130 85.5 206.5t216.5 76.5q125 0 205.5 -73.5t80.5 -189.5q0 -62 -23.5 -111.5t-61.5 -80.5
t-86.5 -59.5t-99.5 -49t-99.5 -47.5t-86.5 -55.5t-61.5 -73.5t-23.5 -102q0 -94 69.5 -150.5t171.5 -56.5q240 0 258 248h62q-7 -148 -91.5 -228.5t-228.5 -80.5z" />
    <glyph glyph-name="uni0434.loclBGR" horiz-adv-x="911" 
d="M707 1067h57v-1133q0 -152 -80.5 -238.5t-220.5 -86.5q-146 0 -232.5 79t-95.5 216h62q11 -112 78.5 -174t187.5 -62q113 0 175 69t62 197v234q-38 -69 -106 -108.5t-148 -39.5q-141 0 -233 96.5t-92 252.5v366q0 160 91 257.5t230 97.5q84 0 153 -41t107 -115zM453 80
q107 0 177 75t70 193v412q0 118 -71.5 194t-175.5 76q-118 0 -193.5 -80t-75.5 -215v-366q0 -131 75.5 -210t193.5 -79z" />
    <glyph glyph-name="uni0436.loclBGR" horiz-adv-x="1202" 
d="M1182 0h-74l-381 565l-94 -112v-453h-62v451l-90 108l-6 8l-381 -567h-71l411 614l-381 453h78l440 -526v936h62v-934l143 170l295 354h80l-383 -455z" />
    <glyph glyph-name="uni0437.loclBGR" horiz-adv-x="839" 
d="M496 395q229 -59 229 -389q0 -195 -89 -295t-247 -100q-151 0 -234 91.5t-92 274.5h62q21 -307 262 -307q130 0 203.5 85.5t73.5 250.5q0 166 -75 260t-210 94h-133v62h131q125 0 191.5 82t66.5 217q0 142 -68 224.5t-182 82.5q-109 0 -173 -75.5t-73 -217.5h-61
q8 168 88.5 261.5t220.5 93.5q143 0 226 -99.5t83 -273.5q0 -269 -200 -322z" />
    <glyph glyph-name="uni0438.loclBGR" horiz-adv-x="913" 
d="M702 1067h64v-1067h-57l-7 143v37q-43 -95 -120.5 -149t-175.5 -54q-129 0 -200 100t-71 296v694h64v-688q0 -342 219 -342q124 0 204 104t80 273v653z" />
    <glyph glyph-name="uni0439.loclBGR" horiz-adv-x="913" 
d="M455 1237q-93 0 -150.5 59t-58.5 158h59q1 -78 40 -120t110 -42q70 0 108.5 42t40.5 120h60q-1 -100 -58 -158.5t-151 -58.5zM702 1067h64v-1067h-57l-7 143v37q-43 -95 -120.5 -149t-175.5 -54q-129 0 -200 100t-71 296v694h64v-688q0 -342 219 -342q124 0 204 104
t80 273v653z" />
    <glyph glyph-name="uni045D.loclBGR" horiz-adv-x="925" 
d="M506 1237h-62l-170 217h76zM717 1067h63v-1067h-57l-6 143v37q-43 -95 -121 -149t-176 -54q-129 0 -199.5 100t-70.5 296v694h63v-688q0 -342 219 -342q124 0 204.5 104.5t80.5 272.5v653z" />
    <glyph glyph-name="uni043A.loclBGR" horiz-adv-x="829" 
d="M733 0l-416 571l-106 -118v-453h-64v1481h64v-942l475 528h82l-406 -446l445 -621h-74z" />
    <glyph glyph-name="uni043B.loclBGR" horiz-adv-x="753" 
d="M653 0l-196 694q-10 36 -78 289h-4q-68 -253 -78 -289l-197 -694h-65l309 1067h66l309 -1067h-66z" />
    <glyph glyph-name="uni043F.loclBGR" horiz-adv-x="913" 
d="M508 1090q129 0 199.5 -100t70.5 -296v-694h-63v688q0 342 -219 342q-124 0 -204.5 -104.5t-80.5 -272.5v-653h-64v1067h58l6 -143v-37q43 95 121 149t176 54z" />
    <glyph glyph-name="uni0442.loclBGR" horiz-adv-x="1433" 
d="M1036 1090q126 0 194 -101t68 -297v-692h-63v690q0 340 -209 340q-120 0 -196 -104t-76 -273v-653h-62v690q0 171 -54 255.5t-155 84.5q-120 0 -196 -104t-76 -273v-653h-64v1067h58l6 -149v-29q42 94 115.5 147.5t167.5 53.5q192 0 245 -238q37 110 115.5 174t181.5 64z
" />
    <glyph glyph-name="uni0446.loclBGR" horiz-adv-x="946" 
d="M834 -236v244q-55 25 -88 72.5t-39 109.5q-41 -99 -119 -156t-180 -57q-132 0 -202.5 99t-70.5 299v692h62v-688q0 -342 221 -342q124 0 204 105t80 272v653h62v-827q0 -155 129 -189v-287h-59z" />
    <glyph glyph-name="uni0448.loclBGR" horiz-adv-x="1433" 
d="M1223 1067h63v-1067h-57l-6 150v28q-42 -94 -115.5 -147.5t-167.5 -53.5q-193 0 -246 238q-37 -110 -115.5 -174t-181.5 -64q-126 0 -194 101t-68 297v692h64v-690q0 -340 209 -340q120 0 196 104t76 273v653h61v-690q0 -171 54 -255.5t155 -84.5q120 0 196.5 104
t76.5 273v653z" />
    <glyph glyph-name="uni0449.loclBGR" horiz-adv-x="1460" 
d="M1280 240q0 -79 33.5 -131t95.5 -62v-283h-61v236q-109 52 -125 188q-42 -98 -117.5 -154.5t-171.5 -56.5q-91 0 -153.5 59.5t-88.5 174.5q-38 -108 -115.5 -171t-181.5 -63q-124 0 -192 101.5t-68 296.5v692h62v-688q0 -170 53.5 -256t155.5 -86q119 0 194.5 104.5
t75.5 272.5v653h61v-688q0 -171 54 -256.5t155 -85.5q118 0 194.5 105t76.5 272v653h63v-827z" />
    <glyph glyph-name="uni044C.loclBGR" horiz-adv-x="808" 
d="M461 721q133 0 221 -102t88 -265q0 -169 -90 -273t-229 -104q-138 0 -227 101t-89 264v725h62v-504q36 72 107.5 114t156.5 44zM451 39q113 0 184.5 85t71.5 230q0 139 -72 222t-184 83t-183 -83t-71 -226q0 -142 71.5 -226.5t182.5 -84.5z" />
    <glyph glyph-name="uni044A.loclBGR" horiz-adv-x="913" 
d="M567 721q131 0 219 -102t88 -265q0 -170 -89.5 -273.5t-227.5 -103.5t-227.5 101t-89.5 264v668h-211v57h274v-504q36 72 107.5 114t156.5 44zM557 39q113 0 184.5 85t71.5 230q0 139 -72 222t-184 83t-183 -83t-71 -226q0 -142 71.5 -226.5t182.5 -84.5z" />
    <glyph glyph-name="uni044E.loclBGR" horiz-adv-x="1216" 
d="M772 1087q150 0 237 -94.5t87 -253.5v-411q0 -160 -87 -254t-237 -94t-236.5 94t-86.5 254v198h-234v-526h-63v1477h63v-891h234v153q0 159 86.5 253.5t236.5 94.5zM1032 328v411q0 133 -69.5 210t-190.5 77t-190.5 -77t-69.5 -210v-411q0 -134 69.5 -210.5t190.5 -76.5
t190.5 76.5t69.5 210.5z" />
    <glyph glyph-name="emdash.case" horiz-adv-x="1134" 
d="M100 760h934v-62h-934v62z" />
    <glyph glyph-name="endash.case" horiz-adv-x="888" 
d="M100 698v62h688v-62h-688z" />
    <glyph glyph-name="hyphen.case" horiz-adv-x="684" 
d="M100 698v62h484v-62h-484z" />
    <glyph glyph-name="guillemotleft.case" horiz-adv-x="878" 
d="M367 307l-267 324v37l267 323h69l-282 -342l282 -342h-69zM709 307l-267 324v37l267 323h69l-282 -342l282 -342h-69z" />
    <glyph glyph-name="guillemotright.case" horiz-adv-x="878" 
d="M170 307h-70l283 342l-283 342h70l266 -323v-37zM512 307h-70l283 342l-283 342h70l266 -323v-37z" />
    <glyph glyph-name="guilsinglleft.case" horiz-adv-x="536" 
d="M367 307l-267 324v37l267 323h69l-282 -342l282 -342h-69z" />
    <glyph glyph-name="guilsinglright.case" horiz-adv-x="536" 
d="M170 307h-70l283 342l-283 342h70l266 -323v-37z" />
    <glyph glyph-name="uni0308.case" 
d="M-285 1647q-27 0 -42 15t-15 42t15 42t42 15q28 0 44 -15t16 -42t-16 -42t-44 -15zM-47 1647q-27 0 -43 15t-16 42t16 42t43 15q59 0 59 -57t-59 -57z" />
    <glyph glyph-name="uni0307.case" 
d="M-57 1653q-30 0 -48 17t-18 46q0 30 18 48t48 18q29 0 47 -18t18 -48q0 -29 -18 -46t-47 -17z" />
    <glyph glyph-name="gravecomb.case" 
d="M-6 1579h-64l-196 217h82z" />
    <glyph glyph-name="acutecomb.case" 
d="M-258 1579l178 217h82l-197 -217h-63z" />
    <glyph glyph-name="uni030B.case" 
d="M-176 1798l-168 -217h-59l151 217h76zM16 1798l-174 -217h-59l158 217h75z" />
    <glyph glyph-name="uni0302.case" 
d="M-12 1579h-60l-135 172l-133 -172h-61l157 217h74z" />
    <glyph glyph-name="uni030C.case" 
d="M-68 1796h60l-158 -217h-74l-157 217h61l133 -172z" />
    <glyph glyph-name="uni0306.case" 
d="M-215 1575q-93 0 -150.5 59t-58.5 158h59q1 -78 40 -120t110 -42q70 0 108.5 42t40.5 120h60q-1 -100 -58 -158.5t-151 -58.5z" />
    <glyph glyph-name="uni030A.case" 
d="M-260 1716q0 55 35 89t92 34t93 -34t36 -89q0 -58 -36 -93.5t-93 -35.5t-92 35.5t-35 93.5zM-211 1714q0 -37 21.5 -58.5t56.5 -21.5t56.5 21.5t21.5 58.5q0 34 -21.5 56t-56.5 22t-56.5 -22t-21.5 -56z" />
    <glyph glyph-name="tildecomb.case" 
d="M-289 1731q-28 0 -45 -23.5t-18 -67.5h-60q1 66 34.5 106t86.5 40q30 0 55 -15t40 -33t35 -33t40 -15q28 0 46.5 24.5t19.5 67.5h57q-5 -68 -37 -108t-84 -40q-28 0 -53 15t-40 33.5t-35.5 33.5t-41.5 15z" />
    <glyph glyph-name="uni0304.case" 
d="M-328 1710h342v-59h-342v59z" />
    <glyph glyph-name="uni0312.case" 
d="M-82 1911l72 -332h-88l-33 332h49z" />
    <glyph glyph-name="uni0326.case" 
d="M-147 -463l34 328h84l-63 -328h-55z" />
    <glyph glyph-name="uni0327.case" 
d="M-180 -391q-69 0 -117.5 42t-50.5 99h55q6 -41 37 -65.5t78 -24.5q50 0 80 25t30 69q0 41 -26 66.5t-66 25.5q-46 3 -76 -14l-20 23l47 145h49l-37 -115q18 6 45 6q62 0 102 -38.5t40 -98.5q0 -68 -47 -106.5t-123 -38.5z" />
    <glyph glyph-name="uni0328.case" 
d="M-2 -385q-27 -6 -64 -6q-74 0 -115.5 41.5t-41.5 103.5q0 60 40 125.5t107 120.5h60q-70 -60 -108 -121.5t-38 -114.5q0 -46 30.5 -71t76.5 -25q21 0 53 4v-57z" />
    <glyph glyph-name="uni0337.case" 
d="M-393 -88l332 1202h61l-330 -1202h-63z" />
    <glyph glyph-name="uni0338.case" 
d="M-678 -74l442 1577h62l-444 -1577h-60z" />
    <glyph glyph-name="brevecombcy" 
d="M-215 1237q-93 0 -150.5 59t-58.5 158h59q1 -78 40 -120t110 -42q70 0 108.5 42t40.5 120h60q-1 -100 -58 -158.5t-151 -58.5z" />
    <glyph glyph-name="brevecombcy.case" 
d="M-215 1575q-93 0 -150.5 59t-58.5 158h59q1 -78 40 -120t110 -42q70 0 108.5 42t40.5 120h60q-1 -100 -58 -158.5t-151 -58.5z" />
    </font>
</defs>
</svg>
