<svg xmlns="http://www.w3.org/2000/svg" width="135" height="75" viewBox="0 0 135 75" fill="none">
<g clip-path="url(#clip0)">
<path d="M19.0828 10.9756H16.7305V13.4582H19.0828V10.9756Z" fill="black"/>
<path d="M23.7868 10.9757H26.1391V8.62378H23.7868H21.4344H19.082V10.9757H21.4344H23.7868Z" fill="black"/>
<path d="M28.6219 10.9756H26.2695V13.4582H28.6219V10.9756Z" fill="black"/>
<path d="M30.9735 13.4583H28.6211V15.8102H30.9735V13.4583Z" fill="black"/>
<path d="M33.325 10.9756H30.9727V13.4582H33.325V10.9756Z" fill="black"/>
<path d="M38.1636 8.62378H35.6805H35.4191H33.3281V10.9757H35.4191H35.6805H38.1636H40.5159V8.62378H38.1636Z" fill="black"/>
<path d="M42.868 10.9756H40.5156V13.4582H42.868V10.9756Z" fill="black"/>
<path d="M42.8672 13.4583V15.8102V18.1621V22.9966H45.3503V18.1621V15.8102V13.4583H42.8672Z" fill="black"/>
<path d="M42.868 22.9966H40.5156V25.3485H42.868V22.9966Z" fill="black"/>
<path d="M40.5164 25.3486H38.1641V27.7006H40.5164V25.3486Z" fill="black"/>
<path d="M38.1627 27.7004H35.6797V30.0524H38.1627V27.7004Z" fill="black"/>
<path d="M35.6805 30.0522H33.3281V32.4042H35.6805V30.0522Z" fill="black"/>
<path d="M33.325 32.5349H30.9727V34.8868H33.325V32.5349Z" fill="black"/>
<path d="M30.9735 34.8867H28.6211V37.2386H30.9735V34.8867Z" fill="black"/>
<path d="M28.6219 32.5349H26.2695V34.8868H28.6219V32.5349Z" fill="black"/>
<path d="M26.2682 30.0522H23.7852V32.5348H26.2682V30.0522Z" fill="black"/>
<path d="M23.786 27.7004H21.4336V30.0524H23.786V27.7004Z" fill="black"/>
<path d="M21.4344 25.3486H19.082V27.7006H21.4344V25.3486Z" fill="black"/>
<path d="M19.0828 22.9966H16.7305V25.3485H19.0828V22.9966Z" fill="black"/>
<path d="M16.7292 20.514V18.1621V15.8102V13.4583H14.2461V15.8102V18.1621V20.514V22.8659H16.7292V20.514Z" fill="black"/>
<path d="M19.0828 13.4583H16.7305V15.8102H19.0828V13.4583Z" fill="white"/>
<path d="M40.5156 13.4582V10.9756H38.1632H35.6801H35.1574H33.3278V13.4582H30.9754V15.8101H28.623V13.4582H26.2706V10.9756H23.7876H21.4352V13.4582H19.0828V15.8101H16.7305V22.9965H19.0828V25.3484H21.4352V27.7003H23.7876V30.0522H26.2706V32.5348H28.623V34.8867H30.9754V32.5348H33.3278V30.0522H35.6801V27.7003H38.1632V25.3484H40.5156V22.9965H42.8679V13.4582H40.5156Z" fill="#CE0002"/>
<path d="M21.4344 10.9756H19.082V13.3275H21.4344V10.9756Z" fill="white"/>
<path d="M78.6734 13.4583V10.9757H76.3211V8.62378H73.9687H71.6163H69.2639V10.9757H66.7809V13.4583H64.4285V10.9757H61.9455V8.62378H59.5931H57.2407H54.8883V10.9757H57.2407V13.4583H54.8883V15.8102H52.536V13.4583H54.8883V10.9757H52.536V13.4583H50.1836V15.8102V18.1621V20.514V22.8659H52.536V25.3485H54.8883V22.8659H52.536V20.514H54.8883H57.2407H59.5931H61.9455H64.4285H66.7809H69.1333H71.6163H73.9687H76.3211H78.6734V22.8659H76.3211V25.3485H78.6734V22.8659H81.1565V20.514V18.1621V15.8102V13.4583H78.6734Z" fill="black"/>
<path d="M76.3211 25.3486H73.9688V27.7006H76.3211V25.3486Z" fill="black"/>
<path d="M73.9696 27.7004H71.6172V30.0524H73.9696V27.7004Z" fill="black"/>
<path d="M71.6159 30.0522H69.1328V32.4042H71.6159V30.0522Z" fill="black"/>
<path d="M69.1336 32.4043H66.7812V34.8869H69.1336V32.4043Z" fill="black"/>
<path d="M66.7821 34.8867H64.4297V37.2386H66.7821V34.8867Z" fill="black"/>
<path d="M64.4284 32.4043H61.9453V34.8869H64.4284V32.4043Z" fill="black"/>
<path d="M61.9461 30.0522H59.5938V32.4042H61.9461V30.0522Z" fill="black"/>
<path d="M59.5946 27.7004H57.2422V30.0524H59.5946V27.7004Z" fill="black"/>
<path d="M57.2391 25.3486H54.8867V27.7006H57.2391V25.3486Z" fill="black"/>
<path d="M54.8914 13.4583H52.5391V15.8102H54.8914V13.4583Z" fill="white"/>
<path d="M76.3242 20.5139H73.9718H71.6194H69.1364H66.784H64.4316H61.9485H59.5962H57.2438H54.8914H52.5391V22.8658H54.8914V25.3484H57.2438V27.7003H59.5962V30.0522H61.9485V32.4042H64.4316V34.8867H66.784V32.4042H69.1364V30.0522H71.6194V27.7003H73.9718V25.3484H76.3242V22.8658H78.6765V20.5139H76.3242Z" fill="#CE0002"/>
<path d="M57.243 10.9756H54.8906V13.3275H57.243V10.9756Z" fill="white"/>
<path d="M90.6961 11.1064H88.3438V13.4584H90.6961V11.1064Z" fill="black"/>
<path d="M114.482 13.4583V10.9757H112.13V8.62378H109.777H107.425H105.073V10.9757H102.589V13.4583H100.237V10.9757H97.8847V8.75444H95.4017H95.0096H93.0493H90.6969V11.1064H93.0493V13.4583H90.6969V15.8102H88.3446V13.4583H85.9922V15.8102V18.1621V20.514V22.8659H88.3446V25.3485H90.6969V27.7004H93.0493V30.0523H94.6175H95.4017H95.5324V32.4043H97.8847V34.8868H100.237V37.2388H102.589V34.8868H100.237V32.4043H97.8847V30.0523H100.237H102.589H104.942V32.4043H102.589V34.8868H104.942V32.4043H107.425V30.0523H109.777V27.7004H112.13V25.3485H114.482V22.8659H116.965V20.514V18.1621V15.8102V13.4583H114.482Z" fill="black"/>
<path d="M90.6961 13.4583H88.3438V15.8102H90.6961V13.4583Z" fill="white"/>
<path d="M102.591 32.4043H100.238V34.8869H102.591V32.4043Z" fill="#CE0002"/>
<path d="M100.239 30.0522H97.8867V32.4042H100.239V30.0522Z" fill="#CE0002"/>
<path d="M102.591 30.0522H100.238V32.4042H102.591V30.0522Z" fill="#CE0002"/>
<path d="M104.942 30.0522H102.59V32.4042H104.942V30.0522Z" fill="#CE0002"/>
<path d="M93.0516 11.1064H90.6992V13.4584H93.0516V11.1064Z" fill="white"/>
<path d="M13.5901 57.3607V55.9234H12.1526V57.3607V58.798V60.2352V61.6725V63.1098V64.5471V65.9844H13.5901V67.4216H12.1526H10.715H9.27746H7.8399V65.9844H9.27746V64.5471V63.1098V61.6725V60.2352V58.798V57.3607V55.9234H7.8399V57.3607H6.40234V55.9234V54.4861V53.0488H7.8399H9.27746H10.715H12.1526H13.5901H15.0277V54.4861V55.9234V57.3607H13.5901Z" fill="black"/>
<path d="M24.8306 67.291H23.393H21.9554H20.5179H19.0803V65.8537H17.7734V64.4164V62.9791V61.5418V60.1045V58.6673H19.211V57.23H20.6486H22.0861H23.5237H24.9612H26.3988V58.6673H27.8364V60.1045V61.5418V62.9791V64.4164V65.8537H26.3988V67.291H24.8306ZM23.5237 65.8537H24.9612V64.4164V62.9791V61.5418V60.1045V58.6673H23.5237H22.0861H20.6486V60.1045V61.5418V62.9791V64.4164V65.8537H22.0861H23.5237Z" fill="black"/>
<path d="M36.1977 71.4721H34.7601H33.4532H32.0157H30.5781V70.0349H32.0157H33.4532H34.7601H36.1977V68.7282H37.6352V67.291H36.1977H34.7601H33.4532H32.0157V65.8537H30.5781V64.4164V62.9791V61.5418V60.1045V58.6673V57.23H32.0157H33.4532V58.6673V60.1045V61.5418V62.9791V64.4164V65.8537H34.7601H36.1977H37.6352V64.4164V62.9791V61.5418V60.1045V58.6673V57.23H39.0728H40.5104V58.6673V60.1045V61.5418V62.9791V64.4164V65.8537V67.291V68.7282H39.0728V70.1655H37.6352V71.6028L36.1977 71.4721Z" fill="black"/>
<path d="M49.0079 67.2911H47.5703V65.8538V64.4165H49.0079H50.4454V65.8538V67.2911H49.0079Z" fill="black"/>
<path d="M63.1214 67.291H61.6838H60.2463H58.8087H57.3712V65.8537H55.9336V64.4164V62.9791H57.3712H58.8087V64.4164V65.8537H60.2463H61.6838H63.1214V64.4164V62.9791V61.5419H61.6838V60.1046H60.2463H58.8087V58.6673H57.3712V57.23H55.9336V55.7927V54.3554H57.3712V53.0488H58.8087H60.2463H61.6838H63.1214H64.559V54.4861H65.9965V55.9234V57.3607H64.559H63.1214V55.9234V54.4861H61.6838H60.2463H58.8087V55.9234V57.3607H60.2463V58.798H61.6838H63.1214V60.2352H64.559V61.6725H65.9965V63.1098V64.5471V65.9844H64.559V67.4216L63.1214 67.291Z" fill="black"/>
<path d="M75.9261 67.291H74.4885H73.051V65.8537H71.6134V64.4164V62.9791V61.5419V60.1046V58.6673H70.1758H68.7383V57.23H70.1758H71.6134V55.7927V54.3554H73.051V53.0488H74.4885V54.4861V55.9234V57.3607H75.9261H77.3636V58.798H75.9261H74.4885V60.2352V61.6725V63.1098V64.5471V65.9844H75.9261V64.5471H77.3636H78.8012V65.9844H77.3636V67.4216L75.9261 67.291Z" fill="black"/>
<path d="M85.8596 67.291H84.422H82.9844H81.5469V65.8537H82.9844V64.4164V62.9791V61.5418V60.1045V58.6673H81.5469V57.23H82.9844H84.422V58.6673H85.8596V57.23H87.2971H88.7347H90.1722V58.6673H91.6098V60.1045V61.5418H90.1722H88.7347V60.1045V58.6673H87.2971V60.1045H85.8596V61.5418V62.9791V64.4164V65.8537H87.2971V67.291H85.8596Z" fill="black"/>
<path d="M101.41 67.291H99.9729H98.5353H97.0978H95.6602V65.8537H94.2227V64.4164V62.9791V61.5418V60.1045V58.6673H95.6602V57.23H97.0978H98.5353H99.9729H101.41H102.848V58.6673H104.286V60.1045V61.5418H102.848H101.41H99.9729H98.5353H97.0978V62.9791V64.4164V65.8537H98.5353H99.9729H101.41V64.4164H102.848H104.286V65.8537H102.848V67.291H101.41ZM99.9729 60.2352H101.41V58.7979H99.9729H98.5353H97.0978V60.2352H98.5353H99.9729Z" fill="black"/>
<path d="M115.657 67.291H114.219V65.8537H112.781V64.4164V62.9791V61.5418H111.344H109.906V62.9791V64.4164V65.8537H111.344H112.781V67.291H111.344H109.906H108.469V65.8537H107.031V64.4164V62.9791V61.5418H108.469V60.1045H109.906H111.344H112.781V58.6673H111.344H109.906H108.469V57.23H109.906H111.344H112.781H114.219V58.6673H115.657V60.1045V61.5418V62.9791V64.4164V65.8537H117.094V67.291H115.657Z" fill="black"/>
<path d="M124.153 65.8537V64.4164V62.9791V61.5418V60.1045H122.715V61.5418V62.9791V64.4164V65.8537V67.291H121.277H119.84V65.8537V64.4164V62.9791V61.5418V60.1045V58.6673V57.23H121.277H122.715H124.153V58.6673H125.59V57.23H127.028H128.465V58.6673H129.903V60.1045V61.5418V62.9791V64.4164V65.8537V67.291H128.465H127.028V65.8537V64.4164V62.9791V61.5418V60.1045H125.59V61.5418V62.9791V64.4164V65.8537H124.153Z" fill="black"/>
</g>
<defs>
<clipPath id="clip0">
<rect width="135" height="75" fill="white"/>
</clipPath>
</defs>
</svg>